<mxfile host="65bd71144e">
    <diagram id="Vdxs7FIGSApZ-IukUTh0" name="Page-1">
        <mxGraphModel dx="219" dy="409" grid="1" gridSize="10" guides="1" tooltips="1" connect="1" arrows="1" fold="1" page="1" pageScale="1" pageWidth="850" pageHeight="1100" math="0" shadow="0">
            <root>
                <mxCell id="0"/>
                <mxCell id="1" parent="0"/>
                <mxCell id="3" value="USSAA&lt;br&gt;&lt;br&gt;&lt;br&gt;Associative: set,multiset, map, multimap&lt;br&gt;Adaptor: stack, queue, priority_queue&lt;br&gt;Sequence : array, vector, deque, forward_list, list&lt;br&gt;Simple : pair&lt;br&gt;**Unordered**: unordered_set, unordered_multiset, unordered_map, unordered_multimap&lt;br&gt;&lt;br&gt;Sequence containers:&lt;br&gt;implement data structures that can be accessed sequentially.&amp;nbsp;&lt;br&gt;&lt;br&gt;Associative containers:&lt;br&gt;implement sorted data structures that can be quickly searched O(log n) complexity).&amp;nbsp;&lt;br&gt;&lt;br&gt;Unordered associative containers:&lt;br&gt;implement unsorted (hashed) data structures that can be quickly searched O(1)&lt;br&gt;&lt;br&gt;Container adapters:&lt;br&gt;provide a different interface for sequential containers.&amp;nbsp;&lt;br&gt;&lt;br&gt;&lt;br&gt;&lt;br&gt;&lt;br&gt;queue&lt;br&gt;deque&lt;br&gt;priority queue&lt;br&gt;stack (reverse of queue)&lt;br&gt;pair&lt;br&gt;tuble&lt;br&gt;vector&amp;nbsp;&lt;br&gt;&#9;feature in c++11:&amp;nbsp; Range based for loop&lt;br&gt;STL iterators&lt;br&gt;STL Algorithms&lt;br&gt;set&lt;br&gt;multiset (same as set but allow duplicates)&lt;br&gt;unordered set&lt;br&gt;Map&lt;br&gt;string&lt;br&gt;&lt;br&gt;&lt;br&gt;&lt;br&gt;Container.&amp;nbsp; Iterator(like a pointer).&amp;nbsp; Algorithms( sort )&lt;br&gt;&lt;br&gt;some problems needs another container to solve it&amp;nbsp;&lt;br&gt;&lt;br&gt;Types of container:&lt;br&gt;&amp;nbsp;Unordered: unordered set, unordered multiset, unordered map, unordered multimap&lt;br&gt;&amp;nbsp;Simple : pair&lt;br&gt;&amp;nbsp;Sequence : Array, vector, list, Deque&lt;br&gt;&amp;nbsp;Associative : map, multimap, set, multiset&lt;br&gt;&amp;nbsp;Adapter : stack, queue, priority queue&amp;nbsp;&lt;br&gt;&lt;br&gt;&lt;br&gt;&lt;br&gt;&lt;br&gt;Sequence container&lt;br&gt;differs from speed in access , remove , add&amp;nbsp;&lt;br&gt;&lt;br&gt;&lt;br&gt;Array has a fixed size&amp;nbsp;&lt;br&gt;Can't change&amp;nbsp;&lt;br&gt;default value : garbage&amp;nbsp;&lt;br&gt;&lt;br&gt;&lt;br&gt;Vector dynamic array&lt;br&gt;يعني لو معرف vector في 100 element وماستخدمش غير 5 مثلا هيبقي الsize خمسه بس حبيت تزود هيزود&amp;nbsp;&lt;br&gt;&lt;br&gt;هو dynamic بمعني انك ينفع تت change size&amp;nbsp;&lt;br&gt;&lt;br&gt;&lt;br&gt;&lt;br&gt;Initialize vector by more than way&lt;br&gt;VectorvectorName={elements}&lt;br&gt;VectorvectorName={size, initialVal}&lt;br&gt;&lt;br&gt;&lt;br&gt;VectorName.push_back();&lt;br&gt;VectorName.pop_back();&lt;br&gt;FrontEl = VectorName.front(); // returns the first element in the vector&lt;br&gt;&lt;br&gt;&lt;br&gt;El = VectorName.at(index);&lt;br&gt;// The at method its advantage that makes an exception for out of range&amp;nbsp;&lt;br&gt;&lt;br&gt;&lt;br&gt;Size vs Capacity&lt;br&gt;cout&amp;lt;&amp;lt;&quot;size is &quot;&amp;lt;cout&amp;lt;&amp;lt;&quot;capacity&quot;&amp;lt;&lt;br&gt;&lt;br&gt;Capacity هو عدد العناصر اللي ممكن اضيفها للvector&amp;nbsp;&lt;br&gt;&lt;br&gt;default value: zero&amp;nbsp;&lt;br&gt;&lt;br&gt;Vector part 2&lt;br&gt;Iterator is a class inside the vector" style="text;whiteSpace=wrap;html=1;" parent="1" vertex="1">
                    <mxGeometry x="930" y="190" width="610" height="1390" as="geometry"/>
                </mxCell>
                <mxCell id="5" value="" style="shape=image;verticalLabelPosition=bottom;labelBackgroundColor=default;verticalAlign=top;aspect=fixed;imageAspect=0;image=data:image/png,iVBORw0KGgoAAAANSUhEUgAAAggAAAElCAYAAACBJhoWAAAAAXNSR0IArs4c6QAAIABJREFUeF7s3QecnVWZP/AnmZYy6YWEJBBaQu9IE0QEFWxrXXVdsa+71lXRtYtti33t6Fp2rdi7oCAWukjvEAIhJJDek2n5/79vfMKby70zdyaEIu/5fOYzM/e+pz3nvOf5PfUM2++NH9189F6z4svn/yUalWF9vfGUTTfG8OHD49prr234nC/23Xff6O3tjZtuuqnf5/bYY49Yvnx5rFixot/nHu1fzjvsuY92ElTzryhQUaCiQEWBOhRo7Vofu1zzix1Gm2Gv+Ox3N//n80+KSa/+r6KTw3fbOeYtWRHL127Y2imA8LoZXbFx48b47W9/G+PHj48JEybEsmXLYvXq1dsM7nGPe1x0dHTEOeecE7NmzYrW1ta4++67Y9OmTds8t9tuuxVA4s4774xhw4bF7Nmz4/bbb+93orvvvnsxBu01KvrT7/r16+Oee+5p+Nwuu+wSLS0tsXbt2liyZEnD56ZPnx5tbW3FOPsru+66a2zYsCHuvffefp978pOfHJdeemkBjh772MfGbbfdFosWLWpYpxYgHLzLtFi7qStuvWf5DtsUQ224vHeO2WtWrO/qjivvWLxNc+NGdsRe0ybFmo2bYvPmiImdI6Ovb3Ox5yaPGRU33r206e4njh4ZmyNi7cau2GXS2Ljt3hVx/N67xh9uvKOpNoZFxAuOOTBuvHtJ/GX+/dfgkF2nR29fX1y94J5ibEvXrG/Y7huedGR86uxLtsxtw6ZYvGptw2fbWobH/jOnRk/f5rhmwf336LRxnQV91m3qbmoe1UMVBSoKPDopUAYIeOj8+fObIsSoUaNip512isWLFxd8KwslgHaSzw6L577NGbu17DF1QsyeMiHOvW7eNgBhtyt+uPX/MWPGFI2++93vjve+970NB4QBjxw5Mg477LD4/e9/3/A5YOGoo46Kb3/72/1Obq+99oo77rgjurq6Gj6H6d58882xatWq+4GS2kqTJk0KjP0vf6mvPRk9enQ8/elPjwsuuKAAHEuX1mde++yzT8HwTzzxxPjBD37Q7/he+MIXxre+9a1iKPqfMmVKoW0BbJS+vr4COGUpA4Q9dpoYo9pb4x+OOTA+/quL4rDdpsdl8+6O7t7eGDOiI55yyJz48Z9vjJkTx8Tlty+Kf3zsQfGNC66OZx2xT8FEz7nmttiMK/+1dHa0x/OP3j/+eNOdMXZkR8Fkb1q0LObduyKedOCesW5TV/xGnaa2XER573zmtFPind/7Xaxav3Gb2q974pHx+XMvK/oDQk877uC4dN7CuGHhkvj8y54a//yVnzfZW8TMiWPjOY/ZN35y+U0xddzoABhGd7TF9y+9PsaNGhHPO3Lfgj7aHjtqRBw4a6e44OY748kH7RkjWlvjOxdv0YY98YA9CtqUy2P2mBGr12+KhSvXREdrS3zgOSfGjYuWxmfOuSRecvzB8T/nXxGH775z3Ll0VTz1kDnxd4fvHc/42LfjDU8+Kr578bWxaOXaAqzMmjg2vnXhNdvQ8EXHHhgX3rIg7l6xJjb19MYLj94/FixfXazDyQfsHjMnjI0f/vnG6Oxo27qm9/QDOJomWPVgRYGKAn9TFAAQjlt9bcFHFHzvlltuiXHjxgXhlrBMOL/ooouiu3uLwEEgf+c73xn//d//HevWrduG3xCGp06dWgi6nr8fQNh10rjYc9qkfgGCTnROosc8GxWd/cM//EOhdbjrrrvqPgZEnHLKKcUkfvOb3/S7eCaNwZ555pnbTKpcyfd//OMf4/nPf3589KMf3YYh1jb+spe9LP7v//5vK+Hqdf7sZz+7ADmYOuZdr0ycODEOOeSQOPjgg+Ob3/xmgcoalXoAAbh4zGMeU1SZN29eXH/99VurlwHCaccfHL+9dl48Yd/d4ubFy+IpB8+Jr//xyoLJnPnyp8bFtyyMlpZhcfPi5fGNP10V33ntc+LL518Rpxy4Z0yf0Bkf/skf49q77tNwnP+ul8ST/vMb0dPbG6844dD46h+ujI++8EnxgR+dHzMmjo0j95hZ7IOytgLjPWTXaXHRrXfFpu6ebaZZ3jtzp0+OE/aZXYxvY+m5udMnxYefd1L84spb4iu//0tTAKGjrTWO3nNmXHHH4vsBjnc+47ji819eeUux8U9/yjHxXz+/IJ59xL4FKDr3+nkxor0tdh7fWXz22d9cGsfN3TVO3n/3+NivLooFy1bVBQjDhw2Lz77kKUUbp3/7nAIE6KNv8+b42ZtfGE/72LfitOMOijEjO+KL514e577jtHjcB74STzxwz4LxA0bPOXLf+Nlfbiq0Dxfdct/+f9MpRxcATzlmr5mxZM36eNqhc+OqO+6JPXaaEJfetjAWLFsd3/iXZ25d0/d8/3d/UwdbNZmKAhUFtp8CI6Mn3nnQhPjf//3fOPzwwwtepdCM40sEebwVw/c3zQFe/MEPfjA+/vGPB1N/mYc7Qzs7OwNv/PSnPz00gACVkPr/8Ic/9DtDAEGHj3/84+Pss8+u+yxzxd577x2k8F//+tcN1e0jRowoJnraaacVmoZak0U2/oQnPKHQVvzzP/9zfOYzn+kXIBjX737X+OCFpGg2mAQQu8y4ayczduzY+Lu/+7v4zne+M2gNAs0ELYtCRVT23ygDhH12nhIY1/OP3i8+85tL421PfWx888Jr4t7Va+PTLz41XvDZ70dHW1s8/ZA5hRSLab3267+MYcMi5t2zIjb29BZS6bRxY+K6hffGj//1+fGiz/8wunt64xWPP7TQNnz2tKfEG7/x68DImQm+fdG1cdfy+8xI7a0tMalzZNy7el309m2rW0iA8Meb7igY6TF7zorr716yjWp+/OgRBfP85r88u+j7H489aEANQsvwYTF17OhYtnZDdPXcp11Br6cfNjdO2Ht2vOmbW/bX6U89Nj7y8wtiRFtrwZi/9IqnxTM+/p3Ye/qkeMXjD4v/Of8vBUAAlMwL+MGcMfJyAYSAg7ecenR85+LrYt8ZUwqwpP/z3nFaPPVj34qXHX9IUeXM8y+PP737ZXHke74UJx+wR6E9YGJ4zUlHxFkXXxubhw0rtBhZXnzcQXH+9fODVmD3nSbGsM2b43lH7R8//ctNceJ+u8VFtyyIG+5eFl955dO3runKdfepAbf/WKlaqChQUeBvgQIj+rriP4+fHV/+8pfjoIMOCnxy8uTJBVAgqK5Zs6bglXz9mLJpqmkNaP8/8IEPBJcAPBBQYO5Wn3nhX/7lX4o276dBOGn/3QuV6u9vvKM4IBU+CGUTA7U8htjT0xM33HBDXToDBph+e3t7ofIwqP4KjUR/tniohsaCtN1IG6F9hGGK4B+xcOHChl0iBACDgP2VOXPmFM8BB2X1fG2d/fffv+izvzmo86pXvSq++93vFqqgY445ppjPjTfe2HAItT4Ij993dsHQ3vSNs+PIPWdG6/DhccX8RTF57KjYc+rEmL90ZaxavykOnT0tunv74vwb5sfj9t41WoYPL1TYY0a2Bxv39QuXFGYJavLbl6wopH2/l6xeH4tXri0YnbYuubW+5qfegHPvXDrv7sL8sbGrp+i/XJhJdp86IRavXBPXLLi3MEssXbu+GPMzDpsbG7p6inHcsrg5HwvAgRr/8vmL4og9ZsTkzpFF3Q1d3UGLcfuSlUV7xga0XHDTnXHUXrMK3wISO1v/sXN2iTuXrizU/Fk6R7THUXvOLNq54OYFhUnkiN13jvOun1+AjcljRseilWti5fqNwS9E+dPNdxZt9W3ui4tvXViACvV+d/22vjXer8fO3bUwDfGXePy+u8XqDZvi8tvvLtZ0RGtLoaGZNr5z65oy+1SlokBFgYoCZQowMRy78upgDudLBwBg8PwLaBGYCWi+gQT/ZyH8egYoYD7HW2mv8XU+CIRWvn73Awj1yF8LEKolGjoFABg+FPwMqHssXNnnoLblelEMJOpa6X3oI9pSk9mAqr4AWe2tMaq9PZatbeyU12x/NB4YZZayiaPZNqrnKgpUFKgoUFHg/hTY4VEMp3/9Z5sP2nV6RfuKAhUFKgo8KBS46o5F8aMP/OuA2rsHZTBVJxUFKgrUpQABdtiPL75685MO2qsiUUWBigIVBR4UCpx91S3xiqeeWKg2adOe9KQnxXnnnVf4K3FaZo5kUhRCTeUpbLq/UOSBBn3CCScUJr0DDzywUJuKhKJGvfLKK+Poo4+On/zkJ/dr4qSTTipsuJn3halRHeHbtUWkk0ioNH3yWzIXnuNZOCF75nnPe1786le/Khyz+Rtpl8/RxRdfHMcdd1zRZ6N+nvjEJxbj8Vsdc0KnlStXblOHSfSZz3xm4fflme0torOs0yWXXFKYjGlBRYv9+Mc/vl/Tc+fOLcbGVwytOZ5bP+Xkk0+On//858U6LFiwoGEOnDKtqc6pzJ/znOfEL3/5y8KfrUxr7TLVXn755YUq3Y869g4GZ9xMw9qcMWNG4TCPZvbZnnvuWYzVPvRZmpuF+pkjpz7zpeHVTvajPZ9NmzatMGPbo+VoAP3bV5zl7QOm+LTtG5/283+/03lQH1T9zNTWVGEyMBZj46TvtzrGwA9QagB/+xG6L8KwUVTeYPfBzJkz7wMIaV9HLJNG0HrFcyZtojz2Tz311CJcr7bkc/k5x0EOEbVFXxauv5JtCV+0qAg80PO+N85Gc+jv+6yTNGnUjpfPotUWL6ZDrz+aOGgyZ8RgF656vqLAI5kCCRCcMRgNnyE+PuyhooEwFQyE57X3SwjXddddN+QpO7D/8R//sTjTMHG2VocfUILZfvKTn9ymbQcyBuew/chHPlJ8xwFZHY7P5cLJ2ndstpgfxsNB2rg/9KEPFY9i+JiJg/u1r31tEQrtHAMg3ve+98Wtt9669eDnTFavH2eQ9s4999zibFEHw73wwgsLJlFbR8I6NueB8rc0Q9Q3vvGNBf2tA493AIsT2+c+97n7VTcvY+Mhj9Z+o7uz29y/8IUvBH8tvleNxlam9fHHH1/4sDkrtatu0jo75zQPlPk8nfG0z2Gd47vcM/aUdbDHFD5vQIf/gTIAFKB53eteV0S27bfffkW+H+tmnNrRDzpjzPzGnP/2qZxA5T36T//0T8WexvC1Kx/PFVdcUTB7/9sbL3nJS+JrX/taEVLof8AKsANYAEigwZqbl/75twE8HBCPPPLI+MY3vlHw3l/84hcF2NSfsMWBHO+bWe98ZhuAoHGhDSaF0F5YTgyQUBaTNBk/0BwUBZ0jvvA9L6KC6XtR1IfOERvxLZ7PgQsTtelEMHB6hACf9rSnxU9/+tOCKAkaPMub8oADDiiIC316KbwA2hBdgJFn38Z01llnxVOe8pQC2f3whz8swj+gqyz/9V//VSy+BdeuRTE2UoPPsxhfOmvYoF4OG88BAsVB/A4RB42N6+AxZ3MtAwR0Mx+bSvs2vPGqq45+bdiqVBR4NFAAQHjV00+K17zmNcV7RPrynnkvvN8kLx7ZX//61+Pv//7v489//nNDZ+iB6OWQ/exnP1scpJiXkgDBOeL9d9iWizr/+q//WgAU3+28885FlJED8/Of//z9nn39619fnF8YgTlgqHyL8lkHO4dt0r+wb0zemegMVZeETBrHGEmP9frR6Stf+cpi7OqqY5zOIkyuts5Tn/rUArBsb9HHm9/85qIf6+K8xuTf9a53xb//+7/fz3/K3GlGMGPn8qc+9akCyAAI6vjeGelcb5TUBx/I+bzhDW8o6GjueMOznvWsgtZ/+tOfiqm96U1vKgCez53n+A2Nh71DK4CJ097Q0PDUt94YMaEWw7ZO9gHtAIEXo6V9oBVSBzO2JtrWD75iXsAPviK80LpZW2ABYz/99NMLHolf+d+zeNFVV11VrB3N1TOe8Yz42c9+VtAGUEx+Zl7ABkBC82K8tArf+973Qsg9HoSXqGONaRqMFV9929veVrxTwhMbheQPZj9sAxAgPahZwza6TYepQvRlgEB69wxGd/755xcSAK2DFzqLF14bfiM25gfl+rFIV199dbzoRS8qNgj1i82H0WsT8b2YniszagSBtiyqgRuD/vVtA6cay+deaguO0FA09OXgyfLhD3+4WCjjg25tAAAAUDjiiCO2PgcpAwkOCO1aGBvBYgAnmHyGlAiF9DJZMDSqBQg+048+gQm0MBdo1PgyD8JgFrB6tqLAI5ECqUFolHjskTinasyPTgo41wESoGVHXBuABz8QWqChrA7eVPggnLD3LoVtBiOHWDBtk8UAyyp0yOeaa64pmC1ElFIwFQ3myV6TCB36OvbYYwuGj7ELt/Djf1IDTQUUrI4+oC9ICSP2nGcUCA/y8lmq6jBuWgcM11h9ngVguOyyy4rvSPj6QGSoUdEOdIbpQ7L+T60ItAd1ZgFKaCQ8C0Eq2le0Z3Pkb0DEgactQIHaKQu6mYf2E5ECROYFYEDlQEdVKgo8GihQCxBIUf0lSSPtAdFDLbScgDnBgoSftn9gn0T4ox/96H5NExjYe9OeSwPgna2XGM6zzqSUiJ07zqX0QXD+EURIqs5E/dJI+O1scsbQDDhPnKvO0pSQywNzznnGPMzH+eu8RJvy2AgeNL/O6rRlD5V26tFw6oemVKH51H49fwxnGU0pHwi0Th8O53zSmtBJQGo0tlpamzNB1HkpGV2Z1sZD44zfNCrOYyp8mpxczwyHJ6w2W2r7QYeBwuQbtU1AbWQ2S/+HgcaFB6LFjir2W+WkuKOoW7VbUaCiQF0KJEDARDCeQw89tGAmVLK0a9TEmMhXv/rVgjEwWTbKt9IMiTFcUh4wrh9tkY6Y/qj8mVfLBTPjs4Dppg+CsWLIteYInyUDpTLGzKjFMemsS7tpjpgYYJCZU5lxU21MuCBosSsTlmoTy2Fy5gBMEOIIFGmHxqTKYyNcMacQ8vrLBdMM7Tzz6le/umBmGBctLxNuPR8EY0y7OBMNWjNzmDPwhNb8FgAq3zWSjMu0ZjrgvwZ4mKd1s2fQWiGgpekADanz7Rm0oXon+KIXsGT9acb9D5wYK8HNdzS4TNn6Zkqh4TZnAI55xGf60QbB0vgxUOvET0K/ef/P29/+9kJYJHDToOvTmhOOaZbPOOOMwvfkrW99a0FHJid7CFgxLj/MFwCNvgmdnmH+ACTl0vF/Ai6+FARh+0c/6ptPrTms2fXO5wqA8LFv/mjzUbOnDrbulueHDY/NoycPre7DuNbw9ctic9+2GfsexsOthlZR4BFFgYvn3xv/9aZXFz5HGA5p28FGqmSLpQFM5y4MwcHqoBxqYb+mJeDAhenLdkrKJxHzu8K0yjZbjA5AABQwDQc0poaZ1GPcnOEwbtKycWOODmkARzEngIEJE1jRPq1IOmDSGhgfkyiGZL4c1coFs2BzNk6MOqM7MGvgo3ZsGASz5/YWgAeIMV7MFpNEg1e84hXxP//zP/dLHoexkWppbdD6i1/8YiG9+0wdWXA5htKqNgJ9GHvOB91pYvRLAwv4oHVmwLV+/A0we3SlecGY7Rc0w6DRhwkAw6N58RxaAy6YKkBGA+xvDo2iNWgxMHZ7BshSVz80J/YswAOcWHOSvL3ieRppAAE48z1Gri4fGGZ4GiS+DsbNN8Z6q88k7zs+c8ZmngCHsXk3mN0zm7Dv1LEXaFW4BvC10IZ+gCnzUXd7SgEQJux7+OaO5c1nyyt3mCr27RnEw7FuZp96OI6tGlNFgUc6BTZNnBkt985vePnZI31+1fgfPRQA/IDJ8jUBNCVAwCO9VAChwQpWAOGRvrWr8T+cKVALEDgUs883KiS27bGl8/shHVIFk7pIn9S1TAxUu6S22lLr90DyJwmnHb78vDAz5oN0UqOC5rek/SwkT5IwiZjKnKqZpoS0bG7MDTQDNBD6EdJnvC6Jc/GcMfLRInWzX5OmqZsVfaljXvohAVM7U8OT5EWBkChJ4SRekizJU+ErRQPy/e9/vyH92f0xQu0oJFxt0Cg0ohtVPT8zEm2ZBugkF4SxpT9XbRvmY33yBmDmFCp/5gqaEXQrO7gaH41EM4UTuvq1he9ZORWx79GbZM7HI9cUzWlJaAaYdQa6QqA8NnRrJp9Hf/OpfRcGM59m6FN+pgIIFUAY7J6pnn8YUUCMdn83hz6MhrrNUBIgYGrUpZy/MB+OxVS7GA+Qjkk6pDCI7fFB4NTHls3XgLqZ2QJjxMAxhfLlaDlQduyyoyB1OcYmxK9cMBaqf4wi7eLi211k95WvfKV4FCORG0GkGNvze97znhArb37s3L7H8IXLUcGn3wUGhSnqG2ChEqfm1g56pZRqLuoAL/oRWmisxs85EqOmAkcHdn/tfulLXyrGZvxoXo9p5jzZygEKKnNj5oTYKA9C0k0ouTEygVhnNvq8QM9aoE+jO3WYNMyJeQfAAR4BHkzZPJhsyqYegMmaGluq4ZkYfMZUwa/Fb58BiNoyH2YatKGKB874IlDdp2M70KZtdMw1tVZU/mgPuMlpoa7xmqc27Adhq8BAeWz6s87azbHZ++YCKAJh+lHHvvc+ZDhr+jx4htMrMxSTRrPzaWRueMELXlCALWYUppey42S/AAGh8o5pA4L8EKZcGpkYJuxzeIyYOiMW/+kXsbl3y5XAHS0t8cw9d4mevr74wS13xLb3AD40R1miRraqMpqtNAgPzXpUvQ6OAmy59irnpma8/Nn8HTD2O3t/rdRO+nTAkmBIb7UZ2dhLHXJpr3eAcN4arCc3gNC29M6CYXDgcwiW8yCwnbOjSljDV8Dh1t+FZv1RzaEn/p4KmN3Y/+bpTBM54TCvTX6kPQcnGjn3MGhM1A+mVS7Ay8tf/vLCaQ3QkANFrD8apfOjvsSov/Od7yyuoHeLHs1FOhFiVm7XI/lnqDcaiBbji8ApDfgwJg6cmKZ1ZMNWgAEMw5rphxMcrUnmTHBOO7sxI1oMv41DHeOnAWmUMwG9tA/IoaF2+WwADdqojbdPutG4ACTAiv2ELsZmnrQoAF+jPAhyBKAZEGPP6tecMcTnPve5hbYjEx699KUvLRwSOR6aF2aOMfM9AARoFkjZ+rfX+Hq85S1vKT4XhWC/G4u9bT9oD43tbRErOR9tmyua2g/oqA90RRN9AnD6URejb2Zs3kV77L3vfW/BnPEk8+GAqH3t0qhYW++C9vlbeO/4WjQzH2BFPcWaaBfQsi+shXfPj362BV77N/ZBKKuhLBKHGoQrHwb1AMLIKTNit2e+Klbddk2sX3RHrLrlqujr7oonz54RFy1aEp1trdHV21cM9rCdJsUNy1fGQVMmxpINm+LgKRPiGzfMiwkjOuLQKRNjZVdXnL9gcQEuTtltRly/bGUcOHlCbOztjauXrIhjdp5aAI2zbp5fbPZn7rFL7D9lfHzg4vtCV/5uz11j+ugRcffa9TF73Jj41F+u3/p+WwQShI1SfkEqgDA4RlU9/dBQAAMhsTgAvfAOR9IhxkaiKQN62gZM14HjHRZayMmsXNhSHZzeJYchhle+SEzb+kmmkNkAy/HfDhmHkYMPE9NX7S2olQ/CQ7NfHq290iBkuOWjlQZDmbdz5X5OihAGgkJWmWsb8qJG8VO+zrgeQBg1bdeY9aTnx6pbrymAwdIr/hh93ZviKbvNjN/euSjGdbQVDF8S5FN3mxmrurpiU09fzBgzKvYcNyY+fOk1ceT0KbHb2M5YvnFj/N8N82LSiI5Y39MTG3p645l77ho3r1gVe4wfGyv/f7aynUaNjJ/NWxAbe3pj93Fj4tTdZ8QXrrqpuAbZZwDC7uNGx+qu7hjd1rYNQIDAXvziFxdZqtKeh5AVQBjKdqrqPFgU8B4C7byWMy8JtSVPZ4yZjZT0U2bupA9gOHPAU3HW2t7ZoqlxFRIVtWMtQCB95GdUvfotAwSZD0l4wAR1rINZlEK51AKETM/biH61Gr7B0tlcvdOkYcIAVbRwNfSjFjaH2pIq4JS8SLToXi/u3LP8CJIOntNXaiVJhfrL/C36pZ1FR2r7zMVCC5R5Ykh07N6kbGuhDk2LYg2ZHJy/5uNZNKJpMZ+UiMt1+B9QszdS6/dHU3WNq3xGNno+7ez2hvkYg0JT0WhstW3V0hotabSZ05zZZVqrK0dNsx77pPt6mgs8Dn3KJTXoQLV+rRXAS4tmLevVqZ1LeWzN5k3obz6178Jg5lNvzbyj3s/auXu2LkCgSqHyYrtKRxYPIwbVykAAwbPTj396dM7cI2476zPR19NdjGt0W2u89Yj9Y0bnqHjVby6Kfz5obsHcP3fVjfFPB8yJq5auiLFtbdHZ3hq/uH1hPHuvXeOe9RsKTcFNy1fFe485KM69Y3EcOX1ytAwbFt+8YV688sA5sa67Oz50yTVFH285fP/o7uuNH916Z+w9YVycc8fd8cTZM+Lm5ati+cZNRZtfve7WrXQSVuIgrXUKqQDCYI/g6vkHkwKYL0mdyhuTb8a8YHxAggOOEOCwq00QxH7s8AUkHA7U+gBIFoc0p60ECDQS7LqDvRAoAQKNhfOENgOT1jf7q/S1nNGoaVNNXI+JN0tzhzt78Sc+8YkilAzjxrC1qX1q8HJBG0BHvcxlwG7uEC073akDDFAtMw2kFpIDIroluPAM5ug8tW7+d57yWxBWh3E4W5kRrI1+aGuZkGSLpeKXZhg4Uzh1ak8YpfmYB1UxPwLzEf9erkOTQ4Pku9p7J5qhoZTKwhUbmQSyDYxcyn32eXXMhxkLPQDFemOr13+Z1lIp8+VAIzSmyS7TGkhiXjA/NARi7FN7m5+H39aSGQ6daMD4eqA9QA0EMO3Y71T7zAJSYFt787U3zedjH/tY4W+Q93kA0hwxzTHvSMi7MZit+F9kDoYcm/asm/ZybNaJ7wgaGY+9bz5AgrExNckJwpcjfSeYp2j6mLWanU8CKOASIMj7jMxBQTfgEchNILrDAEJ/m651+LDo6Ru6B8KcCWPj5hWrY3xHewE6Fq7dktmwXGgnht5DpUFo5tAvVZM+AAAgAElEQVSonnnoKAAgOEQx6jPPPHNAT+ocKSkOc3FQ0Q7U2o8d8A5Ahw6nKY5kbJ3lUpvxs6xhaJYiAILQaodT5uUv+yA4sB3oHMgwA9Ly9lzW5GIczn2YC8ZMqpV0yMHsAqFaHwR0kBxI3xgdiRE9HJ61AMFByz6OgRE20rseg0lhClMwF/9jJg5+Xvr8C8TDZyp6v2UnBCIwl2S2GJ+xA2PGr4514mvg/4wyMDbzwczLdawLGmaynmbXyXPmB1zxKcAkB8rxn9og4M98OCuaK2bWaGy14xGxkLQGWjHbTG1vHGidN3BylvQO0LKgCVCWdyCgAbBHykZ3+/q73/1uSLWPwRufZ60Z4EwrYK0BNEzaeuZ8PvjBDxZj0j5ATAulbpqogQCfA4v6BW6bGZtn+SDI1WHfA3zmg+Z8gIBJ+9UY7Ud7x2/OpoT5ZueT4LIMEOxzZkrzAJjsef4xWQYECOXNAIUiTqqMcvNkCuPBbLqH+7OVBuHhvkLV+HY0BRwetb4DD1SfqUHI1OvOGT8kG+eJAxoTcCDzpSibNYYyBoeqtjEB/VCrOij9rx8amFrG5xlM3RiBoryit55DJuaNUeTVvpixv9NkoL5nMGjfZRKdnKd+PJO+H2jgwMbQPIOJ0K7kGLVt/HlO5ZXAJD8MTr8ZDpd1PFNr6mmWlpl+vjYMsF79NJ0Yi/nw2s/riRuNrbYd8y+vD5onwNGGcSQwzVBDQMkP7ZA569vaGgfNGbCLBjmeXKu8bjn3G1pj9NYbfXM++lTfWgEb2vG9kuuPTvrPfpoZm3Fqx7PmlNedJw20Z2zWP9+FjHppdj7lvVNLa/PMqwZoXjK01HP9AgSEMGE/GiBxeFHLh0aVKKnZV6x6rqJARYGkQK0PAlNJf2GM9WLUB0NNphDMmW+V80u+ANJjSny1WhJtk/pJVunoiXGQXssmlxwDnw/mmDIDLduK/U2y5ESamQHlOKDJwRBIh6RfDJx3vrFR+dIMUNFjUgBD+jQADrQMGIozGAM1NjZ6c2SWyH7StuxzKmw/gy00VsZJCzBQwcDxCZoq8ylnc7TO6IRhk5br2b21X0trzJyWhkRP4q2ltfE14x+h7bx6unYe6ZtT/tw65IWDqclCYxoRKv56dWrbLY8NH23GHNfffGrfhcHMp97aJTBJs0L5mboAwctkIomObEbqlHo3r/2tAgREGkiVNtCLUn1fUaCiQH0KbBy/c2xedFvhQ4F5CtvCPEk6HP6o/qmUpceVt8ChOtQwRyPAVNiHqcgxGqp+AADDoRquNV+Q3oQuYgr/8R//UUyCrZjEJnFRuVABsx87L/gJKMIoCVR51wDpF8NkAsC4M00vsGLueaGd7zEfTAkzxqCE3rGZU7Nne+mDwE6NGdPsGhsbOymaL4J55VXQmDuVubTB/DAGW4QmalO4YX8FI2cn5/RNJW8+wgGtM60GFfZ//ud/Fjkb0LxRDo8yrY1ZvgrrBSBxmCzTOultjr73A6SgFz8WwCETZaE7muJx6R9i/wFl9h3p2X4TBcT0hbbaMB8hpfaltWTPZx4SHmp9AAV92mf8TKyx30CvvZBj89v6AH05NmYC+9z/mLR21cFb7Qt71Vqaj7EZEzAIvJpDs/NpBAztXftNexnhlLy/LkAYzOb5WwYIg6FD9WxFgYoCzVNgw/jpEYvmFY5aBBAHUtkHgXRGiuI0hmGSNOslM2qmR0zLHQAOckwKQ/AZRy+2X4d5bbing1yOBoV/AimLwyDAkPcrZN/ABHuxAzhj4zGxzB3jkHfAm4fvefdTT2N4nOH0o30qcIwMkwJiUiVOOOMvgfmnk51Uvuzq2sYwMLR03EM3tuvXvOY1hS+CvpRG3u4D0RCtABJj4o8xkOBkrJiyOZsPB1AMDch785vfXAAEgMH/jaR+vilJa5oPjF2EDYarTbTOeH3PAi764PCJbhid9uVMwFjTB8TYMeDTTz99650FtDDax+Q5UvJX4dhoDbWV87HGGGlefqVdzF7dvB8CCKNxQmv7pJmxARa0KegChOVtw8CH9TYu+9Hf9pDxAozACpNDM/PhyJyACIjhJgA8apf5wh7moIh+5f29wwFC+9iJMay1LTatuDdi8xa3wbwK2WJtT/rUgZBs2RTSOWJcHLbbCSG28s+3/S7WbdriDdyopI0p20j7oA2RL9xAL1b1fUWBigL1KQAg9C2sr5WsaFZR4IGmAPMOKb0qjSkApAKBZSfcHQoQAIP9/vmDseSy82LplX+M3o1bog14m1KbsJ1AeaQDoIHjToYdUi9CUtRFnoPaMoe1xfY/hEqtBi2z1UFAkCWtBvseO1yWZx7xqvj5X74W7a0j4oXHvjG+dN77i68kg4L4oH1qLASBaqErPhjsfNoFEIxZClChLlWpKFBRYOgUqAUIAznQba/DZDnyQluEk/ztvKgXiVF2GjRTz6nTzLPZXz6rXvbjO/2nCjnnlsKI/2vHlnXyGXW1kf34vLZOtl8WcsxjKFEn1icdKLOfRqufY1MnnU/z2Vzn2vnUtlWP1rV0K2syfNfsvAbzbIYC1qP1UPprdh/3N8baNsrPDmZuzby9OxQgtI4aE9OOOTU2LlsUbZ1j495Lz43eTRuK0AyOKzYL1U862lCX5IJQm1HncFbJ0A7qRuo5IICqkMqJKpIWgsTPbpM2MioTtishQ8quU+bGmJETYtX6ZdHZMTZuWLgFTfLaFHcsvIWqE9DwmfFx/NEXlZ0xUgNBWNSS9Rw6miF49UxFgYoCEQkQAG7vHru198s7T43qPgKx38C4ZzgGbk8eBCpgfUgRTHhwbnjXqVoJILU37zmbxM6zQ7v3QKEupj2stcPTKnJS5LfFZOAAF7vvjMhUyL6jdha66bxRRzph8yMU6YePhe/Z5zPFrrGhhbPRD3OD9iV3E7ZJVU8tTIghTBGcfOY6aypxPhb8FpyHVOZU0+lTMZh9yMwiHwQhiYNhJtOqbaM8tk9/+tNFqmxnKfMM84AxycMgTJMvR6MU3WVao6X01lTh6IgOSevs39lvjr4zX/4E/EGES1qTzKWRfh1s+Zgp80Da962DHATMEpxYOYYaHxMUWvOp0JZ1JMymD4JwVGYAvIophu8Bs4SQVPynPDb7zV60Pjk24crWCTNmZjPuTHmOF/HNsb8kH8t3gZDMh4MvBB+EnE9quPk4MMWgsfkwz8kazCzi+ewH/fBJ/TB/qYMGWXYoQBg2bHjs8bzXFmr9eT/4QpFVUbHQCMAb08uGqBaL/QdgQFhE9JzPOJTkjVqAAWLYbBbU/xbTIpL40xvZS+KlyQ143D5Pi6Wr746V65fGfjOPjN9ec1YxFhoCtiubivOJl1d/1FHqsts4sGgvvJxeMAs4kB1uMC9f9WxFgUcbBQCEYYtvL5y8HE6Kd8wBTqvnIOPABjw4BzKp0VDphBmz2ZKCnTsYiEMysyuy4ZeL80gMO7UrhkoA0QYBphZMYEyyWhIiaC0xd5cxARNyACicCZ0ztJ3ONmcVTaozB4PKfhzehBDjQgMM19kENGAiGaaYsfkS8jgzMQSCDJBBI0poAhwAjnTABEKcaY1uUGxEW3PmyAZQsZMbX70bLbN+jg1TBkrUMXfgRR4EMf6YKdu7s75ecf9B0jp9EPxGW+czWmceBAwWszZ/e8m5n852xmIdnOv2EbpSob///e8vsgTjE5kHAY8BgLRDMPQdf5Ccj3snfG/fqAO0AgZAhrYz+yPwYn+x5TczNnsbcwaErBXttfkASdbVHgEs8Dr9WEd01S+6ludjrMbmWTzS3sw8GYRrPIyfhH70oci1oR/roU46KPpuhwKEgV5m6NiBMNRYa84WXgAvM0KkVO+lskhl/4aW4a1x8K7HxsaeDXHdgksHGtr9vrdoQEFm1xp0A1WFigIVBbZSIDUI3lOHvR8Hk8McsyShOexJPhigw3CoWjvnAeaGMWK2+sGwHbZ541+9EEvCA6ZBq+GQdcZgbBlJUF5OB3aaIvXjOQwuI78wkvJVzfp1uDv4aUj1ow11gCJ0AZAwGs861B3uGUZpPkCG9mk79An4pIRqPj53NmYo4fakqzZWBZMf6NzOsWVuCQwLk3N+kr4x1hQEy8yoTE9zSVrbB2guw6Z5aQOtc14JPjLLov4AKW2ray9xSOXUaB3QTNuZQ0A9n+V+AwxENVhv9M756BMfAFIw6UwuZH/l+gMimQzL982Mzd7Xj/1mj+sDndEA3ewDY8Mr813wLBBTOx9t5dztCWMDqDIBVL5f9g4a+N44vQt+14LHhxQgVOdlRYGKAo9OCtT6IJSzDtajSDM57/ujJCkdo3eAE0gc9tTRVLSZUKi2vjokbvUUwEWdencZ5NW8ybS0iTlnCmzMCLN3yCfTUAdDBwbydr2s4/AuX7SVdfJzTNq4SH218zFWBz9mAlQMNTlSmR7U7cBLJsnDxHxWDyxlboD07C9rZ3KdjZ+vV6Ox1dI654N+wB0mXM6hkPc/9LcHMhlQjplJOcFos29hbT95j0a9+kBEOamgZ9Atndy3B7DV1gUY7LVGeSWanV/tc00BBIS0cet57z+YYY5tLW3R29cbfZu33ARZWyaOnhCrNqwunqkt7a3t0dWzxcTRXxkzoj3WbBz4uYHaqb6vKPBIpMBBsw6IjtaOWLH+3pg6LqJ3c19cOX9xbOze9rKlwc5tw4ZN0drasrXaxgk7x/B7bi+kQpo+aXmFIZJsMBFmQxpC9l3SHybTSB3dzFioxfk+MRcwFTAdksqoZ4VAspeXi/NO6luAQGifQu3tAK694AqT4A8FxFB7Y2au7iUVUksrzKKkM0zxC1/4QmGDN3dMFGgxZ8xSHfZ29MgxOX/VMU528He84x1FeChTJ0ZpPn5jXumBjhliRqRQIGF7i/S7fK8wV22zizPB8OkoF3N/3eteV1xzzcziDgWAinrb/I0bbYAXknE6nteOr0xrtOWfAiRZF6aZpHXWY07BINGPxoCZyt7hb0LLTEJGCzyMdkDOAVopOSiMg0+KOkwneR0yu789RzuQl6Lpx/PmSYJnKhcSaY/qJ1Nrs/fzExAmaV1piBIIAnboKAxVeC0TuzFhxgAr2irM5oAlcwAthvcj5yMUk28K87e2jX8gkD2UPTAgQKBuoRrzEiMwope9NwcLEDx/9OOeFFde+sdYt27tgGPefcpugfFfPv+KmDFh51i6dll093bH8GHDo6evpwidbPsr8z9mr6Ni/pI7YtGqxUW7LcNboqe3J9pb2uLAWQfE5XdcEa3DW4v6tWX4MLc3RDxmjxlx8a13hf9bpNrs7S1uhfR1b9/meOGxB8Z3L7qmuEvCnRICN33e1jI8unp6o611i4eyiM7Wli2JLvo2by6eqUpFgYc7BbwzhZf6sOHFUDd7x4rf9UF5s/Pp6uqO9va2rY/TIGy++7Z41ateVRyC3pNyHgSqZAyBk1Vmct0egODABjqondl8zRGTwEwwAswYOMliTAACCROTd26xCfu/7MTlecyKDwL1MJ8q56M4e3PKi54wHwc5pvT2t7+98E1g+5VHny8VJpFpp42JduF973vfVgk76/CBcjkQ4IJJcKA0H8yHxqMcuWX8X/rSl5pdoobPoRWpnVMduzqnNwCg3h0WGgF8MDzqcU51ngVy0AV4ACpoQtDSc/WKeklrvwEDIAugwJPQOi/G4mQnfwB/FpoYvhqcOM09Uzt7xvpj9pnHAENFd21ae8wWw+aQ+W//9m9Fzgb8juZHX9ZQP7RDkm5hyum3AIBYE3PXv7EAMplLQX1Or3wNrLf9BrDySeGMaw3TT4IjpP2nrUxeRJtk3DkfoAn4eOtb31qYQuyVoea56G+D9AsQTNBAM5lFDrp8w+NgAULxQo0YWTDf9eu3qO4aFSDgTU9+QwyP4XHOdb+NMSM64+oF18QBs/aPzX2bY8LoCXHXioXR3dMdty65LfaeNieWrFkaNA1tLa1xwt6Pi0tvvyw6OzpjVPuoAjBs6tkU1y28vnguy+P2mR2zJo2Lsy6+Nl554uHxuXMuidc+6ahYtmZdnHf97fGUg+fE5fMXxQ13LYm3Pu2x8ZlzLo6R7W1x6sFz4vwbbo+T998zrllwT9x495LYZfK42HXyhLhr2aqYs/Pk2Gns6Lhr+epY39Udv7zy5uirgMJ2H1hVAzuOAt4RXsWbh28BzJv/qo3bEQBBHoS0eWKmfjAR50zef0BizzsHmg0rq0cdIEObafNO+zyJslFoWPodGYNzznN+6vlCeDYZvHEas5LPlv2kMBPzBiwwJgd8RnJlnVrVddbRrjoZQpjz0Rb6lcfWn/p7sDuISlv7pOGkQVldXm4v6ZZhlsaUAMF36dNhHo2cvY29th91rYW5mneaJ3IcqelO+mT4vHGXwyv9reT4/K29vGchw0yNQR8JYD1vv+gn92vuVQANIMpU1Hndd94JkWGS2st97hm0MR/rD/CJ+sg1FPHBkTLHVp5PXrhkLIr91Eza58Gue78AAbKRG6BcyvfFJ5EHe1lTR8eWzFADAYSdxk2N5x3xnBjZPjI+cfZ/x9zpe8VdyxfGQbMOjCsXXB0n7fP4QgX6479sSW9KS7B0zdJgTvDzxP2eEMvXrYwf/PlHcfAuB8a0cdMKcLB83fJYvm5FUWfGxLHxtEPmxNlX3xq3L1kZ//SEI+LM8y6L5zxm/7jwljtjp3GjY0NXTxyxx4z43z9cGW95yrHx0V9cEDMmjI3p4zvjijsWxzuecXx866KrY/GKtXHUXjNjUueouOHuJTG6vT322GlCnHvtvHj6YXvHH26cHzfefR8wGexiVc9XFNjRFOgcPymix2U3Dp0tGfgeiFJPg1AlSnogKFu18XCgAPNOvQu/BjO2vNgp62yPj8Jg+u3v2X4BAlUOm0o5GoDNhZoky1A0CLvvtW+h4rv91hujr46/QHnAmH7LsOFx7cLr46T9Toz1mzbE0rVL4/Yl8+OgXQ6M25fcHnOnzYmLb7skWlva4ug9jowLbr0oTph7fKE5OPeG8+LAmQcUdXr7+mLKmEnxlzuujLWb7tNeFCq0iWNjU09voRW48OY7Y/LYUTFuZEecf8P8eMweWxybfn/D/Dhxv93j7hWrY8nq9TF+1Ii47d7lBXjo7GiPS269K46du0thkrh+4ZIY0dYa08Z3xj2r1sati5dHz3aqaR+oRa/aqShQS4GOo8dH943rom9Fd8w4/MgYOWZctG4eGYuuuyRa2jtieGtbbFi1PNatXD4k4jUCCA4gttyXvvSlhRqXhMa0ILyMaVP4FZWsZ7bnLgZhgkwKbPTaY9OmMhZGTW2bdt+cHAGGREcqy1wG1Ps+r02URkASBkhyFfdeLw8CaVF6ZPH0+sVMqOz9z94uPFs7hLK8wCn70Sd1s/YzRJLEKGZdIXGijzNKrLyC2XiWTb6RGn8wC+kOC+OhwqeNoUXmg+DzcjF3ki/7OFX9WWedVajCzQsvYVLi08Gfgnml7IhZbqdMa3+zv/NjoNLn4Ji0zjronz4I+JW9Y43Tf4H6H02sNf4lZFLfTE/obR+gFz8LJgRF5EjmVCDFM9/oRz3SvN/mxSRgf9EeZDpjvg14pXW1Pp7Nmx45vvI1sL+Y0JgamA8yAWDepiiXAs2Cdo2N6SLnY89YD+Yxa69fvDjNJ94h/NuYsx9jFM0wmJTl/QIEahODpEXw4iK6ZCXl26iGAhAGszGrZysKVBTY8RQoA4Qd0Vs9gOAuBs6DDrJ0+so8CBiQw9GBnR7z2wMQOHw5GPP6aNKZzzAvjIAqt1wwa05kAALHRqpcjIqkmIAhnzc+TBGDwsgwhLe97W2FappToYLBOz/ZwdMpzdnJ+Yx9P3PCGB+mU+7Hc/IdGCs/CP04g/lknHbaaUU//jbWsn+EGHygq+xbMZS1tTbAiGRHYud552sXfWppof3MG4BJoq08CBi0ufFb4BvAByHDTOuNyWVNSQO2eWYJzNEaYopoUL4YiyMfuz+6CKMEJjBHtn3ABB/jgJhj0ycfBHUwa+2jnzof/vCHizVHPwzV+mDO2tKPepi6fjB+TovAhzwIzAVM8vw0+C4wO/AzwEP5iGDkmC5HVL99x7fCd5xmtfO1r32tAKL8HDh4mqs+AIGcD58K4MMYvT9nnHFGMS7ARVv2K6BkbvoBlvgp8H2od+lio33RECDYdIjgBTUoLxSkVWszqgDCUF65qk5FgYcXBR4KgMDEwImLXRYTc7iRUElwDlIHJ6Yoc5+DtFHWvYEoicFxInRgcizDwDEoBz/QgSHrp7Y4eHmvYwIObgxEHW3UFmclKdS5qR9MzSGPwWQhvZqDw51mhMSIyWAsGJT/M0FSuR+HPWbhLOZIh0lpQz+YkX4y+gOdsogUGIy02B8dARwFk8eA9GO8aFHrG0IqR2PSt7UVgcKfzd/q0LJYUwyuUVgexpo0AKIARjTAwO0LtM6cEMAAwZXULNzPnGlpMPX0PbCnUoqnSfJ5AitARR2fWxeaGKAP/WhfACJ1jUk/GDl60+IYG+1TOiBmSGfmTrCf7R3rjm7WS10CtzXMi6T0D3DxQcgwWhom/fnOHjW29JPIKwLMF10l9hNJIcOl8Sf4EUUCHOknwzrLe3Kgd6cuQPBCZUrhgS4mGixAGD68JWbN3iPWrF4Zy5cOfC+5CIaxI8bE/GV3xpxpe8ailffEmo1r6s7rlce/LH5x9a/i7pWL7vf9YbMPjcvn3/fyDESY6vuKAo8mCjxUACGlmUYOb7kG25tjXvsOUr+VzDvgszzAa9e7tk+Hs0O2XiZCbWCKySyBgezHb+dk9pNOiXnYp4OjseQ9BukIRzAjFWsPQ0wBLecDUKTTXjqpqePZrJNOd+nU53llMDHz6uQdDH73VzfphvFiVsnI9ZnrXDufeu9arZNl2uTRplYrMpg8GY2c+ZL25bEYA5qn82yumTbsg3p1audSHluz+7i/+dS2MZj51KNz+b6J2u/rAgTIDeJp5qbFwQKEYgBUVseeGJddeH6/PghFTO0T/iW6e7viwlsviZP3OzG+9PuvFs6I+0yfG1fceVURxfDCo54XZ57/ldh9yuy/RjFwUmyNx+9zQnz30u8H4HDZ/D9HT093PGb3I+LTv/38lhDJvxYRCc84bG786aY747TjD4nr77o3xneOjD/eeEdw5j5hn92K8MUzz/1zjO5oixP23S1uXrQ0nnvk/vGtC6+Ok/bbPb543p+LcMaqVBR4JFLgoQIIJFMS0utf//oifM95Qron0ZOIxJgLeSOppof4UOhLNU/SZP8WXshG/pa3vKUwCaQkXm7X2SP2/13vetfWj/kQADR5zXB+4VnmCibZTP9rHvpxf4xC8k9pWkpduRSYIdjx5Qaggsdw0ICEZ2xU81Ti/qfFBUBI8ErOxzNCB0mdpGwgxBippLMOnwvnOdu2cbleGlOp9R/oj67oRiLnw0F4ZCqpV8p0E5pJVQ8koL0i9FJoXu18attiUmF2cWeBfUDbwHzC9s6skVdxZz0qfRoWUj8NC20AWpLC+TrQavieJuDpT396QSsABp34NPhfPgnqfdoA+w4gkYWQqcQ+kNdBGCsNgueZdfgyZEpj4IffAWneOKyp/VAeG3OB/r73ve9tHRvzjbUHRpgErKU66M1EY9zMO3kviXfBvmA2UK/Z+TTKRKovY6edSUfLVAwMmAdhoJdxKABh1OjOGDFy1IAahCljJsezD39mjGwbGZ897wuFBiGjGK5acE08Yd8TCnT3o79GMUjyInxRBINQxyfs+/hYt2ldnHXpD+KgXQ4onBU5J9Ik3HLPluQhh+2+c+y106T44WXXFzkQLpt3dzz5oL1i8phR8Ycb5hdhi4fOnh53r1wTZ110XQEQTtxvtxg3amRs6umOe1atK4DFC44+IM69bl4sWLZqIJJV31cUeNhR4KEACPIgYLoOalKhwzp9EKiQMVyHvIOTmnd71OXs/g50DCLVr1TSbOoASe0FTBaobK/2Pz8DB3LavrcKGCNHFgyIVG28inNRP+k0htnk/TAAD4Ynbl2/L3/5ywtpX24EdbRlbGzhnPnE5lMlkxzT4dB8JECSb4FUi2Exh/ghXZurOlTrHOswnbxDwtj4QzSbQClTCWPachoAQ40AQplumCvGpk5KxHkXQ+186r0Q6TeQ3v3mKq8Ec1HSWT3qd6r99Jlj/mCvB6Ywd3vJ/rHOwBMnRcmmJJ/i12BP5P0KNEt8TfgrYPJ+M4OhlfVhNsmLtDBoybwwcuvLZyIdQ82dn0G9scltoM8cG1rYDwAbcGG85mPdALJMKgXIeheYr+wRJgf8r9n5pOkCiPE3AGbvGHveecIMkvcZoe2DDhDkQDjysSfFvYvvipuvv6rfS4/kQThp3xOjvbUtzrnu3HjBkc8twhZXb1gdV955VfHddXffEHOn7VV8P7p9VJy03xPi19ecHc85/FkxZcyU+O6l34tDdjmoSLCkjBs1Lv548wWx4q9hjj6bMHpk7DxhTJHo6NDdpkdXT1+MG9VRJEu69La74pDZO8fyteuLUMjnHbl/dLS1FFEKwMMNC+VdGB633bM8Vm/Y9LA7+KsBVRRohgIPFUBwqKadGIOljnbQO+BJYA4uzl4OVQfzUAuJkrOag5laHhNl+ycpORTraScwdIDAGByiGAzJux5jJRWSvrSddufspzh3xo0r+tMPMGTOeY29eRpHmjAwd3QxVoyNPwbGA2ykeSPnQ+Ik0aqfdGMrx2CyjrnqI7MW6gfTb3QPQj0ak5Sp2UnLeY9Cozt0km4Yu77RCxNEF5oEDNyaludT26d5+8EstccWb860AzmvnI/vjcvz+syUwzQ2gBbtiQyEGCmggsnT6Bg/3w/SszrWx1iNzV6x1kBGzgfNMOjMimiP+jsTSWHgaG8PJ9NtZmzmbq3zYqm8NAlY1E46J5bfBfvD2DD5ZuZjDzXSIKCZd8BeotvYh34AACAASURBVJn51Kc+tXU5gMFhE/Y9fHPH8ruG9O4NRYMwpI4epErtrS1xykF7xU8uv/FB6rHqpqLAQ0+B1lkjondpV8xa1xMH/DUp0LyOzpi6flUslBl0O4YoP+HNPb33y6RY5UHYDqJWVQdFAUx3ewDmoDp7hD5M2wTclO/HqADCI3Qxq2FXFNgRFNi7ry+OmD4tWqeMlkM4rr7s+iHftprj2xgRV/b21QUIpDYSHh8EaXxJtSRhkhw7Na9v6nCCyPakWnb1MCkpJVFSkvhwMexswOL1y0V/r371q4vxZLpiNmpjq021TPXP34BEnNcg8zOgEckwQFK+fpgn5PMX9iZEURw8CVSMusOZ/1fa0tGjtvA3oAJ2VwM7Nk/4vJaeJMgLXiF5+s58a6+yHsq+4YNA/U2dTgonvZI2+RjUFqF3fCzM3Xz5bFCL037wP2DPR1s0Jx3XK2Va89hnXsrrq/lUlGmtvvW99NJLt0YX2Dui7vL2Q/SgNcAEmXVI5zQi2lQv77JAq3RkpfUwT1qBzEegH+uT2T1J/SIHsvifNiCvJ6ChUDfnKQLDOtvfNDlomVESmROClsWa0nDkbY32kh/aDWYkmhHaCz4WaGy/ZjQQDVWz5qOB9sKDbmLwMozuHFMQbcMAqZYHGnz1fUWBigIPPAVm7blnTB4zLIaNHBlXXHTNdgMEI2x0F4PwQHZaTNbB52Bj16VKdshjNA48KtXtAQjadFhjGkAJpuPwFXKH2X7xi1/chpAObszYuDgC+s02jeHwDSgXPhSc75gP+DSwC7/xjW8swISLiRRMx/0A5sPvQh4BZyC1eTpmSnLEzwEA8Xk9Z0gMLdXXbPGYBvMC9TAaff7zn986NACIg95AkWjN7CDzNm5OncwVmFK9y5q0lb4bAIp5oF/ZB4FtnrmGerzRmvLTSFp7LhNNcbTULlqnHwKmiVlyZsRk7SH7ilMf5svezhfCWvMnSD8OIEHoJHDAFCIUk58G3wT3MAAx9ou++QLQQugH82fHlzvD2ITK2hvWXv4GIIr/gOcBKP0oxknNn5dUAXTWTFvqAC/GwhygDhDgO3NOHwl1fGfPAX/6A2A4+zI1CJu1NoOJUOlv/R90gGAwReKN406KS/90br8+CM1s3OqZigIVBR5YCszY55DobNkUEzaujntWr4vdpoyP+UtXhZtOZQe9dcmqGDt7n9hl/Ma4+eYlMWHUsLj73tWxck3jy9caZVIkVTucHZwkTAd82oI5kGGapDaMKT34Bzvb1AaQ4jjX6QfTJNVTO0uWQ5KvLZgMu69D2+GNMWNa9Rz0OPCJhwdm9MO/gIToEFcwVf3wygdI/PY/bQDbNRu/cxEj1RfmIIa9tmA8tA8YAkaY1zCn1OpyoSwOd5cLPRCFU6Ribpwr9YPp0pjUXtksKoMEjHH6zi2HbPHWWR2RAgAAsFQvZFQ/pPekNWdFHvZJN0wdrTPKLrP70hAAJzQCIi1EIlgPWiB7yjrmOvicPwGtiM/QCfjCXEnuGD9wI2LAPlHXmPgxyOWA7pwEAYOyRglo0xbwBGwYm344mgKOmHuCC46GgAGNiDqAQxZzRT/MP29zzEuc7EN7Ux1j8r93I0NH+WM8UOUhAQiiGObse3Bc+ecLitsYq1JRoKLAw4cC0+ccEB3DNsb4TWtiZFtrrN3YHZtjc4wZ0RF3LF0VKzf1NDzYG82iuovh4bO+1Uh2PAVq71XY8T3umB4aAgQqtURd/XU9WCfFtvb2GDtuYuy9/6Fx0R/Ojr7e3h0zs6rVigIVBYZEgZ0m7VSo46OjLUZ1bI7167uLi5sa3bzXTCeNAAJJmXr8ZS97WeEP4DyhPiV1steSFHmgk+Spe4daSPh8ENifSaTyE+iTBEeFXM5AqA/SPJU66S99AYSloUFtSKRnaTtIqplHn3mCdsJdC40Kadf8hcQxcbDdkwppH6iUy7fmZhukT+MlOWbyIrSSKc98qO8V5g3PZBTGUOmW9fhUkGRrzR617aKF+xbMh5mFZobWgRSuoKlwQdoBfgSNcu2UaZ2ZE9EFTf0u01q71pd6PSNhSPm0MzQzTAyeV4/kTUvA9JChkTQ21t96MD/kfuMXwmzge+Yo7wTNQ5pFSOyeZX5g3qDlYC7jN0ObwYTEbJa3QWY/jdaC70GGMpbrmLO15bvBTEUDQ/PGFOHdQXP5IbRvffxGC7T2LJOM9yiTS5kD7ZX5oxftAx+R9PcpvwsNAQK1hwEgJKeMRmWwAGHYsOExdtz44ibH7q4qLHB7X9yqfkWBHUGBWfscGLOmdMRtty+J1r61sXr1xuKK9a6uTdHVfV+SsWb7buSDgBE4nBxqbKjU5vwDMDwHHwbucCasbM9dDFTyDl0Hp/6ozJ1t7Ni+K8fVmxPm6wKpzE/gMwycOpq6uFxIi1TLGEgme8IcHcT1nPiyrkOa6YTKPp3KqKAxO4d2XryUz6MHJsJWzpZuPhgRugj5Mx8XJGU2R2PCtIaaorrcL36AqTN7NApvzOfTB4HKHvj55Cc/Wawv5pd3MWD6mCemVK+UaQ1EYWTuYKDqZ65IWqvLJwATxQiFK6KHBEPMH+jDzMMswSwCuAGgH/rQhwp1P8aOz8lpwCyhTu43gNK4/dh/9g5wBgSqCzzqzzyYI/yNTn7znwEm7TXz9pl+0qHRWko3jbcaK2DCXMFsgdnzdcg6TEp8aKylBFof//jHC6BjH/jOc/7WhnrowAzGzMH8YUzeLSBW2Kj9oB7Aoa4+0dgzwFzZ1NEQIBiAzhAEgeWWhsKgi/IGGSxAaPZAqZ6rKFBR4KGhwEBpj4cyqt7prTFy5ujo+vOqEDO5Yfz0kCiJJOSgTcnPAeVQ5bXu0HOAkuT8Xz64BjMGh7GIAQc8TQR/B57kGB7GgonV8yvAPDBqdmpOdSRyNuHUEpTH4FnMjm8DJuaQdl7W3hJZrgOY5CVD+smkNaRCDCgjIsp1MDqSt2gHfenDemVin3IyqbyjYDC0qvds3mWhLxL1QAXw4ROBSdJgoC3Qh0Gyu8tiCaDRkDS6zZHkn7QGmPSLpjQsmBZaJ7gARGh1SO8YOeaXmQYBPettL9FAyZJoHJh32u7tAeOkaaA5z/0GxGC66mZ+BbTIezswVXsIiM3bKoE9e5gGx7P6ILkDNPZcf462NFvWNFNvZx3rbe8ZP98E2RnRD5ARyaLYD7RO+gegPMNfBQDFy2mZMmcDMAMQWSfj47Ngf9MooE2Zv/frg2DSeQuVDWxQXtiyV+xQAEJqEVYN8epYBJk9edeYv/S+i1AG2rQPxfdtkydE99ItqVGVUbvPivXzFjwUQ6n6rCgwKApMnDE7xoxqifaulTGspOiTEWHT5r5YcM/KQbXXt1dHjJ4zJjb8amlE3xaAUOVBGBQJq4crCmylAKZPcN/RuR36BQhQ39XXXhcxcnw84++eFddee03cfMN1MbxrzVbnwqEAhImTp8bcfQ+Ki/7wmwGXfO60ObF07dJYsW5lHD/3uLhz2Z1FFsRDZx8S517/uzh89qExqXNinHv9+XHgrP1jYvH377aioFFTZ0fnzH1i5a2XRfuYyTFy8sxYftPFMWHOUdHS1hFLr/1djN/ryNi4bEFsXH53TDno5Fhyxdkxfs5RMby1LZZec15MmHtMbO7tihU3XxKT9n1sdK9dGeuXLYhJez+2+L63a8PWeYw74sDo27gpupatiF1e86K492fnxvqb74jRc2YXKtrua2/Zav8acPLVAxUFHiIKDJNtb/iw4j2S0TT6Nsfwlpbo6do0oIq53pBb9+6MsXtPiI2/XVYAhHVjdor1864tpDue7u985zuLcDj9kaTT3kuyI+WQoLYntptqOyU59mlSE4lONAGve6FttYXdnQo2/Qio7Gk3yqGE6hR3xrzudYXHe0qX6prb5z73uaLZVGv73K19zAdy6Of1xbQOhC/mAbZyEjBzQW2Rlhlt0CMz96X0y8Rw5plnFlVIl+zVbNKDub2v0XZzVTAhUXvGV5tuulyPxC+MUx4EoYWkWeOhKaLaL9MgU1HX9lumNdrRMJk7ez9VfJnW6rLR00zkxUp5qZZoBPSxp/gL0EoI/aRZ8B2NDLOQ9tUh/OblRZnrwLjtS+3oh1+FZ5ifmCHKt3vaqzQt+dt66gejrV3THFtqDPSvXWPxnf3pf9qI7Mfn9pU9R9thXvaTd6dRyWczosNvdEpBP9dGv9orR5b0CxBs4F+Of27cNWynCIeEsrk3Oq/6ZnRe+b/Fv4MFCG1t7TFrt71iytTpccmf7gvJaTS5Jx9wcty8+NbihsaXPPYf41sXfTdWb1wdj9v7uPj9jX+M5x7xrPjJFT+PkW0jYpdJu8Ruk3eNn1+9JRZZmbj3sbHmrhtizMx9YtOKRTH1sKfE8hv/FN1rVkRvz8aYvP/jo71zYvHsvVeeE50z9o57L/9FzD71NXH3BWfFqJ12i+jri/Fzjow7zv5itI4eH91rlsWsE18afT2boqV9VNxxzn0x1Du/+Jmx7Jw/xabFS2LWq/4+FnzprNjtra+MO/776zH2wL1j1aVXFwtbGxr0EPGBqtuKAnUpMGz48OJSNVFGDhhmAZ/19nQPiWLD5o6KMXPGxcZzlhVAef24adF1x43FwUmV65BiQqDSzTwI7MeSFDlA2f6357ImMegOWoc51bC/2fGpfL2PGY6Yk9MnUGHunOoUjAm4ePe7370NDbTlkGbCSB8E/2PYedmTc5JNmBOhzx3SVNdAD7W38QEZwufYtF3GJI6/tlDRU7e76Infgecd9OzHwIt7DxTjdo8Dplm+TXFIi0djO3t2kVgKUEgbd6O28pppDJk6+6Mf/WjBeJzJtTRotKZlWmPm1h+QAzyozpPWxgBAMAGw6VOzM9FQ13Mu5RxpT6kD3PBX8L/xoB27PJMApk4gRj/1jBONqd2d1UIy80ZOIINZA8jLfAQSFlH3c9CUAMr4fcdfoLym/CCo9q2tsTFruBfCmKyZPSHPhjpMRNqgxc8rqdVhWuGsCqAwqVh3wEvxN/rz4cl+gBXmHsDNPIBxIMBeBH48b48Aa0w+6JelIUDwxbLpx8aFE58aLz50fJw6tzN6+iLmr+iKd529KCb/+OXRuuquIQGEcRMmxd4HHBoX/u4+Rt5osz3rsGdEd093/Orac2K3ybPjyN2PiO/9+Ydx4j4nxB9u+lM8+YAnxk+v+HmMah8Zx815bMycOCPO/P2WmNOtAOHOa2PMrvvHiIkzoq+nOzYuXRCbVt1TSP6dM+ZG2+gJsf6e22Pj8oUxeqfdo7dnU8w8/kWx/KYLY8OSOwttg8Pyzt9+OaYe8uRYe/ctMXaX/WLd4lujd9OGWLfolq3DH73P7tG5z55xzw/PiZmveG4sPuuXMf35T421N9wWfV3d0XrrXcWhWO9ymKG+vFW9igIPNAXG7D47Rk6bGju1jY/1i+fHsNaR0Tll51iz4OoYNWpEzJu3eEukQ5OlnomBDwLHMNIZ6YXzFObInophc94igTqM+QFsjw8Chk1a50OlLwexfvLSJBqFWuc7fgWYB/stRzV+AQ5gdt3a4vD1HOlOHXZsZxAHMEVfmIZDGbPSL0c8WgOHN9sv23Fe1QxA1DopagdNOJo5/GkQSJSkVJoOwKMcZcC/g635gSgYKWbi3AJeaAUaRbVglhiN9cRU+WyYGyZUpgGnu0ZRDJ5PWuvbs+qiPeCB1kCRIreCz5nEM1cBFbyxpg8CxorZY7zOX3MBAu0ptAYcgT++HNaDtsn/gIixWJ8cDyCCOfM90DeNRF77bM/Q2KCBvast/XhXjMWaejZzXmDU9rd+ABRgOZ0h7VXAjB8LjYq62lAnc0LYS9pLjY52/Vib7Mc7xteFX4ex2fvmk06/6AbIAV/WjK/CgABBDuZfr5oZqw5+abzxsZNiwcrueMlhE2Lp+p546fcWxsSzT4/2RVcMGiBkx6NGj4n169YMuHfHjhgTLS2tsXL9yth5/M6x9K+3NU7E1Ls2RFdvV3F5EzUoc8TBuxwU37r4O1vbbekYHX3dG2N4+4gYPrw1hneMjJ71q2Nzb3chyZCK2jonRF9PV/RuXBcdE6bHhqV3xq4nvyruueynsXHFougYN7X4vnvdymgfNyU293RHz4Y1BeAANPq67zPSdkybEr1r10fP2nXRMnpktIweFd3LVkbbhLHRu35jTJ84qThEIN2qVBR4OFKgbURrjJrQEd0be2PEmLbYtHbLu9LR2V78Xrt0Q/R0DS48ufJBeDiudDWmHUWB2ptAm+mHsyzw2kxqbIDngTAdGRdQ1SirZUMNAqQ1es8j4+K9Xhcn7Dk2uns3x+I1PbG+uy/uXUyD8LIY1r3FXgONPRzKrIkzY0P3xgJEbG/B/GkUqlJR4NFGgRGd7QVAWL9yU7S0DY+2jpbopT4cFgVY6Fo/+DDHRgAhvcPdSU/icp4wN5AOqd1J/Q5OzliN7NXNrA9Jj/RFQ0F1SwLNnPUk4rxvodyWz4H59NznpE1yrJcHgSTHjyBzF5iPwz4lO5Kk9qivtUMjQsplYqDiNTb2dXcQSOFLWpYJsLYw++Y1w2m7pj3g3V+uQxNBAqbCH6rmpdw3iZjUSRIl1TbSTJBeaTfktJCqmPRL42H+ChoIlcwohkZOdmVa648qXrgeqTcjBsp5IkjutADMAdbM3vEszQ1tRvp2oBmtTd6VIDpPdIC9pQ565a2NGKc58/AntfPB0I+1I3HTagACtF32FHOVdtGb1G4NmHgU+0Y79kjua2OjWcjIBfPUNhOGvUnjwrSSmpJm9vkD/cyAmRQ37XJsrD3wH2Jz24ii7+EbV8XYiz8drSu2xK8OFiAgfueYcUWCpHVNaBAe6AlX7VUUqCjQPwUAhI1ru2KnvcZHX8/mWL9qU7SNaIlN67qjp4vqcljx92BKI4CAEQj3o75nh8UwHdoYiwPS4Zs567cnhSz1MBUrFTzpi0lA+xLJ8DWodQgEUtjcy3kQMDc239p7GzxDBYzZpQ8CfwIMwiVHWfSjrtwP1MjGgImlOYVPBKAAFGESYthrzR5i5DE8zIjqHdPEGPNyq3IdqvDMkTCYtar3rNTIznpqbsyvXlho1kvpGUBAR3kQktmiATMLEMG23ij5VZnW9gd/C3Z3zBIzTlrrE60IqeYLLHmGzR4wAZIAAgCR/R9zLt/FAHCRxDF/4AIt+Zi4zIsfA2Bg7AAl279+fI6xs9UDFNT5eV+IZ+0H48j7FfA847DfrGemn/YZoMVREm21ZWzvf//7C3Doe+aq/hxCt3ddB6o/IEAYqIHBAoT29o7C/+DOebfEyhXbL+kPNL7q+4oCFQUGRwEAQWrl3q6++xgUR8UsmzdHb/cWH59mSz2AEIvmFQ56maXOIe2wJlE7ODEGB6ULafyfB3uzfeZzDmhe3iQ+B72DmlZCPz7jkPae97znfhfcSJRE40AadvBzmuTgWO/eBs9ieHlTnwgCkmzeEgmU6OcDH/hAcbcEoILRmBNfBOPQD4aFIdTzH0jHQ5JzMhyMCjMUaVFbhx9Ef3kYmqWjft/whjcU9BHBwfmRFqCRD4JbHknKQBl7thsmSd4YIBqcccYZBQ0wbBJ6vcLEnbQGtvTL7k7LwlETrTN6ABARhUKLw77OHwF9+EmkT4e9BJT5ngYCo+dcyteAdsEdCxIxscOjpz2JfurwC2CbBw71A9wAQcZCkwA0WUMRLPxA+Kt4vpyRUFv2EE2PfuxrYwN0ODYCqiIk0IPWAIgAQPLCsmbX6oF+7kEHCDyGJ0yaGgccelScf/aPhxQy9UAToWqvokBFgR1LgcoHYcfSt2q9osCOoMCDDhCgUWqWo49/YlxywbnVXQw7YlWrNisKPMwoMBBAqKfmL0+B5Lc9tlgx9KRZGk8qapIi73SSIzV9vTsT1KHaThWv8D5SrXscagvpj2TPhqzQKJBM86Y/5gNSpBv+8tpkJgImANoFEiPJk5ROa0ESdSuhA1quBiYMoWskc4UEro4fkjDHNhoEY81+SNz8J9jEnbskbc7RmX1vMFuE5G8+vPytRaYMrteGKAPStKuu0ZdviUJilipYSB4a+LyRf0QtrYUl5nxoWTLfQ/ZPEyWaoJkiq2a99eZ3Z72zZDpk/5sPkxBaMwHZOzQjtArMAP2V8tgyBHSgcfY3n9p3odn5NOqT3wSNR3nu+eyDDhBEJIyfODk2bdoQa1ffF04xEMGq7ysKVBTY8RSgWm3Z3FJEBQ0bEbF65cCRRs2MqhFASEaQueCpVYXysd9SC7v3gPMW5lROI9xMn7UAQ4Ifam2/MWf2b85vfBPSmSzroMMrX/nKIkQt8yCwixvLJz7xiW26p5LmG4B5550O/Cb0keACg3vhC19YAIZM9JMhcfwwOMmpw37N1wIjAhAwIk6Lxoi5A0kYF5MIWnF0FEpJRc1kAQRRiVOv83VgYuCfABhR+bPB10sVPRA9rZO5c7IcKA9Cmjo4avKOV4ePibEBXRxCgbScT72+y7RGAzb9nA+mVV4va4RRW1f0A5bsFz4IgAga2FPAVKbsZgaxNujqWXvBGgFsGK59Yk+irfBDJi6gxP/68zyAw/zFxJC5BpgfgE9gQq4DYZy1Y7N+zCM5Nj431kR+AiYH5jB1MszSvrB+xmYN/G0P2SdAKZDVzHzy/UmfDnvcnO2JjKrj38LMkfd5POgAYaCNWH1fUaCiwN8eBRr5IHAeywxvGAiGTdp28GViI3ZezHCoGoSUnh3u2mE750/Avkvix4DqMU1Mio0fIzCWTFyTEnFZ0mT/drA6rEmULmvCVEjQCo918wJ8MFBMzEHtQKYtcOhnzD4mgeGw2WOsbNmYCBCRoW3s8Bnz7pBnd9cHpzoSoTwLNAmiDlIyrJWQm91l+sGcMXs+Ffpmf290aZNn0QGTw0zZ2/l8GAeQBCBYUwyLtqRe4ZAIeKE1QFKeDyaMjumTwoFSHxgd3wB0w5hFBwAAaIwWnEHNgYMl8JJRMWhtPUjm+jE24AJAwITNxzj9z0Ruj9o72jNPzBSIsO7Wy/++52fSzNjsf/3QjABz9qP5AH9oDHjqG2A0Nv3nJV1+NzMfvhR5aZc5lNcOcAQ8+EecfvrphZPkQ6ZBaHZTbn35WlqjpW1E9GxcO9iqW5+fOnV83Hvv/XPHTx7fG0tXtsSY0X2xZt1fM0UOuZeqYkWBigKNKDCQiaGiXEWBHUkB4GyoTq47clwPp7bzhsoyEO9Xg5C3l0E3jVIDDzaKwUVNBxzymAJlXXfVZQPSR5KilhGjY/2986OlfWRs7u2JYS1tMWHuUbHi5ouL5EZZxo/vjD6JXNauj3HjRsfatRuip6cvTjjhoPjd766MkSM7or29NVatWhdtbZtjz1ndccO89njhKWvj27/ulFW2KhUFKgrsAAo0Agi8yEl6pDR2bdIqiZgUTWon/QljI/UMZOvtb9ikUBEGJDHx6CREUq2cBlT81Pi1hXaD1MtjXqFBIKWXsxVmHSplbWbYnpA7UlpGEZAoSbHU2nIdiFrg+0CycwiTIoXRkbhJthhavZsTSb40FQ5zdWgIaB7yfobM8ug7Y+Iz0Chb4WCWmYaEdoJWxBitkUgDqXtrC3W+eQkTpfEg4aqjaAcNSMvWu9FV1GVa2weZhZHqH23LtNYu2tIG0Q6lX4a9w+Rgf1kLJgh3GqAJfw/FZzQZ2tePSBp7EF/L+xCo4jO/gn74gpgPevjc86JWaDu0Yy18b1890jPm9gsQEM+LSt3jpShf4pCbYrAAYXTn2NjvoMNjeEtrXFxc1tQ/Vx610+4xauqusfK2v8SkfY+LkVN2jbt+9/WYcvCTYsmVZ2+jWXjOc46P2bN3KsBAR0d7nHrqY+I97/l6vP3tz48Pfehb8YpXnBK33bYoLrvsxpg5ZXUsXtoaK9cMj1OPWx9X39Iedy1uHcw7Uz1bUaCiQJMUaAQQqFMdpBgilS0mSZ2OeWCUVLhUzdTVmOFQC0aBufJpSGmSzR6D4jhW63jogGeL1vdHPvKRolt2X+rY2pwJmA2mz07O/pz3LmA4mSMfE2FaEJPPIZOPgPOVg6K5YkzOV34PciVQ46c/Q3nO/BqYStBDHep6ZgzABHj59Kc/vfVxjNozVNLbW6SqJoGjI0bsb46LeRlVuf3Mg/Af//EfBahzH0F+Zu7WgBMnM0WjbIBlWgNS9gVgoF9mg6S1foFHgAmf8jl7ut/6BgwzXTfwRJVezoPABKBtJgR1mKCYh/h0uBMESNA2EwRg4W/ACLDVjr7QF8C19nIa8BXwvzlT2T+Sy4AAAZHZBmkT8t70cvzrYAGCFMucFEeN6ow75t0U3d1d/dJPauOxu+xfAARllye8NOb97JNbbl28atuc6Pvuu2vsvfesAt0uXLgkTj75sDjjjP+LN7/5ufHRj54Vp5xyRAEQNmzYFJ1tC2PRkvsAwjW3tMeCCiA8kvdyNfaHMQUa+SBgPJgxycthy37sYOY1DijwNpfFD2OtvVCp2elizhzMMCTaABKezzBnf2O69W5OfPOb31wAFJEHgIHxsFPXMkVtYSpsxOZAIvW/PAh5SyTPflJxMkeSMB8H8yTdkkp5+IvPF8ngzPVsbcF45EsQS68OQMGJjVaBlqI8tny2WTo1es783v72txeMmO2f3RuIkVDIxULp0Jb1zYOaGn0xUkmH3DeALuq8/vWvL3wR+rtpkvYjaf3Wt761SLYkCoPGAtBDa2NRMGEXQmH2+qQNAgzsHQyekItetB+YduZBoJlSjJHvASBirfXrM2Ow7wAPmiTaJ/2IIAEy7RkOhfI0JEDghMmPQFvA1L/9279tL/kf0vr9AgRoi3oqVVScOaiIyhd1DBYg2GyzZu9RmALuukM2xv41CFMOPjnaOyfF4kt/UqR6nbjv8cV1zC5Q6tmwOtYsuH4rAWfMmBTTprnroCt2221adHS0xWWX3RSnnPKYZp8ATQAAIABJREFUuOCC64rL6ZYsWRldXT2xds3q2GNWT9wwry3+4dS18a1fVSaGh3QnVp3/TVOg8kH4m17eR9XkgBBAo79Qz78VgtQFCOw00BI0CwlCpzxjecFC8WW70WABwsOJcFMn9sa9y1tiXGdfrFpbOSk+nNamGsvfFgUGAgjpGd9o1kP1wM/2qH6p8AsB5f/frCjMjIpftISzLqXRcv/qkORJqwrNBqmzXpphz1JVp/qaVoJ9OqMjqKaZU/geUJXTlDBtUE/zvjc2WgpStvPVGOv1QxPhPKapoJEgtNHoUn9TfWd/zm7P0piwxW9vISHrRyZKa1G+B6G2bSYAPgLPf/7zi/mkDwdfCVoTkRDSNfucCaReqaU17QWtAPMGbUCZ1uqjKS1Af1oQ9KJRyHsk0M6aZO6KZmhUrx97Sp4K/ZfnY0+kT4i+jJ8Wq5nS7HyaMbsZn30rbJLWJvc185k9asy5r5nFBrzNkSmBmoVqhq2LGkz6x3q3TO1IgKDvjtEdBT1bo7WpW66aIX71TEWBigIPLgUaAQTOag5/DAFzZQvGYBykVPpS+gr3ourP62mHMnLM16Erfl67AIIDG7MFEDDYcuHkxweBf0H6IGBu1Ma1SXao+KnQqaXzLgapiTHpzKGgPaCB4yFVuN9AETBA6OLDwNQAMGDABLNaZ0gHvYRMwh45WjqjaXOF/eW1xJksCDPGENGzUTrjwdCRz4AxkZr7y4NgjLTMnPP4G5gPlb/19TdzEfNEXtncKMyxTGt0ourXBrBDek9amwPa0nYLNUyfAGstkRFgA2j5zprjKfYZYID2vufEyBFfCCGfDkmKMHbrb23sD78Bi+wHQwUsmB74LkiXrK75oREHV+GrcmbgkfY0ExDApI4fdSStQluAiumodj7oQ4Of/XgX+EnYz+ZjL2nXXDI1s/+NX/9MWXJ0MM0YG5qYl/2DhvYosGpf+475JNODG0tdDQLnHS+j+Es5piV8aFQGCxDa2ttj1uw9o7NzXFx75SUN83nrjypn+bpb480vWB0/+sOJ/aLWwWz26tmKAhUFHlwK1AMIwxbfXth5HU4kGYc/Z7uU6hyMHBXZvNnl2XaHWtjqMW/tOLP8pkFwuDssU8rN9jE6iWyAF4CAZMWuTIqud5sj5u/AxWgc5uzSxu/QVdisSWwkbwe2Q5hHPH8pPhgOfP5eAImDXr/1ohgwZwwRACDIoZvDH6jAPPggpE8Ahpfaj6HSTT30wrDRiV8E5ge8NMqDwBnTHNjuzUcd2hKfATj8QawpptYot0VqLNCaZoQjpjZIt9YNrQmuimgJCagAJXQTOYKeedEXQZffAWCFp3R3dxeaJIw0E1BxlrQngBhr6Vn7EJjQv30IHOjH2MwLQ+dz8LGPfazQiACZxghQAG808cClvjKE0Nr5AQiMxX5Kx8l0Js35AJ32gDbVMR97xToAKMbIlyMBLgAFSBuzPl3oZX95HtCQ1AlgMH508t7Zo94B48ibP/nlZKkLEBCEKiZfptrEIOXNNliAoK5Qx0OPPC4uv/j3/e5bBIyWm2PPmd2xdNWxFUDYnre8qltR4CGkwEAmhodwaFXXFQUGRQHaDyYgDo1/66UuQIA+sjRCifn9UABCxwgxsZtj08aNAwKEFzz5ivjyTztjxtQjKoDwt74bq/n9zVJgIIAwkM2VibORvboZogmlpGqnHSUtUcGSYplNSeXC2mqLOiTLzLhHUiO113NOY4Pmx5D2fs9R31L9KzQQVOVugjQG0qY66VlPeiQVk3xpbhv1k+p2ZzR1Oim1Xh3nsth8mop64enN0Kz8DPs1aZTUT/rMedVrh2RubCRWQiYzSBbrTMKnnZEtsCytltuqpXXOx70UbOhlWqsnvXT59sR642Ka8JMaIBJ0Zktslh6N+mEiYnIoh5TS6DCNKDQOtD2idRoVGgA+Hg9mQQMaltyjtAvlNNYPSarlufseFDffcPWANzkWKphhN8e+s7tj8YpKg/Bgbpyqr4oCDyQFGgEE6lOqXI5nDnjMmO2cKhRjw8AxQMlqhhrmaB4YqfA4eQIcxPwQMK90Fqx3FwNVrwM0/QiYWzG/2ouCmA4we8yz7INgzP/+7/9ekNHfbM3CHl1i9L73va9Q1QuFZApwSGOe1OZUvvX60Y7cA8y/GCtwwYRRr07m2KdOz+RN27OeQgmZRzL1cT0Hymw/72KgXldHjgnrDGwJa/3sZz9b2PkBrUY5Gsq0pr639pgVkJf+A+U8EdpnegDQAElry3yRYIy5g82eKSbzOXAc1I89xvyBVr7jXEm1L48EYAJE2JdpQtA/8EeFT3WvT2CI/wewyXxgbT33tre9rSALrQP1P3AFLEprbF8rxg5w2R9MKOhTr+jTHNGReYopyTtiLwMn/CuMlSkOyDQfzpxJA/8r6fDreW0mAE6/lbK57SEBCM1uVABhwdLb4sj9umL9pqMrDUKzhKueqyjwMKNAozwILpnBPDmKlfMgkLwABTZflxo56Nj3h1JI22eccUYhOWIANAjaZn9mR3bAkmbLBWMQr4/ps6Fj2HwQOH7VAgSHPh8HjNvhjOm96U1vKjQCmV9BFBgpnD8XBmA82vMMTYYx+TFWDL1eP8bE0YyPg0Pec8beqA7mVy/T4WBpqH03KbKrS/zE7s55tJwPp9wmzYWxYYDGKQ8CAIgu8gK84x3vKNaUtNwIvJDIkwYc5yQhwrhFaXCCRGsRIQra0wBJrkTTZE1Jwi6JAt7Y2fNSK74gcvoAUNaULR/YwtSN0X7DUDFs/dF20BpwLrSG+uGPoS5AYI9Yy8yDYH0wXD4P2pY3wbqZC+2F+eqLL4F5AVD2IdrwRdCuOgozPzBhvdEekEFbwEp/QI0xa4vJgw8LXw3Pm7PvjBcNypEs1kV/5qk/l02Zo/VUp7y/HxYAof2gMdF11f1vjYOGhrUO2/LydPc1vBp0sBu+er6iQEWBB5cCA5kYHtzRVL1VFBg6BYAMzPyhzIMA4G6PRq3Z2T/oAAEanTh5amFeWL50yz3ao186I9Z9deH9xkwtSN2WqpFmJ7U9z03Y68hYccsl2zTROqJzuy6LGmg8La1tMXO/w2LFwvmxZtm9ccQzT4trz/tJTN5lz9i0dnXcM+/GbZronDg11i7v/w7ygfqsvq8o8GBSYCCA4GbD/mK6My/+UMdMjZthXQQOUqPwRFIX6Y6pobaQzHyXUi7J02f1Lv3hM1AOw6QKpgLOZ0msTBvMKKmCNyZaEx7qVMLqOBeNjfpbv+pQ+ZJePUP6o0InKZtPeWxoRI1tzPrFyKjZ/SbVOk9pamhs0CCjQtjHSfr1aJA0wZDUMYbM3NhoLXjse45USgWfKuykgfmQpn3eyD8Crc2HGj9LmW6ZUjm/Qx9apmYKjU29uaILk0+5/D/27gPOrqu6F/9SGfXee5dtyQVXUUOAmIB5AZJQEkpIaCGhGT8SijHggAnvnzxqeDEkkBAeD0NCICQ8YhIbgnHFvbexJVm2JKv3MtKM3v97xJIPl3tn7mhGI2l09uczn5m59+y29j57/VbdaIZnmQ8p3lqRztFfG/Xq1I6hPDa0buZujM7mU/sudGc+9ehDw4DH1s7ds30OEIYNGxGz5i6MUaPHxF233xgd7e29BhDGnntatEyaENvvuC8OdByIUacsjC033RHjn3tebL/z/mgZNyb2bdoaHfvbY/ic6TF47OjYct1tMXLEiOLlWbl2U0w569fjiZ9+MyadcX6hGtr04I0x63m/F7vWPhJDN9xbENKh0ki9dtoLXhYDBg6MJ+6/I7atWx1n/8Zr44Gf/nssfub5cf81/x6T5i6KrU8+EdvWr4lTn/8bsWvLphg9aVqsuueWOPOCV8WK226IZ/7OW+N7/+NPYu6Zz4gRY8fHwzf+KOad9azYsmZVHDjQEee89LVx3Tcuj4GDBsW0xafFXf/xnYgDHcVmbeT008yLUz1TUeBIUaARQOCsRiXKdovBYn7AArs12zw1MdUxtWxPJCZMi0oXI8yc+5zG2HP9rgdO2HkdvsagUDl7v2rvSMi7F9KcgKFcdNFFxRkhRbCC4fGBEIZ4ySWXFGpp0WLG43nqas/IC2F8wAUzS9Zhbk3wIKYfA8GoUx2N8VAZs52jH9U1O7+xUntzysRgnXMYgj6o/hXMzuedmXCMl9c+ht1VHoS0x3/84x8vfBYkEBI6qH3zufzyywvbv7GWk/KU917Oh4lEPgW5E9DN/Q7mgUkyOyjob87oJ6QPUACkOEfKNeByKPkC7B8/TEL6t9cwa2p2PgHMNdaB74mx2TNpw/e5OyWYooAbKvpMl43GAJ120oGSM6kQU2aQ8tiYCdTnbJljMxb+DUJ+vQv2mzq0FEwMABWgyDzlXbBX9WONrUez88mQUvsGH0M3e0+/9qrvzQtdEiz0OUAYPLgl5i86JSZMnho3X/fj6OjoPYAw+qylMXTqxNizcnUcaO+IiS98VuzfvqP4+0Db/mjbsCl2r1wdA4e0xOSXPj/at+2M03ZEtGzfVbxIXsD5F7wzll/5v2Lei98eG+66qtiAbpHcuvyO4m8bV65xm7W2DGoZEnPPWBbjps+JjY89Emsevide9WdfjKHDR8ajt/40tqx9Ijyz5qG7CoCw7LffGDNPOTPWtt4b13ztc3HOy18ft3z3a/Gs1/xR/NfffzpOff5LY8/2rbFv7+6YOHthLHnui+OKi98UT3vxq+KOH3wrJs1ZGOe87PUFgHj0lsZZxI7UoV+1W1GgWQrUAwgDn1xRHNSYpAOq1geBHZiUzJaLiTWTNa7ReMTfs8dyDsSUSNqYpEPWgVmbY4HDFqcxUj5m76B2kKpT74Y+TooYlrGaB1s9QSKZsIOYgx4QweGPAx+NAQDikCfx81vgn5C3DmKu6hg3yRUDog3IJD4YIiasiJl34GNotATmZ160CRzR9KM+BkoLggbi9xVjy0RC9einXbkbgAiJfwCEztTr+jIf4C9zAZgTidt8MHt0AlQaaS1yPvwJOPhxxEQ3Ywas1MX4FTknAC8SvvWimbAG6GDfoJ1slQQo64rZWx/Mm6Mepux54I9GBviw7zgpuhgr58O5FKDgKMk3xRxpFvTDmVVb6Iqp4hPyZzQzNmPkcGqPAoWAnvkApPan8Ruj/YRu1tB+BG75sTQ7n8yArD0A1Loq1t6+5igLjAGDWfocIAwfMTIWnXxajBozLn527dXR3r6/1zQIU1/14hg6dVKs//6PY+x5Z8Toc06Ntd/4txgweHDs27o9Ri1ZGNHRETvua41pv/OS2PDDa2NP68oYM3R4gUqvvOpHBUBY+cMvxcxffV1svPtHEQMGxqChI2LvljWxZO60QiUGadkU9cqy3/qDgnHf/u//GFMXnBJnXvDqeOKBO6L1ph/Htg1PxinP/vVCC3Dbv30jzvvNN8SWJ5+I7RueLOqMmTIjrv36Fw4BhGe++q0xdsrMuPfH/xZTFy2JU1/wsvjaRb8bz3/je+O6Ky4vtBNte3bF1jWPxWN33lhs0N64ua3ZQ796rqJAsxRopEHIq3iB83TUIxGRcPISJwe2966R1q6ZMThQHYpprvR3XoxE+msUfoahZD4Y41Knnlpc+5iKn2wb4/W/op5+HNKYmzYc1Obvf3NzYKODz6jjaTbUcXCjAQbmWePRtu9zPtr3Q/IDDPSDafmtDZ/73vPaVrSTJefZiJaYq6Kdrsw9aGE+OXf9mKu5leeD5o3C6HM+6GQfoIl2y3TL/ZBq/qyjv9xP+jMO2iAOh2jsf+NBw1wrn+V+Q2O09mxeHa0vY7AHfJb0yqRUaO57baARGhtHM2NDV216Vnv6yDZq92i+C5415u7Mp9H7gw4JJgG6ctrxpgCCSgiiQLBURrkxDycPwrDhw6O9vSP2tR3coL3lgzB49MgY/6vLYuNV18egkcMLzcH+LdtiyOQJsX/7wexQPt+/dXsMaBkcg0aOiH0bt0QcOHhhFCDQMmp8tO/dVajs2/ceBAEHOjpiyJhJsXfL2i7PIv4Bp/zKi+LWf/16wfAPtLfH9o1Pxrhpswr/AhqElqHDYsem9TFy/KTCHLFj47oYO2VG8VlH+/4YNnpc7N62OcZNnx27t22Jtl07irb27dkdu7ZuipHjJ0Z72744EB0xdMTo2L19S0waP+4XVENdDrR6oKJAH1KgKx8E0lpnsfUO7fIdMN0dOpUtKck55szCnEiczBoOwfSIL7fL7k5qI11myZC32v55ydNw5BjTXl3WTOQdBZnqmVBC7U4qxEwwgxybfkinnqVJoFI2Rm1QU9MepFRZHhsJl2nGsyR9h70wQfPEXLSp0CakfR9tea93FrpIisa4MEFjrJd2P8eR+fxJ+vgEKTyL8aMTKdnY6tm9c3w88zPkDhNLGmDC1tHaZGlkh6+3T4Qf1jOnJBAp10FnYIFmgOSObjQIfE7cplmvTm2f5bE164PQ2Xxq34XuzKcePYADwKTeWjBzDBi/9NwDQzc9dWc4lYPNqthwNq+QCkWsLttKos/DAQi1g+wMIFgY6KrZwq+AWSE6Or8lstn2Due5keMmxs4tGw+nalWnosBRocCRdgRuBBAcbhiK0LVMfkMIocJ2mKb91SHdk7sYAAR9pHTtfgCMEyjB1MvOcBbA+Secz9hc6asYF9BQ64OASVCJO2RT7Y2xU41//vOfL+oCAUI62dDlVWBOoIIHWqiJzdMYjYWKnIRobJgB/4sEK8Ysnl8d/cnrUB4b5mXMhDhM2LxIz1TXYvMd+Npk886c+zSP7O2dXcD0oQ99qIi1Z17pygdBiCL6UuNLycw8gKECNGjAvKIN/SVgqd30/BhI+XxRPGvOebcEc4H9WgZ1wBaa4Rcka5oDDqEcJfEuIFD/gA0mLwyRih7oATaYZgASWgb2/nTqBA6BJ/ORwwLdmAR8z6TE7IQm+kZ3QNe8jJlfAxNKeWz2Fe0Ck0KODbjEUyXmyjsm1DEu/xu3MZuPsdGiAC58BWiMm50Ps1O9Yl/Yd9rTV5nn1gUINmES3+ZC1GTSBigWNdVH3QUInrc45ZeyM4CQSS+O1KkJmc4/5zmxbd2a2PBYa5zxwt+OdY8+EKMnT4u23Ttj5Z1ucnsKbExbfGqsffjeIzWcqt2KAv2SAo3yIPzRH/3RIdV32QcBw8SQMQiMgcQvFv1windcP5zKMGUqe387y0jNGBqbb7lgHJgZVTW/gIxJJ8WKlS+rax36cuJjdpiCM4tTHsaS4IK6/73vfW9cdtllxQ+gQMJ2rmZ0BMZjbJi89p2zJEm0cIgnWFKHkyJgkhdJ0TgYG0aqjsuu0M1hj3Hx8wCOgAFzoQlIcJF3LTS6cwf9jBUo+fM///PC0dAlQ43MA4AYhkvz7KwHkjhZogsaSB6FkQJHjSIP5BpAD/kW5I8ADtHAHgCk9C1+X8k8CfqQXwE4SkZnrIANWqQDN78G/gw0M+ioGAfghAlzUgQIfKetnA9/GcwZ4MDkaRDQzv8AEKHZnjIvjJWzYTNj0y/AgC7Gau2BD7kOAAx9WGvAwzxI+vasvUur0cx8OFfmpV3aQB9t5p0MABU+z5fGpVNZmgIIki9QmSkYe1nl1l2AYNP4ga4hMkCjtwDCKc95UYydNisevuFHhZ1/7tOeHvf/5AeFs9+KO26IURMmxdZ1a6Jj/76YftIZMWz02Ni+YW2hup+55Mx46Pqr4pWX/nX84NMfivnnPjvWL384tm9aF5NmL4y9u3bEEw/cGa/5xJfjqi/9eezYvDFmn3Zu3H/NDwozQFUqClQUaEyBrkwMFe0qChxJCjSTivlI9n88tA2o0GKUbxGtCxB4TyZCLts7qAAzpjUn3F2AQBUDRUIvEFMRj9xJHoTuaBAWPf35MX767HjykfuL8MmzX/ra2LV1c+zfuyv27d0bOzetL3IK8AE477f/oPif/f6eq78X8896dtzyr1+PV156eXz70j+O57zu7fHANT+MyfNPikGDB8e8s54d3//UB+IVH/5C/PPH3xkTZs6LM87/rdi5bVPc/N1/OB7WvxpjRYGjRoGOBUNixMLRsefqjTGi/UDsGjcjdq5uPSRskGA6uzOApJMOYYczCecNqZM07DcpzFlEVZ3OgrXtquMcTHOq59IOX+/ZstOguko6M6cjGE1InqmeUUebxpROivr0WTrTpfObcVA7l+uUx6Z+eT7aT0e5dPbLuRtb+mM0crguz9H6qGtMObZG64BOnstogNQ2l2mQY2vkOFeP1rXzKfffTD6CfL6R3wD61Y7HOBRzQK90bKRBSH+Mrpxny2NL59Ou9nBn86l9F7ozn3r95v6rN4+mNAjp/Qld+LtcugsQEAiaoz4RTmHT9RZAeN4b/3uMnzE3rv/mF2Ppc18Si57+vPiPL30ihg4fVYCBOacviwNxIJbfdl284C3vi5u/+7XY+uTjsegZz4shw0fGT7762UMA4dfffkkMahlahBOe/JxfLwDBdy57d/zuJ74c3/+fH4gzL/idwvlw6MjRcc+V3ypUS3kxR1eLX31fUeBEo0BbG0Z80K/p4r17Y+O4GfHpDY8V4XNUm9S31KsYqFA1anwqevHinvFdT/IgUD8zAzhMaUDZ36lpqXb5WdWm/HVOsYOzzWc4oDEaX+3tthhHptal2leE9TnjMg8CDWzeBeHc++AHP1j4QAALVOjmSR1NYGIb14/zJC8+Mu5kuPpyhqqTfhnGqo7zWR00FeLItCG3gnwJSYO8H8LhT91MRd1VYWbJ0E3mhkZhjhgoFT31OtOCdaSKRwu+FGjgcyF98io0ih4p01p6ZiYgNDAf65b5H3LcbPZMKMwS6Mc8xWSiH/kQ7CHmA/RibsHLrDHTgjW2D/jXMWnYJ0JJmWOkKGa2MB/mFW3JY2APkbTlO7Af8hpmmnGmIOYefaFteWzp4OgOjRybfBX8NPgicLyU+0Edc+VvwdzvOxd95bvgbgk+KvZts/Np5O+hfyDBePk0sBIkaGwaIFh4NqieAgQLahENIv0aegsgDBs1Jp72olfE7T/4VrQMG1FoEUQDjJo4pchIqAwZMaowCQxqaYmhI0bFzs0bYsTYCYUJYX/b3uJvkQKjJ02Ntt27Yu/O7cHpcP++vbF3545oGTY8Bg8ZGvv27inyG4jE2Ld756F88l29aNX3FQVORArUAwif2/xEwTjSfMkuyubKSRpTYdulsXRQYno9AQgYjgP9fe97X2Hn15Z+OJ1hFGVPe+uTPggYOIaK+WC0BBqMuVz4IJiHwm8A4HCQYzJlc6wY88yDIJ8AxgNcSOrDloyBsmU79PUDIPAfEG8PcAAP/sfQsk7mQcBQMJOsw0vf4a4dbXKsRAMOdampIdz5riu6es78RCBwsARs0K1RwUBFbwAD7Pj8MDgAWk80kOvffK1rrXNotol+SWvrlDTAN3I++SxwxDnU/P1gcvYS8IEGpH/9W0s8By3QzW/+GpkHgb8GBg5IWTfgCePO+Zi7zJD5vGgMtNGftvPyI7/taaCimbHZ28z4F154YcH00cZ8rJf1xC/1a0xoBvgZo31ivs3OJ/ei/uwB+9740UD7aAN8SWSVpS5A4ECSqpW8DhJAQLx0dMgGuqtBqLepejOKYcSY8bF7x9YiNLEqFQUqCjRHgSMexTC7JYbPHRV7r9sc0zoOxM6x02PtmkcKxku16XDyQ/VPne2wxgQxBkzGIVyO229uVgefcnZxbCMV5dW2DvnMKeAwr02UpJ6DGEPK2HtAQGRFrZnVsw5sXuLOQ/1kauKU8J2jmBSGSEMilwpGQGLMWP1UzTOl6AcgAAa0ASAYo7E6zLNOzkf7GYtfrkNCVpepVn/GlumfjbWzHBBlGvMbU8wRU0oQU28dzN1+ApSsLac9TM680CAvPjK2RhFq5pK05oCJ7yQNAATzSV5kbMYFPGWWyNxP6tpLnEYBNoCMVkDbmW9APZ951pgAAloIDNTam4/29Ef1D3iQ2jMZk/1l/UnoaG9NaRTMu5mxZepv+y1NQpnoyjjtVe8CrVC+C57NsN1m5mO9Gr3j5mn89hugWb6euy5A6M7L1yxAGDZ8RPHy7Nq5IyRLKux1vZwHoTvjPhLP2nybJx+8Xa0qFQW6osDAPVti6PpfvGejqzrH6/ddOSmmhNloft2xMddrw+HvYMfkvZ+YMaaKITh068XFq4MBZ24DY8AA6uUAyPS7GUuOwWFW5dCyvEXPYZxqcEyH6SD9CoxNG6llBQjcekh6BxT8DywZuzoYZRZ1MDTz8SxQZF4EPkxL25glybw8NvNSpzNNAkaXSXm0g2k1KmkTx8iBgnK2xKSBsQFLjZiW8QE06FQGecCFddF/Oa18MuJm3g9RI7WCrnoJ0MptoKn1AKxyTQGf3Af16tSOoTy2rnxtsm5n86l9F7ozn3r0wbeAlHpr0WcAwQVNk6fOiEcfvj+WnHZ2jBg5Kn523dXFwHorUVIzm+NIPgOJ3jfyzJgyfkw875wlMW3C2Lj6lvvivuVPFC/lu3/nRfH5b/2w4RCeefriWLlmfazecGxGRQwaODCGDW2JnbsPJrjy//RJ4+LxdZuKw6Nl8MDY29Z5zorRI4bF9l1PXYgyaJDscRJcPqXxmTRudGzY8ou3ew4fNiR272kL2Gv6xHG9SqMpE8bEuk0HTVDFvAYdTEEqmVejMnjQwBgs41nbwTvWy6UIS/o5nYa2UOMNiD1t+wt67W9vP/ToqI4dMXbtrUdySx4zbXfMbYkR80fFnp9sjgkdB50UN65uLZiYg55KmV3bYezAE8IlRwL7K5U29fThhjkignBtJlKHfEqfYs8xISCgNuVvXuGMQaTNnm0dU6s1R2ASJFS/U/piIyexpkc4xv62t72tSPXMnu6KYiFlzgXzBAKMz9hIog5rNnTx+2znqQEBpKiIgQx1sn2SH8aJoZoPDYXcC6kBJnGyu2NsGEx5bOz1gFNneSbxWF23AAAgAElEQVT4TbDTs6l3lQdBSCk1tdTEfBAAKnO0zmigLfNJU0C9TcpRPmmAtvaB+Thj+XtZL/PPwlxDoseAgTL0Ye4RGklNz29CHcCAySK1AwAVkwAghdZU+/rLvYFW6ppPrika5j7gc8B5H5NNfxLrJVkVEMN0UB4bDYH1Q/8cG/8CQJVmBvhAZ3WAOvtTX+jlnch3AeOmUaJFaHY+jS6JYjoD5Kw/GnoHU1vXZwDBQp609GmxetWKGD9pcri0aeUjD0Zb295+BxAufesr4ms/+Gls27E7PvgHL43L/u57sXn7zrjkjS+PxbOnxee+9cN47YueFbOnTYg3fuxv4pI3/Wbs2LUnfnzr/dHe0R7POv2k+Ow3rzxmDvccyMlzpseOPXtiQAyIJfNmxg13PxynzJ8Rt9z3aJy6YFas3bglxo8eGfNmTIob726Npy2eEyvXbiwAhILxz5s+OR5cuSbOWTI/HnpsTTznaSdFR8eB+PaP5JuIGDtqRDzjtIXxnzfdE6ctnFUw6/3tB+L8ZafGl75zdTz3rCVFH9/+0U0Fw8WgJ44dFVt37I4XLjstHl+/Kbbv3B0tLYNj87adcfrC2cU42/a3x+wpE2KMDJsDDsSDK9bEuNEjCrDz355zVnz76p/FsqULYvfetpgwdnRMHjc6rrn9wdi3f39s27krhg5pib379heXgI0cAXEfiBc/84z48S33FWu6ZceueGztxnje2afEtXc+HAtnTokN27bHyGFD44EVqwsAdfYp8wpaZTmRAEI9H4TPbFxVMAyHde1dDKRZ0ibHLGpWjL2RvbqZF8UlNw5YCYpI0RzkOAdiBHmBULkdY8LEMRxOiv5nE8Z8a+9iwBzYbjFABz+bN+bo8M4LnDDgd7/73cVdBhdffHHRJkeztF1j5H7ynghaCw6PLvT58pe/fCh/AUbhME8HxHSgJLVjbJgLZ0f3Hcj5gEFhzuzUmI45Y3rlsdEIcMxDk3rF90AEe7r8DfICuMyoUZEkihkDIwSCOCVaP3RBA/kXjB+gqnczpnZdrqQOgJH5IfgvcJbkTGhd0iHUvMwT/cwdMCjnQUATeymld0D0/e9/f+EjgMHTLAEV1s/v3//93y8cBdnmAZOcj72Dbhi3fSAvgXnwRTBXmiDmI6ADQNF+M2MzP/uQQysfP32YzwUXXFDsWW3pD3D0LnjePIFDNGpmPsBmak2AZQDSeO1L68BMQSNlrkfFxJAA4bFHH4oZc+bHhIlT47afXdOrtzk2c1AcyWdSg4Bx3PPI4/HrTz89/s+V18XI4UNj07ad8d9fe0F85oor47MXvT5GjRwWI4YOiT/9/BUFc/3hjXcFDcIH3vAb8fI//cyRHOZhtz1qxLBYNHNqDBw0MB594smC2Q8ePKhgeiOGDSkAwIIZU+LBx9bGs89YHOPHjIpVazfElTc+hfSfcdqiWLFmQ0wYMzKedcZJ8b1rbon97R0FM1cwW6AAuFi/aVuMGD40vn/t7fH8c5bGo6vXxer1W+IVzz83vvWfNzIuHwoPmzxuVGzYsiPOX3ZabNu5O2gcgAESPCaO/medMjdOXzA71ku/3dISdzy4Ih55Yl284b/9Snz9B9fGmSfNjZaWQbFyzYboOHCg0Co8bdGcmDJxTFz1s3uLlNxSZg0cMKAY17hRI2LaxHFx8tzpMWr40Fi5dkP8x013F21f8qaXx6V/8504dcHMuPPhxwr17itfsCz+6eqnrhI/0QGCKIayitz6ZygiwIBm5TsKGiXmaWZDJwhJ81+5H+CtXghlOfxLvfxp9GxqwTJkMUPijM/fmcffWPKynJxnPlOmQfkZdZMW5TrZpzmU6ZU5/ct0zPlkX+V5ZPhnI1qqq2S7nYWcZj9J65wHuiQNcj6N1tR8lAz5rJ2Pelk3w/6yTvm7DB0FxjDdpFHOJ9vINSuPNdeilm7lvZP1s5+kY7mf8sVI9cZWfjbbrq1T+y7U6yfHm79zX+fYGtE69zWwAHiUgWKfaRCGDh0WLUOHxq4d24M/goXfs3tXsQn6m4nhDS95Tty3fHUsnDUlTl8wKy776vdiz959BdOYPXVifOVffxLvfe1LCon7L//P/423/dYLYsv2XXH9XQ8Xn/1/7/zd+N0PfaFgUsdSOW/pgpg5eXzc1boq1mzYUkjuNtf40SNi9IjhMXHcqHjk8XXx+LqNhZQ/a+rEWL95W6ExUObPmBxnnTwv7m5dVZgZFs2aGtff/XCcf96pBWMt9sLwobFs6cIY0jK4kMr3tu2LOx5aGS84d2nceE9rPOO0xbF91+64f8XqAmCt27wtzl0yv2DCv3beqYVWYf2W7QUweOixtYUG4b9uuy9+9ewlhYQPyAA1t96/vBjz7ra2gnEDOTQEg13VvWFzPO/sJXHN7Q8UYIWWYc60ibFp687Y194e86ZPKkDO889ZErc+sDxOnjsj9u9vj3sffTyeecZJcd0dDxaaEHPZt789Nm7dXmgmJo8fU9Aty4kKEF68f39sHTcjrnpy+S94+R9Le70aS/+iQF5U1b9m1buzoUmgRSibe/sMIHQ2lf4GEKjgz14yr1Bpf//aO37B7ty7S1q1VkuBaRPHxtqNW48ZwgBQ/BUAhVop7UQFCBZn97jp0fFEa2F3p9Z9wxveUKju2T+pg6VCpuKlLmZ3FTnQk7sY2OipVtMHIcO6qMqp4qnxy4XUaEzUsJmSmPpYDoJ6YY5UyQ7W9AkwLzbtzIPAbu1uByF/0iO/5z3vKdTvDmQ2ZKpkqvv0QSDt8bmQ7+CKK66It7zlLUW//CCYC6jLmQuosRWSnzr6Z9v2DHME1TTVO/8EfhzlOvpF40xZ3NlL8+lPf7ow9+TdArW5ILKuPc6fxLPoJt+EdMVs8vpPGuR8ajVI2Q6TkLakCBanT+WPbq7e/pM/+ZNDKabz+bTzWy9ry4+Fuj7t/PaQsfN74MNgH1hje4+d395CGz4IfCz4EVDnZ44L82EaEn7LLITWxsTcQTORTq+cSfkGaIsaX+rt8tiYWZgI7O+yf4TwRk6dTEzGrQ61P2dFpgxmovRB8C5kmKO5Njsf7dUrQljtXePmg8BEksmtKoDQi6yEieHxjvG92GLVVH+mwPCB+2Pw1qcuSevPcy37ICRAiDWPFnZz4WuYAdtu5kFwpwBHKQmSMEM23p4ABBcXyTPAgY7N2SFLqsy7CzCGstrcd29/+9uLcDV2d4zCocyhjF28XNj0MTHMzsHvgAVG2HzLdw2U8yBguHwfMHDAA9NRjA1zwhAwIwe2djJvAGdHDMa4MMF0oMQA1ZFjABOWiMdYOS0CAdpysVC5Dppj3Gz0nRXPATwYp3sk/G4mD4L+gBSgiIMh2zoayPVvPubcyK+Ev4N58qXIqA/3JwAJgFX5wqxMTmSegBggwgeBUx6AhYbmnbdM8ivgI0KVLhmXcXkGA1XPZ5l3wTwzDwJfCkzfOgMWmD8GKjESYMLZEbjF5DFtSZeaGZt6HB0//OEPFw6dQhK1iX5AAXCnP/16F4AGAMTeYq5qdj7AkSJiRVv2NJCUYaTa4oPgHoosfQYQZs1ZEKPHjo8H7rktTj1zWTz60L1FyKPSnzQIGZc8ZOS4GD1tQWx9/P7Y//Nro/szA6jm1n0KYEKJ1Ltf+/iqUQ8g0CA4/DNFMe0BBukgdyAKzyOdsR/zWG+Uda8rSmBwpHMHN4nL/9riYKbdRldJAy4YhsOUxOnHYZpXEJf7zQuFHLL6IR3yws8rlB3qJPbUiGhDRAKpDbM0Hkwmx4Y5Yha0EJgHRsMbHwjwOSdGYCEzQJqLOukciH5ACoCVF+75rlzHWEnJ5WROjWgJxCi0GrQxmGOjFMPmbi0xJKALSME4y9oSa2o+jXJbmAtaA3Wkck6reWEVJgYEZFimsRkXGmO2+tOud0tdzn2kZKDCGqqrbfNHd/Uw/txvSbcibH3z5qJf89GfvYJemKx+gBBrlutPC2BN7WHfNzM2NAJO7LdMxW0+9gVgAwgAHIBcvgvAkPabnY/1anS1Nu2H8XO2pIkCbPocIOhQFMND990Z/BEgl127Djqm9SeAsH3Hzphx5vnRMnx0PHbj9+Jpv/OhePDKv4ldm1YXi5kpMh1UVTmxKVABhKfuYsAcOwMAPb2LIdMUpzMfZkXyJ+1TwddTdafnfcaHWy91Mi9CefdiCMafWgjPYRyd3XOgDs95/etDu+lp3yi/PklcHcxNHYxQHfPB0OqNrZ79XR319ZNCTWdvo+fNp5x7oNHzed8AJk8VXw6vy3XG/DKRUr126tHa3K0TJl2mtfrN5BeovXuidk/lXQyNHDa72qPGUS9fR9khsgyqMhlWJmzKkNR69Kh3T0Qj+neWmwENyqAs6eZz+8GYyqaIPtMgRAyIk5aecRAgSFc8aFDs7IcahI5h42Px+X8QW1bdH+PnnhYPXfX3MWz0xNjw8C3hClPqm554Y5/YLLV/zb4CCK2FhEfionom4TkIMQJqU+YHNmghb0wBtbkKurMbhCGSEDF9WoHUDJAuMaracDtMQggmRiYHv/L617++ODxr7y4wZrHyGH6qZ9UhaTIlNCrqpKqdjRujYNYQGimkLq+KLtdnNhAS5w4AkrT0v+owzxhbhh9qy3nDJ4HN/qtf/WqhsWCuQG+SIk2HPdjMXQzMLGzjJHoqd6F1tBo0IuWCbvIcfOQjHyls9sYHvMhG6NwTtindNUkfeGpkFy/Tmj1e30mrNBeUVeHmQ+oGYPK67fQR8LkxCNWkSeAXoQ22fZoN+014KildPgRhjt/61rcKU4p+7VF04zdhj9LoNCp8RNDafsv7MPTDBIQJM/0UQvHIkUXIK1MH7ZY6xmcf2qfoWM7zYGxoz5TFHEarQTtEk2E97QX7jVYmfSjM1Tyyjs+BN3ufiY32Cd2sA9Bl7jRPZeG1zwDCtBmzY/zEyfHIQ/fFvIUH1VWtD97T78Ic22JITFx8TuzduiE2r7wnlr7s3fHwVX8fe7ZuKOx4CtVbZgjrziFXPdu/KHCiA4QDqx8pHAFJMQ6usg8CdSeGACCgE4bSkzwInMkcuJzcMEYx9GzZ/AkwWwd0ueiTLR/TT0btMHWw/8M//OLtraRwhzGVNgbicMeUAYd6TF4/5ovBOpj5HGCI0vf63EHNlv6xj33sF1IRa9czQAKfApf9oJE61M80AWmbN34SL98N6vS88IfKG22BLX1jMO4b6KzolykIUMNcX/ziFxc04IxYSwvtpM1e2+zobPepxci7GKwnhtkoD0KZ1p6zRzDJVMUnrfXHZ8B8ME3fo42cFV//+teL+QOBwCZQk6CP7wYaA2n2HSYOxGCw6U9gz2gPOEA38/GsXAwKadu6cx61jzFj/Xz/+98/tDaSK+mHaceZT82fdfz2LBr5DSAwJ6CpNUnHWQDG2IAVzB5AAWzsBaYGexJ9jBPYs+/MwX73nWIPWG/raF7mCTihm/eBjw5gZQ+V16TPAEJnG7A/mRgQePj4aTH5pGWxc+PjsXnFPdGxv+3Q9C22Z4507vv+xUr752xOdIDAByFz4pPwHPpU/g4yBzOVq0PPYej/w/VBsHswl7z3gJo371egPfBO1gPsDkcHOqkqb1P0m726tnhWW+ZhnA5i5oZ0DKu3gz3jWTTQD6ku0+Zi/PWka9n2HOjU9/oybnX0hZHm2KiZMRxSovkZmzrm7rlMMY3mnY0xx40RqatvanR1Gqnc9ZtXVOcY814L3wFAGBZJtZFdHPNLWgMcmFb5vgPzSdMFxm0++sAorTOa2jtp7sgkVHw40Jw2w/tnnGiQJh7M1dg4LhqD8ad637w9y4ehXgGkAIm8K0P76vvtM2Al18ezeVNn1qH6N+4ccyY2Sh8Zdax13sFgHc2LtgiYlaHTfPQFGNhD1sl8aBf4WujD3kB3z6Cb/WEs9l/tu1ABhF7kPaSNZux5vdhl1dRxTIEKIDzlg3AcL+MxOXTMpFECqGNywNWgekSBvOOiR43UqdxnAME9DBIkrXl8RcycsyAGDBwYK1oPXlTT3zQIgwcOjkXTzoihLcOjde3dsXPvU3n+O1tAAANaZluqSv+nQAUQWgvtAFD9jne8o1D3k+RIuqRMEiE1KAmLhNwTEwN7PBs86SyldZIZ3wbq33p2eP26vyBzDZB+2XqlrS0XEhzVL8mNGlvRH2k/fRBIZu9973uLuxiEWporEwOJjmqcepqaWppb9OANn+p77ZMO+RpkP+zUvOpJgSRr9u6cT14BbBz2GJMAyTdzNBzOm8UHQUQJb3g06MxvgXlAbgW+FObDvm9M5oUG/BPQwJwbXfokUiJpIJKD2YBJg3rdPQ21phsmBdK0s5PUnJcdCbNkUkkp2hjQg+RM2uY0rg7NiH1gjqIJSPo0E/7m16EOnwbFGW0P0UKRvPkA0EyoYy1ofuxdJix+Eva0/cwHwH4zNns51f9SKusDM9amsVL3+6G1oEkQEmvP2JM0GHlNdTrH0iShgVBg7485l81yqW2g9ckbPNELiDR3Y2GKMY+yj0WfAQSEzSgGfz/9OefHzdf/qN9d1mQDvuC0V8QdK66NHXu2xMvPe2v86y1fib37Dt4GRm1FBWbxqJ8cKmxUnGuojv74j/+4uBjEcxaS2kc9i2nj28SebSY06XAOgqpO31HgRAcIfBAwYOF/mKB3wWGbDlnUrWzqVKLel55c1qQPfXmnMFKJaRz0DmbMtvYegmT6GLuEP6n2ZautzQHg0OUPgElL9oQhACNs9pkoya5if/duex6TwHzMDwNkh2Z3Zk8XZoYGCTbUlQNAXf0wGzjIHfpABIYAvKTzoHmy+2cBRMy3UVKiZnY8Ris3AYDTbB4E9njzwcwzKgMN2Napv9GhEehz/iUNMEFnpTljvsZSzoOAjs7DF77whYfuSWAWss6cBa0xR0d7CxMEcnwuRwKQ5TzGmK0tv4WMNLP/qPQz4RE62Qd8BxR+C9YO8MqICL4CGLwxAwt+mEesKTCRbfLlSGdU/UkmhU4AE1CQfhHoZK7AobFh6GiTZgF8wX4wfz/ojW4AnLEAs/YWkAaIaDfzSlhHeSasU+aC0EbZhHJUAMLY8ROjbe+e2N0PwxwBhCWzzi2Az6mzlsX3bvlyoUnYtXd7IVVwFnJwQIVQHiSK6ds4FjEBgpfHBneQkLI4sdgMXjT1SRRVNEQzR9ux+8yJDhD4IIi/xlBTIsPEHIAkPJ7fJDCHufemJwxObDsA4p1xyLNfYywYJ0e1skd87hiHPqbEe9yBT3LGiHmi1/oQkTAzo55DHujAwEm+CgnaQSxawTng4M4rgzHwzF+AEXrnMab0eDde3vGSMJGq9ePgTucyWghgwnzkV+AVX86OmE6DPXkTSPQKZ0iSMSfPRnkQ3vjGNxZCTEYPOOeMDc3QABhzgyDGhzHXK55LGqAP8OTs886QpknKKelK9iSyg3RNK2Bt7R1Ofen4BwxYR+csaR6NFAKYM5uGJa/WNj8M1p7JZER5Hbh9IJQU83WGc/gTVUBr4ozmiJ63b1qXclgmMORMB2TyoinCn7bsTWPL/W8expXXe9uj6MahVt1MlgWMAD2ABBpg/t4fTJ4za/niJeDBfjRmYwc27FGgK6/71g/H4Cx9BhAWnnxazFtwctxxy7Vx5rnPiR07tsbN1/04Ojra+52J4byFvxb3PX5zLJp+euzeuyNWbWyN3W07i4PBxrPJSDQ2nZfG4mD+kKgb5GQac+uZjQd1OkgSIHhBvFSNXqyeHAJV3b6lQAUQKh+Evt1xVW8VBbpHgT4DCJ0Nq7/5ILQMHhonTXtazJuyNK65/3uxfffmYvoQcGZN8z+USKKBOoWkQHJQpM+oVSE8SJzDEY0CtRnESMrwd1WObwpUAKH1UPgXYEwysueBZZIwyZDmgOqXhE2Ff7iF5OWwIzGRvKlaSeJMF963lBCzfe8cnwDPS1+skHpJmrXXPXvWGLWT5oe8VvorX/nKIQ2Cd5jGgoRNW5jZCUmQzBjGQhNBmiTheba2kIztG+eAM4LmQx1qZtJo5kFwjhAunBWZbfFwaaee3AXOKJI8rQ+VeL2CFswI5oMGwkedazQoyu/93u8VeSVI9uZZTqJUbq9Ma/uA7Z4gRdOkbpnWuTboRWon4asjiyVBjImAIEaLQStAQiZ0MTmQxNGK2cH3PrOWpPE0QdDoUMHr1/7Mq8hpChTrkYmkrKXQQWtDEPSbOYBEn+YAJhL0y37SsR1dmRvcc2G8zn7aY1oF47VfaT4yZDXNI/XWgaYCDeSp4O/BFOUeEe8VjZKxGCszyfXXX99wa1QAoSdvTU3dw41isEl7oj7txSlUTfUhBU50gMAHgTrX4efAcohm0heOY1TrDjhMmtPX4d7FgGk5aKmmFYc2MEJdn/kAahmeZ9j7jUuyH4VpDzNJpp9bBWNm56XVy2RPLmPSBuc+xTNUyxgsWzB1M4anDnBi3hlihwlgqukUl/0weWCcmCDa8DWQjAhYIGxghmW/BRceASLNZD/sbNvnnQ3ap90EUjKFdL16adJg41aHH0beg5B3MTDBmGP5ropyW2VaW3tABwMFKqxb0lodDnvawnAxcozTsxgtGjN18EFAG/1jnkCKfceUQUUPEAAPmC9BDlgDsNJvgOremqnDtEJAS/8RDJbjpdwKQKV9ygeFYy1QYQ8AlugBEJmD8z77QRtjpGE23rK5wXwAPI6sfDfMmwkhU2unLwZThP0hhDPvbkADYBbQ8T7ZD4CVufE94NQIUGa2T3uUTwUaZOkzgDBp8jSXosfmjeti2sy5hQ/C+idXH3x53jgzdv79E7+01xK5HS85A8oAYdq4OTF2xKR4cPVBlNlsaSadZ7NtVc8d2xSoAMIjhV0fI8X00vnWIUxj4KBzsJGEMJKepCfHCEifmJ3zxKGI+ef9BPUuLGL7pm0gZQEGziMawHoSl2czEY5xYjb6yXYxTcxGghrSpjlzJlPHdxgHDYkxmr8fNvTakr4UAE9mvVOHjwDmUZ4HibgnkR/ZN5phUJg0JstODeg08oFCa/NBK2PiK0BqRhff0XpgRHwCGmkQgICktb75X5g7TYI9g26ZuyIdR4EO0rp2aSxI+Lm38jZL/izoZuwYtP4xVeMEFAAv+w1jtkesFYbsb3vUnlFH3fQvwZiBDnXRHNC1fvoHpvJmUt8ZP42B9rKfdL5FG2A4Q1TtTf2jG6BByyGrIwCC1/iuEWi219DAGLULANlvCQa8V2hibsbUqPQZQDDpxUsOploW7njWsl+JG6/5zzhwoKPfAQQ+CBu3r401W1bEy859c/zzTZfH/vZ9xSbKRCgWJ5OUQKfUYg5IToo8Xm0AG6TSLhzbTL4nozvRAQInxSoapyc7qKrb2xTApwAgILAnF6mR2tMEUW+MvdVPb8+/tr0+Awg6zjDHIUOHxSmnnRV333ZjgeT6mwbhjLnPiiljZrl+Iu5Yfm3satteRDFQ6ZAKqFXZGKnCGkUxsNXljWm9IQUc6Y1Utd99ClQAobVQ1zqIP/jBD8anPvWp4n9SX2bsI22R2qhFe3IXAzusQ5nk550jeZHomBbYZoWQlYtnL7zwwkJazDTM1PskQ+rZ2mcBe976eTcB+7t+RBsp1OCkSW3JZUACJ/mmndk8nQ20DjQKfrIu04N67gjIfozZ2ERFuN9ACDSpMdPzmqd8AUwBveGDIO0zyZstm8RsjYzl4x//+C9tfHTiYC0lMRU3NTjNqHruaZCGWtieSIvMFljbSJnW5oU+1PfMBsw5ZVqrizZMMtT6eREXoYvmx2/vGvs+rYR+qdOFE9JOGKN1yIuraAIUz9AaeC4vndKPCBSfqZPabXQwX9oI654ZImk0jMkPLRNHdHPjB2Ffa4P2h28Amhr76173umIsGSLrb/14N7LOu971riLHhv+N1x7xQxOCzt4fhUYizTva8a7lxWXaNA/mEDSi+aCVKGt1+gwgjBo9NhadfFo8fP9dMXbCpDj51LPiJ//xL/0yD8KSmefGYxseKqIY7n3sZzGkZVgBENiAhJ3QCrAP1Yti8OI4GGxo9kUvVFX6JwUqgNBa2EcdkGiBAWUeBGpXTJLN24HXU4CgLSpqhyMtnr6YLTBP9ulyvgK7zWHqEFbSB8H7Sy3svSwXB7CoI6ra9EHwHusnnwU43v/+9xeHOjs4JsU+LzoJOKJG5tsAgBgbYaKckEkeBM6S+kEbB7eCcWIyftihy/MwBgy9pz4I+jEXyawADozTOZZnVe3bmT4IfCSE1InvzxsSMw8CxmktGuW2KNNaXTZ36wEEyEOQtNY3zaz1IvlnHD/wJcEVTa01zmREeSGSemjtObTHfNNf4oorrij8T6xdmn3+6Z/+qWC2+in7ElDZA655rwJQKQFUJlsCajJHAb8DPiHoZi09+8UvfrHYEwCszwEI+xLd9C3M1vj0k47p3gUOrvaO8FemL9pma5T3MrgDApBiYkBLIAgAMWe0B5TynojMi5DvhdDPLH0GEAa3tMSggYNi3762GDz4YI5qIY4FUutnPggjh46O55zy0pgxfl58/7avxoZta+JAHCg2mM0MXUKk0JzfDkgeuF52hw1kBwl6wTrzMO2fbPPEmVUFEFqLQ93hTFIjfYkucKgDz0C0sGAHHQ9u3x1u4SBYToOezm78CzD9crx49sF2S8I1FpIoe60D0yFfW2gFqZS9u8ZZzhvgWYc6CZL93bMYrXmShDEvTETbaRd30GNUCoCUzBET0w8bPZu58bHJs5lrrxxhYQz1fCsOh4YYKUkV0+JIl5IwZ8+84jrbJWWTQtN8xAeBxzygwgcA6BNVgo4p6daOicYlaW0dOM7JNWA/0MSgQTKydEBkYycN2ysiw4zNmZtaWkCBNsJ3eZ00PwY01x4NgzGRyu1JfhIiNzBjfWmbD4Z+tGEegJykR3ws+D5wMAUYMuLG2AAhTB84oSkwd5oez9I4YfBoi5J14TEAACAASURBVHE79+UvAAaAEuDId/oBKu0dkTLAIOnffHxPg2SP2tfas78yqZLx4i+0TvYbIGBMntcGmgIkeI09A3j0OUDobFP2N4BgrgMGDAwpl/e1P3VRUyMapAqo/L3N6AXr7D75w3nRqzrHDgUqgFD5IBw7u7EaSbMUAPYAuJ6E3Tbb19F+rs80CFOmzSyiGNatebxAxDNnz4/HVrT2Sw2CSQ1rGRFjR0yMJ7f+4s1fNhd0WjlnHe2tf/T7rwBCayGtyTzIXk4qJfWQ6By+VNUkHp7b1LPN3DrYaFVJa6QmEiXQTUVNomILJpmS1mqLUDsaAfZ0hZTFRlt7pwEpT/s0B+mY9trXvrboJ7PSke5J3qQ0GgvSLA0JCd8hTCMgVM/c8zbAencnkKapk2kNaCNcE03qrJ0HBkZy1A9NQ0+L3A3yCfB+zyuUqa5rU1SjBS2BsVGZk7iZEZx7CppSr5NUrW0jDUKZ1vYBSV+dDIMt01q7fAmsaUao0ECQ6NHWWUvLQe1Pzc6jP9MzWwM0Yn/XD22ROXiOkOZz881U+Pqhtielo6vPvcfMBcw59hhtA22YdpgI/LZv8L3MoeB3wSeGDSs0ANbdM+lzk4Kh+WifWZovmjVFNxp49fKWTe+H/wufvpEji71IYyWMkdaBZokpwTtkLfSXY+hsb/QZQChHMcyYPS/mzFscN/70oKquv2kQZk9cFJPHzIzNO9cXoY53rbwuOg60F4ss1pUKJx1obF6qHi+5TWyDZWIMhwoVaKMrUXv60lf1jy4FKoDQWhxiVLhpR03mRy3tkKTidXA61GqTGXVn9Rx0Ego5kB2OYtPZkoETql8goJw62HPsu+U8CN7djCEv981syPHM4Z4+CHwF9CM2XsFwmFMwTPZqzAtzwkgc/EAB8ELN7Xe9fpyhHAMxSSprv/kvODsAKiYQdvecB1U81TLzQ08Lpp/gBdPiUNmVDwJQQTvKLyIvT0ofBCYfNGgkhZdpbX84E6neMWzmiqS1eaEV2thLmTeAuj5DIjl7Z6ik0D97TGGPxzwBHyYRzBXz/+hHP1r4BQB9AAyVvLYwV/0AaWieORzMI30Q9GOM2nNuMyeYu/BW68U0AEAwDZmXsTDfAMb6MabLLrus+M1nxny0Y+9ygkzNsnF4P9AJWPA5GulX/0IrrQ+HWn4+mXiML4d+mk3V32cAwYKIYlj56EMxe96imDJ1RtxwzX/0yyiG809/VWzdtSk27lgb8ycvjRsevrJwUnTQ2UgOEdKLxWdr4muQdiqLbUEhcBKHF9xnVel/FDjRAUKsebRwoMKMHbgOuLypzkFN+gKmPUNy7YlK981vfvMhqY6/A9svxiKaIZ20ancY6RzjZpd2YAMSftfTNngWmCdRYhw0IvpJDQJ7NubA14HGQvQE+zTm4qAnzYniEN3gXGjUj2RP6MAXwdmB+WAgJPnMtZ/zwFAxpp4WzIgTHZ8p0quxmddb3vKWApDU+iCgtbFhRAShb37zm4XfAGaoDqdFgIpfQaOMsJhj0kCUhtDv1DJh3GidmSYBEePAaDFK9ve8cTJvLqShSemdFO7dA/6AHecrEOFMprVJTROwZr5oDcjRJOgHqCC5Y9giMoBAZzjQZK/SdmDIJHqgBXCjKbIH7G9rVr77AxAVRWNtARI+ASJd0q/Eu2Bt7R1ztEcIloCp9oELf9tv6gMJgC+6GJuIOP4LQBn/iLzbp5l90WcAYfSYcbHgpFPj/rtuCWGOp5/99J/nQeh/YY5LZ50XK9c/WEQx3Lfq5pB6GUBQ8rIN0gNUSqvgoLKxqawcGLKwQbC9cclKM5ugeuboUOBEBwhVHoSjs++qXntGAcCFiSJDWrvTmrO+J8623emrN57tM4DA/jJg4MBo37+/0BoMGjQ42tsPSsb9zcQwa+LCOH32M6LjwIHYvmdL3PDQvx/KOkY9lkiWmok6kL0NkoZS/YYKbT4qUICh0Z3pvbEBqjaOHgUqgPCUk6K8AUBxo+Kg6kk8P3Ur6YpESRImhZP6hBKStPPmxHL/1Pk0CJnymAQGyJNmawsJm/8B+7bibgn9sEsrJE4mBvkMSHZsw65PJi36nPaEWtwZoE/ahsxpUO5L2BybPi0jSZEK3xlCouarkWmgmSk8q/1y2Nrh7vaLLrqokLTdsaCQirVP61FbMrOhdMakamNQ0P6SSy6JD3/4wwUNfN4oD0ItrUnjNBNMQcwdZVprmwanNpdFeVy0ILQYwvsyfBTtnL1lr/2u6FOvH227q8IeajSfrtotf29f0kL0dN3wD3xEhEW9ez2aGVOfAYTOBtPfAIK5DmsZGaOGjYkN23vuINTMQlbPHH8UqADCwTBHKn5qV+pX9mApc6nGgWlMki8ONWqjmPlmVp7tmX0Y4+TzI/EPRgZ8UznXOtsxe1Bt+515ENh7mRnEj5cL9S41rvGnDwJbe/bjWQKSUDXmCapkQMKc1aUOZ5rwPLX8e9/73sIUWXsFNUakLtUze7Y5aYfaPi9lSmasP6pw6mjOjz0tmJZ1YT4xZqCpkQ9CmjrQi1peOCBAwdyQt9WSwAG2TJdcO74yrZlaASfqe6YAqv+kdQIP4ArQyzwIwABwhrbAEyDArAPgMXV43toCIhmSCXQxG9gbf/mXf1nknOAfwvdCaKG9op7+FWvAF8JYmATkP7BnmAKsJU2B+QJw9i7AyFRmbe1rfgXGhF7MHWhFowx0pQ+C+TCDMEfxJ+Dkyb/AOPhEWONMoMRMZ63Nh1kMwP3CF75Q7HvmHGto/2P6QjObETz7DCCMGDW6yIOwc8e2mDxtZuzf1xYb1z9ZELo/AoSevpBV/f5PgRMdIPBBcPChg0MQwyA1YQicEzEVDEHMOcbkID6cgrE6jPXjbwc1yRYz9jdpvZ66mJ0cY8IcHPiYmt+y+dVKp9oHbhy6GAMpV9t5uyKwAwjlnQJ8H0h2GABGb/60COlEyS+hfPFS9oeh6QOTAg6orEnm6MMB7UjkQUAzuRr0g9lmHgQ+ARhN2bnTONGNFoSEbj6kfv4k5qoOwIBZ0Y42UreL9Ehap90d09c/horW/AMUYAKYsk8wWJEitCkcXdO/xdqhOcabFxsBOoAUcMUBlm0eA+c8SJMLXND2Ag72pfXLfvg0yFMhWgWz519gPayLtSOxowvg4Fn7QH+YOuauH/36wfR9n/eFYO7+5lNgPsAFPwj7zphoT4ABwEVkB/Cc2REBFu8R+gOTQAWztr2U+RXsE/uwmdJnAGHMuAkxfeacWP7w/XHqWcvi0Qfvi61bDnrX9jeAMGHU1Jgz6aQYMmhobN65LlrX3l0kSqpKRYEyBU50gFD5IFTvw/FIAQwfkwdAuipAi9LMs121dTS+7zOAYHKiGFofuDtGjRkXZ5zzzLjux/8eBzr632VNLzzjd+OBJ26JPft2xTkLnh/X3P+92LV3R4EmoUrIGZqDAHnFUk+yXXXHFnY0NkvVZ+9SoAIIrYUHPGlItkRSDWkVXdImT8LMGPqe3OZICiWRUbF6B7WvXY7CtdnjcpVpBahs06+Aip3WoV5+AuMnhWYIHSnVvDLfCdMEKZZ06Fme9qRNvhBMKMamZChhuR8SIikQk2FDZ4+nXTE2Una9OubJ25+mpDdMDPqnTWESoArPmwzrvREcsEnI0hVT0RuD2HyFep0PgN+0NswO9UqZ1pgxtTm6MZlgumVaq8+EIHLAfqKNUcfeyRBya47+6Ebdnnck5JXfpG6fpdqdZiET2Bk7bZD11I+5Zzh69pMpslObYp2sr/H6zLjyLgS/7Qt1jFEbJP9jMZy9zwCC9Mp5m6MNfvbTnxs3XXtV/7yLYda58cTGR2PJrHPjlkd+FENbhhdRDNSOQAC7lE2cl36wRdq49VK49i5Lqlo7lihQAYTWwq5NnUzNTgWMwQo3o9an5qWSpZr1fjST2KXR+mLQGItDn72XehpjvvzyywuwXpvS3CEuZbC+2aMVNnB12KnLRZvebYy4DPIxgExSREVsnumkSF3McZE62jOYCRv2a17zmoJZ1PbDts18gKFhONTS1O2cEhvVoY7G8Hrq7Gau+teO9MWc3wCcRiWjr9wjg/FyPmWWYAbJPAiEIuddI8fTMq0BOMAEc9YG00yZ1sAQ0MJswT8D0wU8CF0cvqnXgT39YXjlPAj8QrSJTnnlNodZdAV0tJ3XjwNo+mHqAOiAO6DVPrU/AQl9+o5fCDoAR/Y2QJqO6MAWmlhH7TFtAByZkOtYOqP6DCBAwdIPu39h4MBBxTXPibb6m4nhGYtfFOu2rorxo6bGoqmnxz//7OB1z2xCNs3Xvva1YpP5W5yqS1wcfuXLWY6lTVKN5chQ4EQHCAPWLi8c3di2HeikKnHanAZJeWy/HM3EiTtoewIQPvCBDxTMOBPMYDBssYACm7NLc2oLZ0EHPlszjYBxsUPXAgT1MBWOlRgB6ZaXPilSkiDSIyDEIVMWwbe97W2H8iGYE0ZubBggBoxZlfuxTzBodmpMDNgAFNivaQnq1TGmvKCop7sXzT7ykY8U57VbC8X+J4Or17bkTRg6xkjr8LnPfa5wpjNX7bj0CfgCpho5KdIWJA1EPsidAFzweaCJResEddZW4iv5JQARORoAA+csxgtw8VuQi8CZC6ihqfVJjYP9JveC2zFplvArWg51AA/7hVZHP85x2giOmsAlx1OAzV6ikdLmhz70oQKIoh1tBGdE/gS0x7RZ/Bb4agAt2gUwjkUNcp8BhM42aX8DCOY6afT0GDN8Qixff38BhhSbvt4mcPBwyqrKiUWBEx0gVD4IJ9Z+7y+zBRZpf+o5kfaXOeY8KoDQiytK1Vi+Ma4Xm66a6ocUqADCU3kQqHoz30C9pSbt98QHATgXSsirnXmPREiCJO2T7sve/9k/VTCJPR3MmD5IerVRDJ4nbVJdZygm6V0/6S3OZKAf/gu0JrQQpNDiXpqZM4uQRyp8BzLTASm23phoDEjdGBSNC+0HyZXUWq5jb/GEFwXSG6mWRQrogwe9teBj0KjQcJgDzY+xGYNCXc8cQrIXese3o5F/RC2t0cncaQ5I7WVaaztzLzQaE0meIEajkOvJJCDaoTs3XnbVT/ZfvoBP5Emt+dh4aEiYWGhamCusKQ3a4Rbz6Y2rvcv99xlAmDJtVkyYPCUevu+uOPnUp8W2rVvi8ZUHc2L3Nw3C4EEtccqMc2LwoMHxyJP3xvbdm5ta87TTNfVw9dBxT4EKILQWzneYNruyQ5+d1qGNkTrQJSViC8bk+CgcbiH18RPAaPTH7swXisqXjbnW8RAzowZ30KcPAiYJVGQyohwLpmMenNjKdzHoh0pacRcDOzhzwMUXX1zk22dmlDSOI59xCeM058zPr63aIkwQaOFTgcF4FlAAJjCvrGP8GLU2e+OyJuF8+pVnoTMfhLyrADBiSjE2plNhnsw1kisJveMPwuTQKNVymdZCYanu7QPPM68krZO2aMFUoz9+K8w1EhcBIhwFAY4EN2iW/h+AnLasgVBFIZjGiI7MRAAk8EbDq372w/kRsOBgyHxgr9AooDuaM0ugAfOItbff+BswZfBvcSU1mjKZ8MfQL9MLPwQmFL4bTBf2m71hPlJWA132qvb1ay2MQe4FZiqmFCYqTpXm486FnpQ+AwgGKYph9arlsejk02Nwy5C49aaf9Msohl87/ZVx92M3xtZdG+Nl57w5/u3WvysiGjgi2SxeDCjYBrM52Vrzspa8iSsdaXqyuFXdY5sCJzpA4INA8uYIyJ7Ofk+iwgBIqA480rL/SUaH+05gWnlpDlBAy4fZkYgxHslzar3y1SHtKuzSgIJ3Vql3myMmlozGAS2zon7UVUiJDntMhr8C34psj9RI8+B7BfNEh9rsdxgF2zpQQTvBdu03ZpWXFJXrsLVnBEZP3gS0wLD1w8mSJA+QGEe9YvyYtHMN3dSh6aAhweAww7y9slFuC30krQEp/gZAhnkmQEhNAAYr0RUw4Hzlr4KRo0X6twBL1hpQNB8+BugNKNBioLf5+M1XBCDQn2RIfBNSu6MfQA9TRlsg0L60vqIQ7Fd72dqiAWdL60aTYq72nH1uHjQLwAv/DE65QDKgAnDyXxCVoa73w3yAWePVDmGSlgadzMs8zYeGy/7j02M+PdFIoH+fAQSOiaIYVq14OCZNnREjho+MRx66N/bta+t3GgTRC/v374uls8+L79/61UNRDDYLZCpdp4WErB0iUCA1nBfQJpDB6zOf+UxP3umq7nFAgRMdIFQ+CMfBJq2G+EsUAICYhUj/R6LgD8xtAOfRLn0GEKbPmhtjxo6P5a0Pxthx44s7GTZtXFfMv7+ZGJYtOj/ue/zmWDjt9GjbtytWrH8wdrftLFRX0B1QABX72y1bwlwsBDsUpJmXNR3tzVH1f2QpUAGE1kKSIul4H8rZDH1G0svfPMB7Es9P8qbiJmGiu7b4AFALy/JX7yppal0Soax9Ck2DZ+v5IAD/VL5p7yd96oeUpwD/JEUSKClaSCOTAJu6eQrNI0GSSGlP0o5fuwOlzyUxapdUTsqkVqaBLI+NhExFTi3dG3Zp2gjSLNW48fJ30C+TSW3JC4mo0GmB8kZLz+U6OwudfY3GVqa1/vygm4gSUnOZ1tqlTk9fB/+X905qOqy3KAZmEt+TzGkUnLnl/ZbzqddG9pPf5bOiGGgUaA3KmhXPlUvSptwfTZC9mW2W90EtbfOZss9OuY9m5lF+vpxNktahdl59BhA6O2r7G0AYNHBwLJp2RiyedkZcfc8/FeBA4SjlQPLSZNpXKsJMoGFxqaAcEsdi0owjyy5PvNYrgNBaMDl2d/ZjjI/6lA8Cpy522Lwel+mtJ2GODl2HO0ZNHesgz5TL1La1cf3eQQyJqjfvYnAo0/yxoZeLZzB/wL/sg6AfFxYp1pqTIhODS4eYKajtaQzN0+fU8cwazB0YVz2nTbZnYIYKm22ckMFpkNq6PDbMnJ+CmPxGoYTdeeOENlK7U3/7TfXe6C4GpgXzcWeFNeNHYp0JQOzsck+87nWvK4BWIxNDmdZU/vxPzNnzgFDSOudgDYEywA8tMg8CEObMBfby/gsmAfvJulkDZgXtOpf9zWTBF8A+BChpC3yvHf0Abxgp9T1gxu8BQAB48oK99Pvgb2ItAABAM1Mh68d62RdMJvwVACr7U/I8+yBDb70b+mEW48egjrmKiPNcrj8Tg36A1HSOBYo8A1jZL+ZtDniNdUED+8R47Vd8p2yWqABCd96SLp7tKorhSHiZ9uLwq6b6mAInOkBwFwMmw7HL4VzOg0BSxdR5vLP5ss3Wk/KbXTJOZA5XByOmqS0HM0cw/WTGu7L0eOGFFxbM24HtMOdDxKGxFiCQ1jnkYYaYIEbAz0A/mTOBtI1xaguYYB+nquZ0R4LExPPyHt9JDkTLUGvn50vB/o95YUaYFiaI4WAA5bFhfmXpvVla1ZNaZUU0d4yHwx8mL/8AB05CTbl41nhoATA8eRAwd3RRxw/nQJqSRomS5AhIWgMTzLF+m6+6aJ0aJ/4e8gqYL98AWg205PtAQsZYMxlWOnfyRbEfnNlU+TQyACTHRutiv8l3wPeBcyRQgVnqB3jBlGmD5MpwOyVfGgw7L+2ildCufeDcN0/MF3AC6oAYfiu5D+x3bfBfoOWgIUFrDByQ1Y8cFFkH2LTX/I9OtCc00cCB98l7Y18RPjNBH6Bhv1kX+9mc0SC1UeaMPhwes/QZQJgybWaMGDkqHn/s0eJOhqnTZ8dtNx1MQ9nfNAgtg4bEqbOXFTRevu7+wlmxtkCm1KY9Cd063Be+qndsUOBEBwiVD8KxsQ+rUXSPApgop8RmLjwCLgA3CaPqXQjWvZ77/uk+AwimJorhofvuLDIpLj3j3LjnjpuKGfc3gHD+6a+Ke1f9LDbvXB8vPedNh6IYAAKqQ0gNAqVuohIjyZBCoFSqI0i7N2KX+347VT12hwIVQHgqDwKplD29USEJNsrb3wzNSVwkMZIjoYTtm2RHtUqFnDcDlttShxSY0RMkL+OoZ+og0ZMME/DTSugntR4k6eyHHV64m/eedOtcICmKavL+m2ejfqjXy2ZJf5MY9VP2paDW1j7JtTd8EEiftBnpU0Ey1X69NSPJMuHQuKBvagnQnpSeV3l3NrZaWjsf0YbUjDmXaW3NmDC6ug7cuNAq19PfpGxtNlsa9QMIMIM0ojWB0J7obI/nGGgE7AGgoifFfEVfMD0cLj85KgBhxMjRsW/f3tjX1tYvAYIohrZ9e2PprHPjB7f/70NRDFSBNqdFy3u5HUzUPDYelSQVEFtU2j17skGqusc2BSqA0Fpc/0uNL5TMAQ8wO0g511HLUxNTvfquJz4IDkt9YdoYHQbGjqxdv/k/lIsDne2WU1nmQaBaVrdWbc92yzeA3wI1M2bG0dizGY3kO0yWWl0a3ksvvbSwx/NFICjoB9PFaDgs1uvH+Ni/87AXL4+RUgln7D3VspJhb4BCb/ggsKWzywM5AI31qeeDgJZpj5dWmaqcfwc/ArQ2ZuYJam8SOFV7vVKmtbtr2PdJ4kAG4Sppra45Akd5pbTz1XowATBL8AthdyeYGbszmMmBvZ5fGLU+cOYzJiAmBnZ4JgYmAGczoIPO+gCMME5z0wZmftFFF8XnP//5oo7PrYfznLlF8T8wIgRTG0wm1twz2vOdPQrEMhMBCd4JZjdzZjKxZ8xHym19mreIN+Y59bTFjOFvZhYOrfJwvOtd7zpkgrHvvVdAWjMajT4DCAtPPjVmz10UN117dcxdsDgevPeOQ/a1/qZBOHfhC6J17V0xf8qS2LtvVzz65P1FHgSHjk0A0UmcIbbVwcQD2oJCyOkg0huo/9hmj9XoTnSAMPDJFcXeB5Axboch5zeSO4cyEhkJ3kHaSKJuZhdh2GzagAeakz4d4g5hDnek91rpE6PDmPT7qU99qrBVO6Qxcwd0uXiWVgBTNm7tO8z9Th8ETAYjwpz+9E//tGiT45y+nQU0AA7/vDMA46ztR5/s70CF+TgvzM2YgCeRGh/72MeKfpTeyoOgD+DKOgBAbOT8IDAgzL62YIDm5G4EdYAkznLWVh33USST91m9Akgkrc0LA1fHGQoUoXVGUAAqmCpQgTnmvQc0sbRE6YOAKcofkJdXARyZmZJg5nmM99WvfvUhh0TgyjMYq7r6MS8F8NE3mnvGejnfacOskT0NJGkTwLH3jBvYoGnyN+YOXHz9618v1hSAAUjxButnPsZrfwF/9pp3guZIfeDZ+jB72G/ppAiI8IvJpFR8HAAgmiw/fC2aKX0GEDobTH8DCAMHDIqFU0+Nk2ecHT+884rY137wKlebGxq0KUgLudgW2kudqkNOP1UUQzPb9/h+5kQHCHwQMqFLOuM5VB143gHvi/eAtOigzMvdDmfVtZXagwzlqu2ntl3rYxzqZaid99dYaguNoM8953nSnb+TWesr55NRS57J73NuaQJp1I86SZvyfLST3+XYjN+Z0htFW0rOzVzNpx4tzM965tz8Nh+fJQ3Qi8TbKNkSeiUNsh/7QJ38P+vmPM0/aeozz5bXOtdR3xnqhz76SlNNXrvt+3K7uS89xzEQSBJlkPNI2vvfM7me/ldyHYzZZ+XzPfvxO6+GzpTgOZ/8XaabMfq8tiRdyrRO85q1MN9cm672RgUQuqJQN77vKoqhG01Vj54AFKgAwlM+CPUYrkOS+aE3ilBKGgoSFqkybdrCDKmU6+U2oMkgWZLMFJ7fJLvarIu+ow6mjci7WDyHwR1O9sfO+mlEi9o65kfbwOu/N4QNWQoxr2Yc80iopHZ3QWCMIkSyMLNQ24vkIOVak3qldj6YIWlZ+CvJukxrUjdGlpk4O9sveRV1vWcAG8Jblkx9rw4a0iJ0tQ+yrmiKNAU14x/RG3s820gfkNo2ARtmhe6Axj4DCBIlRQyItU+sjPmLlhTXPq945MFiDv1Ng2BOcyedHBNHT4/blv9Xb6591VY/okAFEFoLJoZRUKE6nDFjUhEVNbVpbVrjw11+znHs+9LzYl5sz1S9Dn0MpvYyHdIX+zHQ76phhX0ZE0k7f46FBjAvZ2Knx5zlDcDUsm53xt2on87aqK0DXFGhG0N3nPA664P/QarnO3tOKCb1vxwQUggDFezs1OpMDD4HHgCtRgCwPB/hnJwjOYJaO/4EmBxaK0xHxiV1sd+kZZI2Bo0O9hRQYe2ZcYzHftC3H34vwg/5RRi3OvYElT8TkfH6npnAfgCWyvvAe2wMfEf4iNi7QCffBw6VwlszpwGwwVTCZGI/MrHwP2Bmy1wc8m8Alvagd8Gc/O1Z2gHgCXgBRtHV+4NGzFsAbd57Aaihm/8BMXTjA9MdZ98+Awg2qlTLQMFJS86IwS0tcdetN/TLMMdnnXRBrNrUGuu3Ph6/ed4fxj/fdHnsa28rYnQdeuxaNjp1lo1B2sjkHl5Ch1YjZN2dg6Z69timQAUQWgtG7V4Cdnm21cwoJ/7cIZ5MoCcr6ewhPTmoZdFjF2f7R39+Dmzmcg6Ui4OZfZkqlp3d85yMvcO1lzXRFIh/995iJBiO+Hd15QDobuGXUa+fztqpVycT5HS3/3rPo5Gzin2/qwIgACV8PDB1NHDuYdiAE/8M9vH0z6jXXnk+oiFoDIAwPlt8N9A6QV0CBFoJDB8D1B9HynRcBJbY4fUNtAADtEciBTgMOoNpSOw/Y7YXAQ6OifoFGjghlveB5EMAgbFh6p7NtPn654AOBBifS5OMAXjUr5IXPCWgAjrQSAZMUS58LTIhE5ADgLz//e8v9qPcDwAFgMCRF034PhgD8CVaIn1i/LZ22jtmAQKCCHNc8cgDMWPWvJgwaWrcecv10d6+v99pEE6f88wYO2JCDBk8PG5ffk3s3b87du3dXnjyklqAgwxBcojkzWuAA2ejD37wg8VGrkr/pkAFEBqbGPr3ylez600KDpLVLAAAIABJREFUkIwJW5kSuzfb7k9tcaSkbeiOA3yfaRDcw8C08MiD98SCk5bG8JGj4ubrflyYGvqbieG02U+PxzY8FPOnnhor1z0Qe/fvid1tOwpEJw8CGyg1lYXiDQw5Uj1B3ZAiL1pezlXp3xSoAEJjgECCT+ex3tgFVMPpaOY3FTW1LWmzUZy4OhwCMx7d+5u3QdaOybMZZuY7/1MHp09Cd+bQWT+N2qmtQ/Ik7TpjmnVI62yMUixrsxn1tLGQwGlB2O6TIdnvzjo0MbYMyavXbz0aoGnmryjTOlXx9ktXzM88GuUXSEfDvBExx1W7D5pZy3QmzGeN0U9Pcxs003dvPtNnACG9Rg9dJmEWP78utL8BhEEDB8VLzvr9mDVhQXz1J/+jAAeKDYwODp30Pi3/TRVFLZXeyb250FVbxx4FKoDQWoQS2vNstWzHpEBmNvZUqtLeAsoct5gBMHiHNBMee63YeOFxtbenek44m3ruFFA8R4XN8a9cqJ+ppamQhQF6x6XG5VPRmRq90Y5s1E9nO7i2jvBMIIhauadX/urXecVW3ujuhBybuVORy/NPJU/9zezCnk+1D4xZYzZ6oZ2NLuAqz+ejH/1ofPazny3Oz0wfnLTWr3OTZtZ+sbb2EVME58C8wErYJJW8FNaeYZ/3OxNVMRsZI4FNf3JV8FdgeqrdB0wC/Ahoe2l9tUOoE+Yohw31PpMW0wUTgznyX8h7IY69k6jxiPoMIHRGlP4GEMzViyLcsb3jYExyM6XWi7aZOtUzxy8FKoDQWnizS05z2WWXFfZXdlZaNIcvZsK+29PiXZTDgI0WGMnEN/rjk/DOd74zvvCFL/xCN5gRhzqS7ic/+cnikiIMBPNx2JdLJrLBRHnsYzp/9md/VkjKCS66MwdMpl4/nbVRrw6TJp+BnoSHlvts1kkxIwUwZQyGoyYbP/o446yB5D1/9Vd/1XBK5fnwHZGngmMebQj7vrbyzoD0QcC4ATjaC2sst4C1oRFgg+fXIi8Bx1fJnDgRAhrpg6BtAIg/jFwE5sHhMPeB8doX7nwAAjB+wIBPAOBi3dXRH0FYZAw/GuBR7gcAAUg6nkqfAYRZcxbgmrF61fLCWXHXzh2xasXBJBn9BSDYtFRjVako0AwFaI+OhTvfmxlrT59pa6PSPxhLr+weNz3kQXAoO1ipcTFyjJH0CyQ4nBzQvVFIfCT6jK0nXQMgpD/OdLzGay8dwlSorNVLNTbAUO/+FMzTmDEQqnPPmc/hhGlioo36aUSLenXKoXY9paG1wPSaycrIJ8C6mjtwkuurPgdR3vjWuzPalOeDidP2AAj6z1ssMwcDgMBsC0ToL01IvjduTJ/K37tGc5CXg2X+AUAub9AtnOkXLy6cFX3Peby8D9DR2LSTabpFGeiH42Tuk3wu95Q6tBfAyPFU+gwgZBTDE48tLy5tmjV3Ydx92w3FRuovAOF4WvhqrBUF+pICjQBCRus4iBrd7JeHbTlGvbtjJ8FiBACCswgIccjz6vZdPcbHXwhzSz8CTJt0WC+3AadjbeQYPQcs1AMTGV+fjsp5L4vPMVEMNBlp7TxJxhie9o3NGJ2haMcckuYEc6QxkXOgO3HvjehKQiYAdWViKAS+kSMLYCWPhLHlfRSYsIyKxiQvBS1Ro7HV0jrnQ6NESi/TOsesfeCgXvKm7u6X6vmDFOgzgKAzUQytD94TJy89M8aMmxC33ShpQ1sFEKrdWFGgn1OgEUAQo41JiHunfsVgMTr2YqpkKnJJiEhrXV3G0xkJhZ9hmJgxRzsmDbkXMGMhd67sLRdA4i1veUsRD8/EoEg3TCJ0RXS5kBqFxKlD7Y2ZXXLJJYUmIe9xyOdJpcwZwtSMCaNnVpFAiB+EkDrSKxpkKuFyX8L/0AuY0C9G+o1vfKO4ewBwyaREAJDvMM3DSdZUS0tRVfxCAB5zkLa4XjH3N7/5zUXuf2YWY7NufAEAmkwtLTyQdN5obGVaU83LmYBZob/fSWtjYFogvfO3QJveyp3Rz1/JpqbXZwBh7LgJMXfhyfHA3bfFlOmzwvXPrnsuEOcbZ8bOv3/ilwZMlcRO2BsIuClqVA9VFKgocEQoUA8gxJpH4w//8A8LhuPgp00gAZMuxYqTjl24Q5qmFj5cgIBpASJsx4AHhsMuLr4eo7vwwgsLX4GyrR4DMjb9YtyYsZwNGK+8DbUAgVMdTQOQw8NevL/2ap0sjYUd3CU62iPtMqMYW975wOTBPFCbtdCYgAr+EIAO8PKd73ynuAcAgKJCL4MKzoL8O3pajBmDB07Y9eUQ6Mx/gN0d4wd+jI2zIpOCcYve+sd//Mdi/DQSjRwo0TNpjR5MQdaLBgO4QGv+I4qxZQif5+S2qErvUKDPAEJnw60AQu8sZtVKRYFjlQJdmRiO1XFX46oocCJToAIIJ/LqV3OvKNBHFKgAQh8RuuqmokAvUqDPAMK4CZOKvAdbNm8s/A/2te2N3bt2FlOpNAi9uKJVUxUFjkEKNAIIVOZs7q9//esLlTofBKYFMeVUx9Lpsu9zSktnt8OZnmuU+RwwGVBDM134X0pbToqcFcuF+lveBDZzKnKFGYDZIMPr8nnmByGF6oijp5KXapkPQm0eBOYU5o0PfOADRR1mA7Zz/XBQVEc0BNPDv/zLv/zSVPk2uKoX3dSR05/qHX3KY9OPZ+QDEDIonl9MPn8HvgS+Y7fnl0Hl31WRh4C5wnj1m/cG1NYzd/kDmCKYIaQ7dgcCHwk5J9CaoyFnSyaRRlEqZVq/4Q1vKEwp6nJ6tD+S1tm/+XCA5CPBb0UaY+vGnOQ+gowqYXYxHlEFfCKEKvrOWJhE5LGoylMU6DOAMGrM2Jg6bVY8sWp5zJm/OEaPHhe333JtdLT3n0yK1caqKFBRoD4FGvkgSCgjrAxjwbzYpNmYxZnzhHe484p3eB8uQNA2R0cgAfPFnD7+8Y8XjJVfg//dclcuGKG7GIQt8xfg7Mf2zi7OAa9cfCeunvMjHwTjvvjiiwuG76Kf2iLOHvPMOgCGWH/11GG/xwA5+JVLhuB5ll9G5tr3/DOe8YxfGJs2jVUoJwACCEkkJHIDUwQsMFptYeadFf0+97nPLfL9s/vzCajnQJltZB4EeSOAPIDI+pkTWgMowAq/iUZOinIoJK05ZPJFAzLSBwGt854O8zIfdXwv/4C1+9u//dti7/DnMFeg5j3veU/xmb1mHtoQoqqevWFMVTkKAMHmmLPgpFi/dnWMHT8hRowcXVzcRJNQaRCqLVlRoH9ToJEGweFMKuSITGom3ZPoHOAcC2+++eYi2YzkOl2l0e2MgkIKSYwZD4/BYKKYBcmzFiBoSxQFx0nx+pix5zGVekAFqAFuMhVzXsxDO1IuQh9pLoT6CR1UB/PCoDDETC8NAJhzbcHQSeKc/DBN0Q/ox6mzPDYaBExd7n1ZKs09r2HmLCh6Q3y/MTSTjArTVzgHqidEsVExP46a5s75lKZCP8APWou0kBMACPRcvWKsOR8gg+MhgABc2BfoljlEEpCgo7mhi2doCvRpza0LGtCYGJf1Uewzzp7GaCyNxtO/387Gs+szDcKS08+JJ9esip3bt8W8RafEqFFj4/abD2b5qgDCibr9qnmfKBToygehq8Q5Dvie3CmQdyVkunPMPq8CxiBIj7UFE8YwMJYsjbKdZux/Pqd9jCnvLjB+0jyGhDnlb4DIDwACIGBokgJpT9+1Y1NXm9rzPcGLhA9gaUPoYNIy+6nNpGhsntdXlryHIJMQ1SaNMrZME69OZ2AtExABOfrOXBdlGqAtmjfK8oh2OZ8co/WyBwAUNCiPwfi6uifC2vnJ9M7mnIBRH0mDbN//jRKZZfKmeu+vPswLyGHyyHZrn81+jmVQ0mcAobODsAIIJwqbqOZ5olKgEUCQhpb9XF6AVFs7OEn0VNrS4VLtk7h7cqeAWHnSI0aCYclPQNLF/DFoEnVtcYUv230mPxJK59CvvRoa6GCjf/e7332oCSYM/gikWCXzFmQWwQQL5o9hMRGw8VOT8z2QiphPRu3YmEpI0fwyaA8ACfMhjWNMVPbCM10LDCjoJ+nGpOF74ZXCO10Ox67PLEIzQZOAqWuzltZMJVIVs9Gz97Pzo19tKGbmgDB/9xkIEcVkSfT8K5RM9FSvnySgPsyHSYMZSj/oizY0BWhQTogkBNN8gAYgifaE+cAeou0wLqaWzL3AN4HWxZoCKtYqUzrbG3I4SM8tpJUJA5BgftAOpkkTIn0yPxI0obmwD4Ag39tvxmju+gGI5LZgCjE2vjXZD3ML2uc9E/W0WUfr3KgAwtGifNVvRYETiAL1AMKB1Y8UF/uQDB2uZR8EanxAwb0HDl0HLNX64RSHOnX1m970poIRiLHn7IfBMR8ACbW2cHUwSyCBDT1Lo3z67pQAZrJgqFLwppMiBoKxUZVLzIS5vOQlLykY38c+9rFi/u973/uKeQJEmAkGh/nn2IwJ08dgqPqZX9Qxfil8HebU9+6W+Ou//utD/aQ2QL8AA78LTqBMOWgh8RPfAMxL+2z2ZVrrF/Pi7ChXA6aon9e85jV1/RdS5c98BJRwFiRFA2foxOFQ32jSCPShVc4n71OQPIkvBSCQAAC9mSvsF8w+/SuMzUVR5kuKz3VjNkp62hM+931e7nTDDTcU64LpA1J+2zfAG+dQ/QNUtCTGDzT4cdkTkAvA+d5lVAkO9ePz7373uwVgMTdt5frL++EZWh1rWk+bdTj7vjfqHBMAodFEjkaipNGzl8b2VY3ta71B9KqNigInGgUaaRBIiZhj5s8nZVItY9wOYKAhUxH35N4KDBej1BfJM/0R9Itx1UuJTOKk/jUGEmTm4KfxKKvnrSU7P+bkkDdO4AJjSx8Ec8J89eNcw/hJ0CRaDJgTH6ZPhe7Hs9qqHRumS6ugfXUzvXD6LqCbcWOintFPStq0EsCA+qmuz6gOkrdxGJt2U9rPfYqpoRVbvTGYF3rUWxO0RrfsAwPFqNFfHTQwNmvQSL2uDfP3rL7dAImegAbgaA55l4NnjQuw0ScfBAAEo031PlrnvNPXQ3t5c27ZZMGsY2yYo7a0mU6N1sazaKVkPzk2/eknTR72bpqDrEX5jgn9oDWa01Klr0St38rRPCv6DCBMmjI9JkycXKRanjVnYWxYJ/PXwWuQewsgDJs5NQaNGhF7V68rXuAhkyfE7uWPx+jTT4qdD6+MwaNGRPvuPXGgvSMGjRgeg8eOKr7Phd6170BMOOXZse72K2PE1PkxaMjw2LmmNaYte3nsevLRGLh5ebFxOrsdDUL1vRc0N8DRXOCq74oCxwIFuvJBOBbG2N/H0JuXN/V3WlXzO0iBPgMIBcpetCSWt94fQ4cOK5Ddrp/nQegtgDDpxb8SQ6ZMim0331WAgIkvfFbsuOehGDBsaIH4Ova2xe6Vq10qGVNfdUHs27glht3yQCyeNrNAijffcmvMf8m74tH/+7lY/IqLY9N9P43dGx+PoeOmxraVd8WY4UMKdRYUWWt7MwconvqNukiIEhsh1VVVKgqc6BRoBBDY5oFuV+p6Z0i7JEThjdTa7Lfs9CTNw021jPaiGHjB8yHQFtuyPAfyH7CPU0eXi3f5rW99a3FufPGLXyy+ovonidaGH5IQqeppEPJcWLZsWSH95iVQpFyXFwnBo25mh+edn5J2qr7Ty9931NCKMVCZi0gQ3y+Hwzve8Y644oorCrU6zQMVuPm4elhxvpqX/qn1+XfQcpC65R4wFyYQtK2de729yszCNn7bbbcVvhxMFH7zfSgXY33lK19ZaCrcOUGtfvXVVxehrKRkNEAjqnbjaHRBV5nW6GWd/FaHzb5M61wb5ht95A2dzA78Cvwm0dN80MwwAaAF7Qc1P/u/9rXL1+UTn/hE4VNiv5iHcFjSv7r2J9ryMUBr6yrahLZLoW3wmfXDJ/h66Edd2oPUwBhr9kObgv/Ym0wXtTk5aF/4ingn0I/wqX37i6nFntKnsdm3ij3hGSa13Af+tx9Sw6Mvz7vnolHpM4Awe96i4ornjevXxqjRYwsib92yOSKe8qStHWR3TQzjf+XcGDJ1Umy/64FoGT82Jjzv6bHjvodjx72tsX/bjhhz1tLYt2Fz7N+xK8acvTS2XH97tOzYHS98/guKhQMQ5l3wzlhx5V/HnPPfHBvv/lHEgIGFJmHHEw/EuNEjCgcdB5WNVFsQ28EAIHgxUvV1ojOHav4VBRr5IDj0HXrOAwceJ768i4Fa3gHn0KWCP1yAoG32awexvzH5tLdjulS7tQl7ePqz5WdiIyCAI5wD070N5aI9vgqYvvGmSt85kHH1GJR7CNjfX/3qVxf+BZzv+C1gtAQPB73cAZwg+QSwdyuYD0aOSdGMYnoOekyKGp55ABPEhCQ9KrSnQ4YU9WgNnEPaciGWCAntUGObtzl96Utf6nSDYvrWCAjivOcMRC+XWbnkqtbckj4IHCmNFbhAI+cjGgArQAvGhNnVK0BG0hqDNAbJk9joE2BlHgQM0Hy0DWxivpg9/wFrDgilo2OtDwKA5XsOhdYAeKn1QXD51N/93d8V+S/sQX4x6YOAntb4c5/7XOEPwvdAG/V8EIwXf7CXOVvqx5pbf3uF5hngyhszjT1NO4Cy9bJ/1beugDTa23N8WozNvmAO8R7Zc37nPgC4+UVIZGVPWA+5Iswh9xln2bLw24cAYWG0DBkaKx95sLi0SZEHQaKkRqW7AGHkSfNj6jPPjJX/+IOYfOaS2LVzd3Tc2xpDnn12tD+8IvYfiBg1d2ZsvvehGDJmVLTMnxXbb7wz9v98DMMnzYmxC86K3etlJdsfezY8ETEgomNfW4w/5Zmx4c6rujzpl519dixcsCCu+Pa3i4OgmSxlXTZaPVBR4DinQCMNgvwBmBxJmvTHJuvgI1liBJgJRshrvhxu2F1yOAxpEdjWMXtOeA5J0iatX212RO1jbgQHBy5bMwkQg+HNX1swIEwGY8aARSPoRyZBtnf1MCDOhJifQxjwcaCTUPXhf/Uxemefull8hylhPMANaRCNMApzI12WBRLtcBA0LzROXw7MgOmTlMpXATNvlBWxPEdJphRM3Y2TbkxsZGqVFRNowZzyumf9YGZoYF6AEObYyK+E7T5pbc5ojm4ZmYDWeQ03MGA+tAIYGq0tmmKcGXJpT6EB2gI46GN9CHo+w1z5LGSUAp8HWhv7hM8BAEbbZR8ANWhubumUaG4YMgae/gqAA1BmDOimLcxa/8CLsWor82Jg/No3t3LRrj2awArdaBvsR0U9e05ddPceWWfgD71yH/je5/a13+qjQ2cJyPoMIHT3hfZ8dwHCy8aPj5ELZse+VWti+sBB8eDu3TF64MBYLC71wIHY0dERO9rbY0VbW7xy/PjYuH9/fGX9+ni8re1whvdLdV44ZkwMHTQoFs+fH//r9tujrRRn3CsdVI1UFDhOKVD5IBynC1cN+4SmwDEBEEa+ZnrsvOKXU1x2FyCMY7Zob4/RgwbFTt7JAwfGFqmc//8Qol0dHTFs4MDYd+BAjBg4sPh+6IABxee9VVh/tL33wAGKhwog9BZhq3aOewp05oNAihK7T0IimZHoqJLZgEnaVMekr0Z5+5shDumSVJmx8NTKJHAx8q57ZnMuF5IkswEzR4YqkvRIbrV3JHiWVEh6FN+u+JsKPtX3pE9aAGF9aXpgh/cc6Z+6mUTOzk/FzCdDqGJ5bGhz2WWXFWmczYc6mG2a1oUEbGwkYn4KQidpFIwt1fhC+syZep8q21gwAKF9TBrC/9jpjamW1nIa8D9gv6cFEOZIEvVZLd3cQyEc0pXXVN8kfdoAUnbSgLrbfBqZGJgTaHv4Olg3GgLqdlI71TuzAw1BFtIyNbw6/CxoHUjaxmjOtFT8O0jY1pzkzxRhTUn6VO9ogPaf/OQnC7OI9WHuoT2xJ40VbcyF1kL4ZpoUfE4iN0faHRI/GmpbP6R346dJsK+ZtrIf/hnGbl40DPZ+ufjMOFOb5p0wfnWEnqYmxhj8pHO88Qu/9P5Yr8xFQaNBy5GZRLXTqPQZQJgxe36MHDmqMCtMnzU3xk+cEnfden1B0CpRUjNHXPVMRYHjlwKNfBAwgjwYqfOppfMuBjZXDm5+e+ZwfRAchO4/wJyYKfKA5OhG1cq+zsmvnKlRHfHvDva/+Iu/OET4enkQ2NeZQah2+RRgfJdeemnRD8ZaZIsdObJwKKTyxWDMiclDHSpepgZMDHhgriAcYdyYTXlsmDv1vvlow5gxYAAnx8Z3AqihkpdoKDMO+py6OvMgABmYBlCTtmf/U/uX80IAGezk7OeZHAgw4BSpn0Y+CJgn5so+r190QAOM3dwx8kZ3MVCLY8ps/2lrT2ZvMTBVc1O0heFJaMTZD8PDhDFUAMqeQlN7CVAr50EwHv4LzDZogBa1PgjAK1u9H+p/DLrWB0FCKBdwmbN+9F+bByEdOwE5Y6v1QTAXwC0dW+1542ei4ghpT6YPQoIkNEWHHJu1tqeBP+AWSLH30BCzZ05iAgIE7VN7y3unACLAWIJcn/UZQNCZS5pWrTiYsWzZs38tfnbd1RVAOH7P/GrkFQWapkAjgIAhsQVz7MOYMG32Z1IfZsnDHHPyf6bsbbrT0oMOVo5+mCpGTOrWD8bQKPwPw2B/djhnVkLM3SFbm4rYs5nPPxPdAB7pzOyg1Q/7OKb5/9i7E3g7q/Je/E/meYIEkpCBJBAIYQgQZhxxqlgVsFWrtbW2tb1WEW2L2qr990qvVZyq/V9r0VuHXr0qvSoCUhkEmQmQkISEEBIykDkhCZmTk9x+3/iEl83e55x9khxCeNfncz7nnL3fNT1rvev5PeMCCsxdHYc8JmWepFDAAGNIHwNMLwuGhsGTdM0H4wUSOHgaG20E5uSQ5+xp7JmCGFjBnPVFAgdOMCvalEwJTDKmrSn7ewAIJGJz5guCifDOx3TqJfUh3QIt2ibRY6qkc34mSQMgEKPOXAa1awoAoDmJW9/6BVDMx7wBgmT0+iORA1OkZxI7aR3tMVVjsJfM2/e0SJgjWpsT+qMnGpgrfwltc7LUlnmgqztBzIF/Qqa41hZAkv4j9pd+fK5NkWz6QQ9jz4uj7AP9YOR5iZixaQdtywWdzUedpJt1BwCAM3PwjLHZ29bVXLRrfxu3MQIA1poGyDP6Ur9WY1Huu9MAwpAjhxXhjSuWLYmRo46NNatXxI7te1NvVhqEjhx5VZ2KAi8eClQ+CC/8WgEdKZ2+8KOpRtAZFAB4AHDAoSOl0wDCaVPPL8Y3f+6smDzlrNi+bWvMfOje6rKmjqxaVaeiwIuMAo0AQmaZozJn081seyRTqlHSM6mLdLU/dzFQp/MTIJ2RKP1PgiN5krTkRSgXB6vc/5ljwHc872kdqHPLJXMmkDYzjz7zBMnzi1/8YvEo6Z6kqx92Y/1qj3RtrmzM+mTSIO1RhVNR0wLId5CFGtv10/IEiFBg7zcfmghjEzX16U9/ugi5c+WxOP4MtSSFkhxJlCTzvOyJ1obEzsbOc5+0XpufwN0KwAXtCc0HU0ojwJFjY36gVuexjxbWEQ3kkWBCoClpBFjKtKYOpz0Sqqp/9EODcqE2p7bPm0HtHfOiivebJsE605wIQaedYCZgn2cSIHGjAZU8Pw9jp/XwHe1DZjq0P7XNz4PpiSRvj2pLsZ/Rl3SvL3TynXq+o80hydNgZT+0ZynR20u1WT1J+pmxkaaA1kXbNG7oac9pUx+Z4dF8+aDYX+huH6uT/WdWUc/XyyKatO00gNDaeVZpEF5kp3013IoCTVKgEUBwaDtQHZ7lPAiYrcOJjdR3DvqOAgSHLnu8Q1YsuwMfw5FrnxoYM/rUpz71nBk5lPPyJYzAQcoRjgrePQ7lgtmw7zOHYIbpjMd2DfQoVNLi6SU/yiuuJ0+eXDCSBAa+QwumBowK8wRqvvrVr+7rLu98AG48o1/AAMPPsfnMPDEGzCzvVXAXA6DFRMGPgVkEg8PE0Qfj5hxpDhmLnx1TmbtrgJnCmKj4ARDpm2vDHTMPAns8RznMPG/RRAOJmbQF4DQCCHxTcj5pd1fne9/7XmFKKN97gfF5xrisqzYBru985ztFsi3/u3iJeaU2DwK/BTZ7TnxoIASz1geBsylnPwmqgAH+BrV3MRgX0MDXQT/18iCgK/MMgMUBNe9iYIoyToBNOGeGb6I5kALgMC9YK8W7UM6DwAchxwZ4Zh4Ea89UknkQtAf8AYGZX8FcMq22fWxMZUB6SACELv26xZ7Nz8+H0GwUQ5NnVvV4RYGKAp1EgUYAQSY40oxDSk4C0rTDEkBwmHLqI5E62Dp6iQ0G7HB1EDvw2IkzMx6pE5MgadcWtm82W05uJGCMCIMpO3FlHSCDvVcBdDBfICOTHWEKbOiYlsMdU02bOns/TQFggAFhVuzsHNYwGsmVsmDg7OHaSyc/zBcTMTZjBSJoOdAN80iGI7KB9Iz5Y74ABk0FWz0miU7yN6BJrW8AhosJk6hJ/9oxv3p5DDBUc0I7YInWxngVcwaEJF3ifd/IB8G4ktaYrugJjE0EyXve856CBpmPAjCgWUAz66s/kjUQQZImoQNlfAdI4OaCwdsHmZuA1gYNMgoBiJJJE2O2P9npOUkCq5hu3vGgH2ArcwpoUz80VKmR8ZnxWk97yL4yD0BHRAWmbA0APcw89wx6WRN1vCcAFeCkvwR/nsmrzNOXh6OiMcjDIwrDmnqP7GFgSf/2qL7Mt5y5UX9lp9NOAwgTJp4cXbt2iYVPzI2JJ02JrZs3FWmXWyudARBGjDgiBgzoG/Pm7fXkPH/EeXHvivvi3IumFimZ7/rl/XHeRVOjb/++cctP74g/POk98W+PfqeTjtWqm4oChwcFKh+EF34dAa9D6SKgF54ih/8IgMdM6tSR2XYaQIBMRo2dEEsXPREDBw2JyVPOjntuv+l5ITLlSTQ5vMCFAAAgAElEQVQLEKa++fdj8IhRcfu/fSl2/sYB8owzjov+/fvGmjUbYtCgfvHUU2432xkXX3xuPPnkinjssSXx6lefHsuXr42bf/lwfOKsK+OqB6jEusR5F50VD945I97wtlfHovlL4+F7ZsZrx1wUD656ONZtW1eotNqThawjC1PVqShwOFGgEUCg8ibNSP9KNeswo3YnCQtfI8GRrGkPatXezdAHcyQ1s8GSGrVN4iJR+c3DvLbIgkd6TAne+04aLMffp5THls2unFnwSKn6SYbMHkytS8tgHCTUzCKZN036jInBb7b09C43PjQg5WpXH9TFNCJUy8bJ94CkmNkX0ZEHvXnRJJDAmVjMHy1FQ9BWUFdnuGBr9CRNk4hJwfIJ8B8g5dfmS3DO53iYOpgvSNzOcvNAA+M3d74RjQBLmdbU7HkHA8nYvMu0Nm7zYeLJaBjSubHSQlC5W0c+BsbAHJN3GaC3NkWV8KmgReC/IbzSGNGGycSe1I755TXR/BS0Qzvgc3tDMV77i5bId/Y3TQbtBVr4juYg+yHZG0Pe11BrSqOpoR0h6TPJaTPvVTBva2HexmDdaQb4NNBKGX/uA3vGc2hAc+N3ajwarX2nAYQ+ffvH0KNHxJKFj0f3Hj1j0ilnxOzp97d6M2KzAOG4c14VQ0aMjhk3/Th2bN1SzPkVrzg1HnlkQZx33kmxe/eeWLBgeWzbtj0uvPCU2LRpW8yYMT8GDeofo0cPi5tufDA+cvrl8bkHv1DUveC1Z8f0e2fFa9768lg4d3E88sCjMWXYabFqy6pYtnn5PjVTMwdV9WxFgZciBRoBBIzAwS1dLAYEGDjQ8tATb+9wxshaSwnbGk0dhPwB2GQ///nPFwc81b3/mS4cttTq5eLgfO973/ucPAjU4g55uQDKhfmCWh/zLdvGy3cxYBB8GKiJ8z4X4AgTYY7AvI0NA6VyZhbA/BXq8Ey8w2+BRzrwgZmxy2sbqEBDvgfaLN/FQL1ObW38VP/oiGEy6XD8wwzbKsZkvPwUgBT98SfgaNcoDwLQZ93YuanP9a0upzpmHUyyUaKkMq0xaAxNeB5nTOaKMq3R2XzQCOgBJgBCAAuYsIcAOPkLqP7LeRD4oWDOzDrmyHRS64PA18LFTHxBgDSmkfRBwPwBHXdU8LXI5F7MY7V5EAiT9jombn/rh7kA00cfa8bUkPvcnmBe8GO9844N62zOvrfW9q6LsTJRFCBdzoOQPgi5z/lKoI/3gmktwbE9j9ZlsNxpAOGkU6fGurWrY/261TH0qJExfOToePDeXx1QDcJ5b39/DJ9wYlz/pb+JkyedWGwMAKFPHzbHDTF06KDo379P3HvvozFp0tiYOHFU/Oxnd0ffvr1j5Mgj4rbbZsTlUz4Y/zT9azFq3Mg488JT49br7owLX3d2caXUjT+8pTAx/J95P4qtu7YWL1c5X3pbL1n1fUWBlyoF6gGEWL6gOCQdTCSetFuTTGkOSKoOUEmI/L8/IXoOQ7ZstmMM3cFOciN1khTLdv5cIzZc0raD3QGOufhd794Gzzqg2eRFABizfkj2DnFzogVgeybRYxD8FgAU0qF++F2wH5N6Pe/eBiUvivKsZEgYK5+NTBwlXp9fRPn2WMwGaMGkaCzUwSw5wgE5wAeGmpEPre1LkimwRPrkjOfcMy9gpt5tjCIK8j4CjBxt2erRBlihVeA0SJLPi4Jq+weaktYyWvJb4PtAE4IGaG1OCiBiPuz02kcnc0UTvgFoai+hL8aI3mhqfYAt4EJ7gIO5AiLABfClLczYPmT/1xYmrn5eYsUvAxPWF9CpH31o0/7WD3oAabRFKdnrh7+E/YCOxpZ7pkwPdE5tBrrRwFhDGgfFHDxjbNa3fGMnH4TcB4AGmqGjddGXuddmBi333WkAoSMHY7MaBKmU/+iS98S3bvhhbPuNBuHCC0+ORx5ZGBs3bm7XEPp27xvbWrbF7j3PT8HcJbrEcYMnxOPr9yZ7quKK20XS6qGKAoVZr2fPvaFgytbBI2L3U/P3K/lRRdbGFCClknIxjKq8dCmwv/vgsAII3X9jg9nZsjv2/OYaab4ETAtVqShQUeCFo0BbAOHjH/94kZu+UUmv8I7OgHRG8qQmJzVRbZO6SHXU3cLOakvWITUrpEGfUePXFiGRpE6aAYXUS+q74ooriv/ZpfXDPOE7kr1bEeVJMG9qa1IvbQMVL2mYdrJ2bMIKaVNoBUiK6phDSpH8I2gvzIdWg6d/ptLNMZNcaU5obbIQxkR2CIXk8V7r73HllVcWfhGkf2tBrU2CrReFQJ1vPuZmbHktc5kG1NzGKtKhXkFrzCnXhcSeY6Mx0GZqENSXd6I1UwlpnwaJFE2qVmiQmHuYFRQ0oFlyhbWwRuYRfgy1xbxFk9TmYvBc9sNERAskZFA/tTeRei77aUSD9ux1a5nRM+XnaRj2N3eI9joNIEycdFphe5k7++Ho3r1HnHjyGTFr+t6woEalWQ1Cewha+4woBs6Lc+cuKb56+TEXxp3L7o7f+t1XR59+feL/fueGuOA1Z0W/Af3ixh/dEn88+Y/imtlt2+w6MpaqTkWBw5UCjQAC1TO7pwMNI2NGwPSonzlzYcZUzaThjOdvlkYOY+p8zMGBjSlw/MKw2P0x0nLsdx70WUcuBoVq1jjzAqYcB1swpg90lH0Qyk58TBvZD+YiDJHKmg0YcOFb4LPMneAztvrasbFxs7NT92cMP+czqnrzYUtPR0z2boyKjV358Ic/vC/fRAISamZj5uBITZ9JnLJOzpGdnF2dHR79AAhjBRxqfRCYUjBW9n1jY7/HrIzFfJhOmCmMtZ6JQp/WW33MO6+xzrFZA3Z4an+FWl/7xgfkGJsxyreQqn7mFPQECpkSMHn1mGeEiAI+aAA8GKN1sT5MKXwQgDX5MAAi7apLO+OHScF3cmlYH/PSLnCW93DweWFOwHDRJwEcoMNRUnsKs0TSBP/zPHOS9WVCMHd8lBkKaLL35FdwF4exMatz4DQmAMf/eWkX3w1jS/8O7wWfkgSQ9oL3ES2ydBpAKEcxHHvcpDh6+DFx76/33nx2oADC2Zf8YQweMTpu++bn90UxTJ06MXr37hUbNmyKgQP7xtKle6MY3vrWC4rQxoxiWLVqfdx007T4xNSMYugaZ7/i9Fi+ZFWcft7JsWj+knj4nllx0ehXxfTVj8TabWuLTVAvJrrZA6x6vqLA4U6BRncxkOoyfhsD4dXuUGLnZU8mkZOm2ds7KmlhzmzQmLA2te0wFUvucHTYlhm7tSjX+fGPf1xIgQCL37VRDJ4n8XKOw2zYm7VNqs8cBA5n/TjMMXYOc+z6pD8HOOkcHThksmljDphkeWwYgwuSMB6fO1MBBT4cJF99mhsbN2YIMGCYSTcZFjEp4wSWAA3tcIrjaIfRY6y85M0hi354y7Oxs1ezaZtHIx8EjJVPRd5PwJOeg5x29IexY0TG2ii3BXCAfp4FljA2Y0ufEXNKZzpAzvrxW8BA0Yf2Rp3M1QCEApjo6m+05jeA7pg4hooG/qedwVjlW0AvWiO+D9YYo9Z3+iAAYfqjVbH29od+zBddAROMlwaB1khbgKOERvoRmYCP2PcYuqKvBKnWnA8Euqkv8RQaWGvgQOHb4Z0xtrz3Aciwz9Ae/fQDRBkbDZM69po9kHc/WB/7vnxpWacBhH79B8SQoUfH2lUrYuz4iTHs6JFx1203xu7dz0+QlBuzWQ1CM1EMU6eeUBDj/vvnxMCB/WPMmN9EMZzx4fjctKujb/8+cfq5J8f0+2bHa97y8ljw2KKY+cCcOH3YlFixZWUsr6IYDneeVs3vAFKgLRPDAeyqaqoBBZIhVQR66VAAjwM0M1tiszPvNIAw6ZQzY8PTa2PliqXRs2evOGHy6TFj2l0HNIrhnLe9L0YcPzlu+PLfxuQTTyjUXKIYRCmsWLGuiGKQFOm++x6Nk046NsaPHxHXX39v9OnTO5ga7rjjkfiL0/5b/POM/xm/998ujbmPzI+5M+bHha87K2JPl7jpP26L907+g/j+Y/8ntu3aVkUxNLvbqudfshRoBBBILVTiPLlp4/zPA5/kS6IiWWVq4kYe7+0hKomL6YJkTRomnfphzydR1ZoYUitA05DhaqIEmDtStV3uVxtCy9IMkqF5KSGrh0HTPuhfmyRiEREkU/2QOqmYaR1I56mpIK3yXudRT/LWD9U9X4q88pla2RxTo4mO6IZm7NTmSZqmEhfeSLI1No7WZZVyI1oK0dQHM4q58LdodAsmVT/Nj4yK5kNCJe2SbtEA/Ui3zEik7nqlTGv7gKSLBtrVfpnW6puP8x5NaFWMkaRvjOZLS0CLRHNCs+B7tKBVElpLA+Mz/TCdUP1jjiR9Wgl70j5FV+YJ9Pj6179e1LFHU/o2FpqbvDWSpkg/xkVjkftaf9kPiR1t0cda195aisETlplOrLv+9KuO7I58MbRhDJmPgTbIHqIJyX1Au5F3MAAMtBP6006j0mkAoT0vce0zzWoQ1D/lNZfE3Dtvip3b9uZBOP/8k2LWrCdj48a9/7dV+nTvE9tbtjeMYhg3aFws2LCgaCav9Gyrzer7igIvdQo0AggYAfs2RsWMwD7sM6GFGBifBCpaNueyU1oz9HRosnk7IB3WGCUVOsbDFiyhjzjycnFYc6TTNz8FheqcurfWoRHDAHAwO6r3LOU8CCQ5tmx+BsbCeQ9gwUCyH0yI6tdYOPplbgYMQuigw57q3IGOFtTNxueHOtt5yd6vaMvnGGLmQWDSABSo0zEw9OX4Vzv3erTlBOh5qnzABvNV1yVbje5icG+D+ciDgNFgcJi7MD2mEmCm1tch+y7T2v5gCmLHB1D4FZRpba3Mx/cYPFAEJNg7PkNroAytjaOcB0E/2uSTgcbCKWvzIFx++eXFnRr2gWcBqto8COgAMABj+mHuqM2DANzYEwAggKMfbXnWXuSHYB0z9XGmgwZsmIXsXXMFWJil8oIm++Tqq68uxuYZ5gVAlQlBvdwHwATfCvkr7BXgkgkiU1ZnCHDZofKwAwjNHBzVsxUFKgp0DgXqAYQuKxYWTNNBlhn+HJyYIIBA2uQQJoufQ76jACEZJu93DoeYEwbikHRAci4jzZW9+tX5y7/8y4KpcVwDYDLXvwx6tcWzGILDn23cmDFnBzepjV8AxqruBz7wgcL5Th2/zVM/fBwczhgFKTITMmH2QAxfCA50+uG74VlSoHEDDeaTFzs5/DEC82PjzvsJPAswXHXVVUXGQ/MyxtYKgOU2R1KnxEgyAH7hC18oxlsvAyXvfMyZrd24vvKVrxQStzVmsxdtAKzQJDRyUqSRwZzQyx0SfjhZ0vS4kwENMmIEEDEfly3R3Mi7ADy59wITtSZoDJj4niMhmgIV9gHpm6aA7wV6Yty0N+aoLf4F9qEIEm3R5GDens3bKYFPfQGL+gFMMF5roB9AiMMj7YKxiZJIIGI/0LTwM8g9U14PmiUaEnXQDajgywAoKOZgLYwNILN3zEW7nCdzH9gf9oHIGkBKX+beGkDsNIBw5LDhEbEnnl63Jo4df0Ls2LEtli7aK4k3Kh3RIDR73A0fPiQGDnTj2d67GMYPHBeLnlkcE04+tki3zMRwzNjh0aNXj1g0b2lcetxb49r5e8NiqlJRoKJA+yhQ+SC0j04H6inSICZYC3oOVPtVOy8OCuzvPug0gNCnT78YfszoWLZkUZxy5rnx+KMzYsP6+vanJH2zAOHMN78rBh89Km7/9pdj1469CUJOPvnYImPigw8+HkceObDwRdixY9e+DIu/+tX0ePObzy/SMd9556z42NS/js9O+1wMPnJgnPvqqTGLY+J5p8TKZWvi/tsfiksmvCVuWXJbbNyxsVCNsqNVpaJARYHWKdAsQCCJkcg6GrlQOxq2aKYLEizpilTPjkvl7vPaKAb1qZ9JwHm7nnA0dcpmhOyHhMxEkmlyedbzcWiPfb92rK3104jKtXWAg7TZd/QWzHJfUiQzzdSL4KgdUzpDykSI1inpM8miNa2GSAiSOEm2XqmdD0aXdUjgZVqztTNBGV+q9RvRiUd/RgnUPkOi5gtCe0HSzkiO2n3QnnedRM+Uk8UYaVTKNzW2p50X+plOAwjdXNQx7vh4cv7c6N2nb5x25nlx/123HdAohhMueG0MGTEmHrr++8+5i2HmzIVxzjknxp498Zu7GHYUoGDWrIXxxBPLYtiwQTFy5ND4xQ3T4oopH4rPP/TF6NuvT7zsDefGnIfnxdSXT4n5jz4Zj9w/O04dekqs2bo2lm3eG5ZSDgd6oRez6r+iwKFKgUYAgd0Xw8BgqbDZmjlOZarlesy42TlSkbPpU8tSC3NaAwg4ymF4mF9tuHLexVDrg4AR1d7FAMjwQaDi1a4+JE5iL24t+VOjeWBI9fppbd61dQAEVysz2XCIOxCFaaItwIbW6MlERLWN1kw07Ohs5L7jJMgXwdnZyGxUng9AAHgxDVDVcyxMWpuX/40LY/c5UwbGxpaflyypCxjIQcFUI29FmoPyEiomCmYApiC2e+uKftT69gH/BGsLeFHvaw/A8WMf82Ng59eu/jmgAjXMKL5rDZwciPU5GG10GkA4+fRzYu3qFUWY45Ajj4rRx06IB++9I/bUSWmcE21Wg3DOZX8UR46eEDf/y1UxbszoAmWKYrBpW1p2FwmRunXrGtOnz4+jjhoS0jC7i0EUgzDHG264P66c+lfxj9M+HyecelyMHjcy5kyfF1NfNiW2bNoav/zJ7fG24y+Nmxb9Mp7Z8Ux1m+PB2JFVm4clBRoBBAc3j3Ee75gJ+6n3lUMeaVNOgP0t7MVyKchFgME47EmKmApQQluRUm65L86EHPAwDc/QGAIvtVEMxsvOjzFwgCOxY44YlbrNFsClXj+ttVOvDoCQt0s2O4ba59nH2dnTga619tjL0RbjRmuZKEnUmCs6yv2Qtzk2ikwpzweooBmwH3jwJ0DI+P0ECJz98j4CwIAPgH4xcBok+QP4n8h3QKKn/aURykucfE6zxObPCZLvgDq5D/JuDPMDuoBZ4IGfhL0FVGCo6oki8D8eZgySUFUAYX93YU39ZgGC6qdf/I6YfevPnqNBmD79idiwoX13MYwdMDaWbloaLXuen5/BXQxvGvfGuG7h3pvfHG7pAXqAp141V1HgsKJAsyaGw2ry1WQOKgWo7jH6eiDvoHbcROMcHTkotsdE00SzB/3RTtMgdGQmHQEIHemnqlNRoKLAwaVAI4DAE5/URmJM+yyJPDMLsuPTAIijb2Svbs/IqYtJcg5pkj5tBamYVEhlXC8PAklRdAFJUHFYUpVTF9eWvKExTY4kZFqAlLhJlfqRslfKYOpnc8bUmANIo+U6jZIaCTckOVNxk2JFPJDMaV5qx4Zu6EhaNg/P0Yj4EY6nPmm5PX4ShCHrwifDeJmAzK+cdS9pkqmRRY2kKYAPgTVEAyYH36E9r/t6pUxr/Rgz6V+YHm0NupXNu+ZDI0By96OOveO3/aWgD0aNSfsc7URxZB4B4zNe8yvXNe9MJ51/oyUzUKa9zjmguUgJdKIdMe8sezXZLfvoZl1otJKONFQ0Z/rKftQ3FiVzLZTb8H0KqurZ38bP9yNpkPNJGtByoaf20C2FXP9nnRxzBRDac7pUz1QUqCiwXxRoBBAc2g5GIYTUuXkXA7UvVT2VsoPY4b0/YY5CykiZ+hEj7j4FKl9mAECh9tp2Dm/s1PoVKqawi5dzDSRBqM05JQI76YMgLBEo+Yd/+IfiMQcvvwQ5FLQrrE5OfnXYqIULZh1z5y9R7xrej33sY0VdzwMamJxIBQCjNg8CEMEPAsPSJnDB/s/0SupG27z7oa3F/ehHP1qsD18NNnrMT12f1+ZBkN9BGmVhgklrjEtCImYCY+cQmKmh6/VdpjWgZswYIVoxKSSts675AFgYNubsBwACwgA6Y2am4EeBQfIxMQb3EvBB4AfDXMAcgikyNwhVtG7omvc9+DzvOshwVPNKBm6s+gAMOSkK+QRq+FHkOqsHdGZCKf1oU3ppIYv2jX7sf+GP/CAUNMyrre1l+85vn6cvhDwb5spEAuzYFzkfYAANAC37gOkEwBDmq6AfMFJ+zzoNIAwcNKRIr7zkyflx7HEnxoqnFsfGDY0zOBlwpUFo67Wtvq8o8OKgQD2AEMsXFHkQMl8+KdhhKGcAqQYzF8vO0QtTyQiBZmdM2gNESJ58DtinOZyJaKBJwHgcrOVCmhJ37+AWA+8gdsBi3BLilIv2Ob9hiiR1DEesuaQ1mVRJX2zkNBWc4fgGuM1RHVI85sGOrQ7tAuZBwi5fhGRMnOEwZ4l/SP6YC7s7upXHRmoEWjCqjMnXJsYINJgDgGRc9W6yrKWFiAQMXb4BfwNYIg3q3SQogZL5kJDRWh4E+QIwHwBBPL91N79GTo/GnvPBuF0qJKEU/w+MFN0wOUW8v/kAFRllwinVuuU9CNaO1gEY9EPSB6ASYNHKGAuNhjsYACrtASYcDwEdjNgz9oQ1T38TzBwoAEiM1Z7C5NGA5ogzO6nf2mL4GDFACijyTbC/844JY7JG+rGuHCoxcW0AqzRVHHdpmDB/4FofnrWuckLYi+ZqfeT9MB8OlZI0+RzI0IeoEvOX10Lx3tGylf1mOg0gGMD440+KVSueKqIZevbqHTMfumef+qfeS18BhGaPwur5igKHJgUqH4TOXReSLyaAcVSlYxQACACEA1FoEIR1HooFn00zDiBdDsXsNIBw7IQT45mN62Pzpo0xZpwbFvvGo4/cX9eGlUSsAMKhuJ2qMVUUaJ4CbQEE0nV6pddrnTpV5EFHC4mOREvCJOVT5bKVUwOzQ8vjX1tIaRhsxrOzX5Pi2HdrCymTZE9trzAfkBpJhgp1tn7Y7kmQpE/SuzokO/04pEmKJE/zrTcmkjCVtrMx/QloYJhKzDH7K4/PnGtDHZkB9Nmon9r56Vd/VOPq+A2AkIprC6ZiDnktdKrgkwboR5NAKidt1yu1tCaxZx1MrExr9dOs0dr+MC60yvU0fnsiVfik6WYAFWm/9t4E/Rs7/4jW2qINYjor+1HQIHXEjGbv8V1QaHlyferRItcmv6M1KO+ZWhp0GkAYfsyYQq3z1OInY8CgwbG7paUADK2VCiB09Dis6lUUOLQo0AggSB3sIKX+xjAcuEwL7LYYNBUpdTEm01ETA0qwDbNTY8YuGkpbOpUrNS27frlQ0bPxO8TzLgb2aupeYysXanQSovON+hczY55QvvjFLxa/MSb9MC2I1zcGtnQHMtCR/QhNTHt7PedBKmzmF2MzB+mS+T1gDECP1M2K8TOpYDjGTUXvN1ONuZKOqaiZKtoTiiktNDU1RoTxcwhk7si7H5IeGJ+cFsbxiU98Yh+tmTmYO/IaZEyU+aScTKhM0zKtmRbMkUpcHWuYtFYHsDIfDDavt9Yff4K3v/3thX+B7/UFpABn1gJoymulmT0uu+yywu9DiCrzB1MQc5E10S6gBYgBFPYBMGhMzADAJtBCfW8dmLLQgDmGCSJBIBDML0J/TAHMIOjF9OBdyAum9MMfRzucKgFHYabW/9vf/nYBQPXnXTGuTLHMXGR9mEGA7muuuWbffABSNLB37As0YoK58sorC9K/4CaGZo+sCiA0S7Hq+YoChyYF6gGEriufLGyqDm3SNscqQMChh5E6nDlaOVzLkl+zMyQpOnzZVx3EmLEDWj95k13ewlhmdJz6MHAX9ZDKMFwSb22oGqboUMaUMUHOZWzBHMfSX4HUq5gTezWmRnpVx//64Rfhc2AJI8bAyyWlaLZ5gADdMEoAiySKqeTYtItu2iMFAhWYMkCAmWAcOWYMtLWiX/RDNzH/GBxwwnZeLwMlad48fa8O+pl/eutj0Dm2RncxYM5Jazks+DpkoiuaGPPLufJ5MB97Ke9VQB9toyuHRhoQbQCJgIE1w1jlWKBR8ixGjpboCrQBHAAJTQFAxC+Cf4jP7Rd7Ni+HYv+nTUFTzwNiaACYYNSZFyGjHoBdDJrToPU2RvvRuGmC9INmfivpM8DZlh8GwOA5e8f65o2V//iP/1jsU+DBT965YP8aFxoYv31gjrRC7tlQaLbMyTuSpdM0CM2+1J6vAEJHqFbVqShw6FGgkQYhGXQ645VDvDAmBxZpLUPV9mdm2suSYV7+z35q2/Z5hs1hKIrftV77PjfG/DznUH7W37XzyTrlMDp1fZ6hnrVjqlenHHqXdCqHhuY88rkcV3lMbdE1aWeOba0HIJB00646OQZ1MfG22jC2HGeGZ2adpEHumfw+55P9lfdMmcZJ3xxb9pPtZT+cV2mY6oU55mdlJ9LyPtBGmQY0PTQNue/KdCyvqTbK70Ctk2p5rct7uLyvs73a/VauW96jnBkBKeavDDvudIBwzJhxMWDA4Hj8sZkxdNiImDBxctzz6/+MPbt3N9ybBxogDB0zIXr1HxhPPfp8e6NBDBvYL4YP6h9zlq2O9796avzzL+9v9b151eRxcdvshXWf6dm9W7zn5VPimlsfbOvde873A/v0ihGDB8Rjy9c85/NePbrH9p27mmqrow9PHnVUvHzSsfH1mx94jhd1a+317dsrpkw5Lu6+e3bDx97zntfGd77zy+L7sQPHxMbtG+Pp7evjT05+X/zrrG+2OdzBfXvHaWOGx12PL453v/m0+O7P5NR/dv84wn/3vJNj1tJVMXvJqjbbqx7oPAq05YPQKO4/R5gx6h0dMQ0EacgPb3qSIumLScDNiHm1crl9alxq5LTfkzhJ4fV8JUiOpP70k/AcJl3WTPhM3DvveBki2dTV4VVPA2CMDneHdKN+mErY8NPOTSVNIqR9IVnXiyqoZyvPOiTq9iR7Yw4xNtoHjCbt9vXWg1c94CfnAVpnNkwSr/HTWJDGmVCo4+uVWlrrk4ZAHYy7TGv122O/p7Hxk+Yk4+SM00IAACAASURBVNFPXv/MVNQoL0O9MZL26+XmsA72Qfna5Nr65kNTUa7fUadIkn/6xQhpbW19MvdCjse61ruRs9MBQsEUxk+MxQsfj65du8X4iSfF43P2OvA0Ks0ChAt/77/F0kcfim2bnomRJ5waw4+fHAsfvDMWzbw/xp5ydsHs+g89Omb+4ofx+tedHtu27YzZs5+Mc8+dFEuXronpDz0efXp0j41bt8dfvumC+Nx1e+2Sp445OiYcfURc99BjMXX8MTF/xdoAAN5w2vHx4/tmF88rXbt0idecMiF6de9WPAsgfOeO6fF7558ajy5bDRrG+RPHxM5dLfHrxxbF0AF947jhR8bcp9ZErx7dYkj/PjFv+do4dujg+OXM+bHzN8zPgr9y0rFx26ML49zjRsf2Xbv2pqNduNchSn/vftlp0at79/jJtDkxfPCAGNSnV6x+Zkt079o1Rh0xII4dNiR+dN/sOHbY4Bg7dHCs3LApbp/zZFxy1qS4acb82LJjbzIOZVDf3nH0oH7xxKr1hSpKnHXaRYvEHuOmxKon50XfQUfEI//5H0UdAAEAgFp//OM7irstJkwYEbNmPVl89+STK+KSS14Wq1evj1/84oE4/Ygpcf/KvRddvX3i78SNT95UXIClOIiEYCkOAio4L9x999wdg/v1jjUbt8Tggb1jxLABMXv+qrj8PefFrMdXxS33PFHMbf2WbbFhy7Z9asVWN1n1ZadQoBFAoPanOsY4MF7qeapVTAWDdXg5OEmD++ODQJWMqWqbNzkmhamz8TqoawECFTYTA9Usta1C7Y2psBuXC+mL6peKWdpo74D8APbxZz/72eJRqnYqZf3wQeCAyLatDhACjFAbUxVj+vX60Q4bNNMDJ0EqfL4MVNNs5EAUnw0F7czVeyPEEBDClKnKgRb9AT7GTT3fVvn4xz9ejJlaH92Ygtiy5YiolaL5jMg94B6KpLV1Ni9r4CzBXAGJRsypTGtrJ6yRjRwQMq+kdY7bfNAYUwZOgC37xVgBAjRi02dzTxOHcQMdzjTAg9+D9QPc2OqZNpht7E/PJvDRvn6cwfZlJsPyv3MLILM+1kauCGYE/QMD5sFvgbRu/exD+wJtzJm5g7ki+wAcPasAc/wV+EkAITQx2tK2OagjCZU5aw/gYS7I+fD/QAOA2D7wG0D69Kc/XbSPrupkfz7rNBODHAjuXVizakXIibBl86bYtetZplRvgzYLEM592/vi3h9/M8adcUFsXL08zn3bH8f8+26NpXOmx7jTz4tVC+dFvyFDY/mjD8TrXndmbN++MxYvXhXjxg2PdeueiXvvnbNvGH/92xcWAAGzfP2pxxUM95pfPRTnHjcqunfrGr+euyh++4wTCiCQpU/P7vHmM0+MhauejvufeCrefeFp8b07Z8T/97ZXx43T58XitRvivONHFwfIsnUbo0+vHrFp244COCxZuyHOnTgmbpn1RIw9cnDMWLziOSQ57ugjYv7KdQVAmPPUqpg06qi49/ElxTP9e/csAESP7t3innlLYvSRg+LIAX2jZffuglFu3LY9XnfKcfHTaXNj3LDBcfKYo+O++UvjgSeeiiP7942nN2+N3W6yqikOSS8nlJ8JNyDs4a98e/zs6r+OE1/2hph7+/XFptq1a3u88pWnFVdnS2u9c+eumDx5bEybNi/uumt2cXX2FVd4AVbFj350R5w57PSYtmqv5+3vnfCOuG7Bz+OZnXs9mtPByiHgRYVy9VsbJvTWiybFT26ZE+/67dPi3ulL4oklz70d1P5plOu9rQOx+v7AUqBRHgROXOkNX86D4ABzYHE0o13wXSOHtrZGilkCumzjmBzAwQeB5OVQxQDEvZeLd1TiIntQzD+gkPblWoZKpS7W3OHLI9xYP/KRjxTSM/u7QkuAwWFEmJlnODY62O13Y8toBMwFk6ntB+DAxAB2c+AHQCI0D3UwKM6I+Q6xu2MU+vPu+B9DUJ+6W5+YSy3gqaWndoEa/Uj8lMl60KPezYiYGPs7PwPjlAch72Ig/QMx7t4ANtCsXtFG0sAZxCcFQ8WMMW71UjNhPOYDAKEhumD83/rWtwpAYI0xYUDBOgB0mVsAgwUCMHPnHD8Ea6ltoDWd/awrx0agAzgA6tARoHXGoG0yfXsH8Mx1RGfnF/AHWFkP+Q+MEWDk06F9+wHI8aMfz5uXOTkD/a8OUGEe+uB4CFimJoY/AedRINB6oYH5uDyLIyUaoKN9YN+jQwIEpgZgopwTpNMAwgmTpxT7YP7cmTFy1LGxdPGCNtXXzQKE485+ZRw9YVI8eN2/x9mXvjdWPjEnnph2R5z11vfE8nkz46lHp8fZl7037r/2f8XO7VuLF6pHj27F9c+k3C1bng3Zeef5p0TL7j0xY9GKOGXMUbFl+8646ZEn4k2nT4yZS1bGgv8CAW+ccnzMWLQynnp6r+SrvO7U44Kq+6ZH5seJI4fG4H59YtHqp+O848fEgwuXxfDB/QtNw7Knn4mp40cGtqwPTPr44UcWz1x69klx3YNzY+uOvSYFAACD37h1WyxeuzGWrt0QxxwxMB5f8exVqZdMnRRjhg6Kb98xPV4x6dh4ZvuOeHjhsrjo5PEx56k1hcZj1BEDY9aSVQWAGNCnZ1z/8Lx40xknxC2zFsTWkgah9oV1gLN3OfC8cN36DYrJr3pTrF+xNJbPuLs4yB9++MG49NILY/PmbQUoeMUrTos1azbEPfc8Gm996wVx223T47jjRsaiRasKsLBjVbfYvacllm1eHn846ffj3+Z8t+5B4fC0+aHq2rvtTztxeDy9YWuMHTk45i1aGyvXPDdkiio3vbrbYiLV9weXAm2ZGA5u7y+91oEW7wzmV5WOUaCsuu9YC8/WYm45VO9hAOKc8UBd7X7pNIDQEQI3CxA60sfhVOecCcfEo0+tiWe2PT82+WDMk6Zm4UN3HYymqzYPMwq0BRDqxeqXSZBAsaNkoUUAbjFNkhiVsc/87fN68ewkOWrcdKSkwjeORs+SEjP2nfSrj7QxkypJ1CRP6nVSKJW1OiREB3R+l7cP1rNvGxOgbB7U2+n8B7yXx0b40Q8TQ+by7yjt1COlKhm3D4Bov95V0uiJ0fDxQN/0yzBH35kX+qBBo7HV0tp8so5wvzKtjYuZiPmhtaJv4871rHWUtB+aoZV1I8XXFmM3vnr3VJSfrRV62jOH/VnDjtStAEJHqFbVqShQUaApCjQCCOz8VLHi0dmjhTVyOKPmFB4m5puKlH9Ca85UbQ2GCli7pELhhLReGBX7sIOZ7bdcMAs2YWrZch4E46s1R2AUVPUEGrZ+zIwPAkYuLFBhCqDRkjeAep3pxHioeWWuoyrGSKmb2Zip9L/xjW88b1pMHVTunBHF6zOB6IdqvDw2zJDmrZwIqC0atfb91772tfi7v/u7Qs0OGFCRS5dcm6bZ3KUQZkb48pe/XNCaWYBqHN3QGsBCM2CnNrw0x8CUkvPR75e+9KUCDAEd6iat83lqew56mQeB3xJzCzOR9NbW0RpTp9tHnCz5QvDBoB1lRmLWsH7yLvhtbzJt2DOAkD4Bn/Sl4B/FbCSUNSMpPvjBDxYAxP5BAzTKHArWiorf+tnf7mmQJ4NJIPNVMC2kqQngAYbKpqbsJ39LM03yF4bKfCZcE9j2TvF3sK/QxR7LkFJrVC5owDeEuYgJqNxf4fQ45KSpe3qte27MbXs3k4EiRltl0ilTCyLOmTktTpt6QbS07IpHHryn1WqVBqEtqlbfVxR4cVCgUR4E9lCHvkM6fRAcyA5mh7jDNmO4OwoQSK6YFrutQzRvNyTdOphJkrUpdZ1V/CP0zdmO0yAbN4nxP/5jr2NuFvU55pHg2fod7GzBJGQXFmXBrDB9PjsOcRIkZ7NMAoUhARps6OzBn/nMZ54nhfKlYB8XNieZDyajHwChdmxs2hhSrRNhszsGLYAbzEJcPmbClwJzSgBUbtNz5vTOd76zoDUnT3XQyY/vMGz0ahQNwQEy54MW1p6/AOamLXUzR4C1zURQNDhCE2kbOCPmLaAcNdHir/7qrwptDdrS6KARPwK+IKR+QCDXxn4BtIA4YADIsfbmx2cBI1cX7WlYrLt+7GeAVv9ArkyHmQfBHve3qAPfAXrAqzU0T+MGnPSDdta4HFarH20ADsAK3wS+En7z0QFeUnPFqdFdJsaZ9LBOaAKsZLgnYGQ+5mr+5fwb1qlTAIKFHTV2QqxctiROPfP8aNm1M6ZPu6vVzVsBhGZf5er5igKHJgUaaRAyZtshSGVO6s07BByU1O4OcgdxM+rfWio4fxyAGQuuL4ya9E0irucsxwTge4yKEGSsgEI9EwOmgkFgpg5fz+krbboc48yHFIvh5C2V5qXtVFVnOGe9kDvtZQgd4IJWpGyfo03t2DCR1kLtmtkpJH/F3IzNuM0nGV65LWNEX3PHrIwR7f2N1pgxxoOZ1cspoS1MLeeTYZoAgjr6RevcDxldgMaZGEk/nAdzve0pNMZTAEN1rJV2jDUvU/K89ckLsUjVgFz2xUShHWMzP/XKpgT7AEjRv8/T5ORiLhoUddJx0liYbHKdMsw1r5pWv1Eq6qQ32hiPbIgJRoEnYMdaacOc7N1G70/S2l5BW4AnS6cBhP4DBsWgIUfG2tUr4shhw2PIkcNi7syHWo1kqABCM69w9WxFgUOXAm35INSOHNN00DWTG7+12WuP9OXHoYlROwypXamJM1St3AZJNcPNfJ7X69ZTi5P8qXUzjh6jyHS8za5Ka/00aqu2DqYgjJLGpFGugWbGJZIEg8+c/63VxTwxNmp/tKbqTqZP0tUGadnvRnb6RvNRh1Ndmdb6S8bfVtQS6b7RDZJABCZKsqexKOe0sA8y78GBAl3N0P+FerbTAMKJJ59R3L2wZtXyGHfcidG9R494dMa0hggSQSqA8EJti6rfigIHlgKNAAL1qMOeOhWzIJliDhg4U4O47gNRMEvMCdN3lwL7v5LhgUwa5UJS5CtAustcBvL6K7VjwliktyWRiqPHnKVaJsGl/0Izc2jUT2tt1NbBNNGRdJiJgJoZQ71nW2Ou+by58xnhO/L3f//3Ba3zSmvSOsmdzTwvFWqU26I8H7kFADgqcwyc41zSWr/WFdO3BtbTM35I97RPzEjWH9Pn60L9T0tA8k4AyhdFXgBSPmBj/5mvOuV90NFkRvtL+xeqfqcBhI5MsAIIHaFaVaeiwKFHgUYAgQ+COHwqUtI31buDm+SLmddeotSRmWHg/AloD37wgx8U+QwAEeYDzBNTq70FkfQvxz/Ngzh+jJYzFxNAbd4Amg4OjaTM22+/vWjX5UYYVF7W1My4OejV66e1NurVYZtvK8dBe8eFdrQiqQ1orR4HQYxaHbSWCwIgYJrAxI0JiOCv0Qi8lOfDZJH2feCCTR+t8zKrBAhs6T4n+dNQ8PegJaL5MBa+CRI7cR68/PLLCz8XKn92foABoAIIfGfN1eHIWt4HFUBo7475zXPtdVJsstni8cMJIHTr2qXIq9BMkbtANsX9dTJqps/q2YoCB4MCzZoYDsYYqjYPTwrQBrHl1/MNOZAzBhaB1kaRFweyr0OlrU7TIJw85Zzo2q1rzHr4/jjrglfFhvXrCh+E1sqBBgiDjx4VPfv1j1UL5rZJ/1edNK5IWfz9u1tPB91mQ7954IQRQ593v4IMjTfPWlBkPKxXZEect2JtkVSpmXLGuJH70jC3Vo/k9IbTjivSOz+xsvUY4mb6r56tKFBLgQogVHviYFGAkNqaE96B6hdAoBVq5Fh5oPo5lNrpNIBQRDGMmRBPr1sdvfv2i9FjxsfM6ffFrp2N0y03CxBe9vsfirWL58fKBXPjpJe/MfodMSzm33trPPXYjDjmxNOiW49eMWDo0fHw9d+PYUMHxiWXXBD/+3/fGpMmjY0xY4bFD394+761OWHk0CK9snTE77rw1OjapWsBFvr07BHnTxxdpEju1rVbbN6+o8iI+N1fzwipls8af0yRKfH66fP2tTWob6+4YOLYuGH6vPjdc08uMi/e9/jS+MjF58f/fWDOczIinjNhVLTs2ROL16wvsiWu2rg5Nm7ZHr815fjo3aN79O7ZPfr36hkPL1peXFTUvVu3WLx2fbztnMmxYv2m+MkDc+ItU08sgEc3yUUG9ovHlq0pxnnhCWPjzseeTW0qHNbFTCs3bI7VGzc3vL71UNqw1VhenBRoBBCE7bEfC4kTq83MQEoTwsbxjxqZB3iGAnZ09lLIsi1TTwuJ4/PAFMBJ0dmUl91k+z4Tny6OP4txcdaT/rZcmBiEt5WvIHZ2CaFjg1dEAeiTClv+ArH5Yuapu3neU10zrWSKXap55gp1yrnx5W/wrEgA6nopdPXD89x8mGTUyfsG+HVQ9ysf/vCHC/u/NlzQ5DtqdfcmyL+gLXHzPq9V/VO5yxWAXtIWC8XMOxfKtCjT7atf/WpBa6p96ZHdC2BswvHyLoFGJgZhlfwI5CPgAyA19jve8Y5i3GL+a307+LIACswLzEfMDvwJmH6MlalBe0w3zFeZhppPAvPFD3/4w4IG2r/qqqvi6quvLtJay/8gL0KmjrY/tZP7iIOrDIlpysgrlDPdtHWyv4VG+s4+U8fYsp80yYjSYMoylnJBK/uOfwszl9BIa4+OxuxzbRpb3qRJy6FdYY7WiQ9H3sHAt4cTqegMzzO7NSqdBhDcv9B/4OBY/tSiGDFyTAwfNTYeefDuAwoQpr753THtZ9+L8VNfFmuXLIhzLntfLJl5fyya+UCMPfXsWLd0YfQZNCRWPfZQfOADb4lbbnk4tmzZFq961ZS47rp7igubaos0x1IXY6JSIvfr1SNePXl8cR+DGxep/13a9C83T4sjBvQpLnbCbO+e99zEKxeffkJc//BjxbMue3Kvwp9eNDX+168e2ncpk74/+Ppz4465T8baZ7YUzF1bgAqw8Mw2TH5MrNu0NZau21jcEzF/5drYvmNXnDXhmELTcP8TS+P848fEjTMeL+qdPm5koSFY9vTG6Nuzx3MuZaqda97X3tFDuKpXUaARBRrdxeDwEm+uONjFxTvA8rY+DmYc7oRzdfSyJpIfZu8A5muAwWZYo/wH2q+958N4Mp7f3w5T/8urn/cd5Fz5OGBoDmhhcQ5f9nYMIb3q2bgBDHdMcNTDmBXtAQ05N051GBYGBhSpw4EuC0DlfwxD0iJ1/WDayh133FHU4SvADm+e2lGuuOKKfRf4AAOc/dAEw0z65v0UZcaN6QMsGI6cEBL9AC38CACHWhNo0g2TRGt5EDKqw9gwOGCN/b/R/RqcFNEQgAJa7A1j8Lz2r7vuun00kcbY+mH22jQfDo18DAAzsf3GDICW1xStJaTCxIEXNPAbEwZMtJcJk9xpwJcCfe1Ne8q+0TZw5jIr3wMO+rEeuW76ASClfbdmAIYx6ge4sE7oYx+ZX4JV+8f4/WSeDiDUOPl0ZLbOm266qfB1MTYgCa2suT0GKGjHntMHsMY3xZjMAYA1Z0X/3kXvXJZOAwgnnnx6bH5mYyx7alGMHD0uevXqXdzL0FppVoNw2ht+J1p2bI/FMx+Ik155cbjoYPZt18W4My+IbZs2xpJZD8YpF70lHvz5/46WnTuKuwFWrVofmzZtKy4Wmjnz+Vc3yznlvgLXMP/gnlkFWOjbq0dx8ZLrh0n6Jx1zVHHD4sNPLg/q/We2bi8uQ8riJkiahVtmL4gJRw0pmLsfTH337j3F/QtZSPRuLJy9dO91xWdPOCZ+PXdxvPaU8cUthmOHDSnaBxx2tLQU9zQsWPl0nDr26FjzzJaYs3R1nDLm6Fi3eWvxjPYeX742VmzYVPRHI9KoeCkPlNd4xSorCpQp0EiD4NCitnVoCsfDZDP+naSLEZH+HZDNXMVbS/1MdYzZURHryyErKQwGVJbSs65DXiQCpg4g+HEmlQ/Qfe/t5MmFpA5kY1K0AvrI2HPzxLR40GMSmIALjDBidUi+wuuME/PwGQapjkNd8R0mbcwOd/kFyhJ/pnDOfmpDCTlOkij1lVdMq8Mx1JgzNBItzLtcMHaFJE1aBUAa+UYl3TBPa6t981fKYyPV+r5ewdw4CQKM5uh35qJAP8ArgY+xGVdedAQUAQLAIDrqw55CLzR1q6HP0VO0gs8w+cxZoR3OiWidCajMwXjsAf4O6moXAMoEXr5DQ/1kbgNAz7PGZ8w0BPq3xvrBzP1vHJkKPDU+SRd17BV7BrBCe2MGFhT1UiNAC2XPWWMgUj+yI9p32vE5YChUEyBAh0Zhn9ruNIDQkeOyWYDQkT7aW2fiiCMLSfxwLtXth4fz6r6wc2vWB8Gh6vA6EDH8Zs5GjWljfA5yBySm4X/Mq5w9LilFcgNKMomRA9Zh7FCvLbVnlbbNAbNotrTWT6O2autgVJlYqBETbmZcGAVA0Bozyfby3ozMkJmJd6wnWmsjx9ZaoqRaWjNPWCfrWL5UCKNDb3ulrcupMhFVvbmnBtXYAIKkm31gD+wPQG2G1vms+QNFbd0x0ZG221unAgjtpVT1XEWBigIdpkAjgJBpaDFSDJUnOpsraYtduV4q344Mgj+DWHiSJbWug5f0TA2NuaSaNds2lj/90z8t1LuuOFak/yWpsfmWC/BB/Y1xZfrfeqmW2zvuRv20Vr+2DpWyOZLEG6Uzbu948rn25kEQsip3xN/+7d8WNnxgTKQBHwl0xeTRFbOuTXGdfZXnw3bON4AEDwwIO3SddpZyHgTSPNBBytcHE47U1LQpgJ09oE/AEOABKoA7anqaCdoT0j/6WU//M+uQxnMf2JfGwhxAu8F0kNoUpiaSPjBjD/sNMHmW5G4t0ILfh8/1Yc8zF6CNftHZGKRblgOi3pXaza5dR5/vNIAwfOSY2L1nd6xavjSGHjUitm3bEps2bmh13B3VIIw9cmz06N495q98omj/T17x3vjX2/9XXDb1kli0dnFMW/hgw35PGDIxntiwIHbt3lWoV+pJFu0l9qhRw2Lp0udLG7sueH90v+tfYueb/iF6XP+3EXt2xyuOeXnc/tQd7W26eq6iwIuKAm3lQWDDlbSGtCmW3SFOjdrIRt3M5GkMOIQ5gPVBOgQ8HL4AAntsLRPFXDkTYrBs6AqHN22VHRd9njkSqHbZxknvcv4r4u6bLY36aa2denUAnHoXPjU7nmYAgmfTzk+FzvmUbR5NMD33WaAfR0O2/EYhg+X5qGsdgDxMl0q+7IOQAEEdzBYg4diK9hwuMXNjATJcLvWJT3yiWH+MFzDFiIEJ4+Yf4YKlBKYYv33Cvq9/+8I8+GowkTAhuIArsy4yr9CS8K3hi8BMBiy6OwN4NHbgBVixv42LqcTfLqVKjZN96oKqlwxA6NGzVxw74YRYumhBDDt6RAwecmTMfmRatOza1XC/NgMQhvQbEj26dY91m56OS6e+NQb2HhDL1i+Pmx+9Nf70Fe+Lr93yP2PYgGFx7NCx8cDCafG2qZfEgD4D4zt3fS9adj9rB/ubsz4WVz3w2WJMbIJsNxe+6wPRu9/AuPkb/2PfWEU9/M7vvCJuvPGBuPTSC+Opp9YWjo7+Xr16Q0yfPj+uvPIdce21v46JE0fFP//zT+Pss0+I+xa2xJ5Bx0TX+bdH9Bsae3r2iS5PL4k3jH19/GLRTR19d6t6FQUOaQo0AgjUuAABCYrkh8k6hB24JPy8Xnh/J5cMSjskfipjKlzMJKW42j6MKe25pD3Sq9/1rmH2LBW0OWjb2DGXjqiHjatRP43oUK9OXru8v7RTH1PMuwvaag9DznXMS7jSu9+8cr39bpRquTwfDNc+yOurMVX7I7MgJkBAb/35bV9ZBxI5s4M9ZX0AgfL9H57XVl7dbI6e8Vne68DkgHEnCKBx8jyNCMbufyATuAUy+IzYK+bmt7HnfLTFKTIvIfO5z7Sdd3mgHadajocvNEA4+ugRnXNZU89evWPk6GNj3eqV0bf/gBgwcHA8+cRjsXPHc51hypuvGYCg3suOvyCG9Bscz2zbFKueWR2vPOFl8c+3/ku8/5Xvi3/51Tf3AYTHlj8W7z7/XbFy48q4dc6v4unNTxfddu/aPa6Y8qH4/ENfLP7njPP4wkVx6usui/UrlsZjd/3nvuG9732/FWvWbIghQwYUn82e/WQsX742xo4dHoMG9Ytf/OKBuPzyS+JLX7o2zjjj+Bg8uH8sWbIqHts5Oro8szK6rN3rELln6PjosmZBARB+ufjmaNlT32mnrZey+r6iwKFMgWZ9EA7luVRjO7QogAkDIPV8Qzp7pDRMgEOjkkCkrXEBKQAGQHWwE0C1NpZOMzGMGju+AAULHp8TEyedGt279zjgtzn+ycvfGztadsWd8+4q0O5FJ70yrp32k0KD8L17vh+rn1kdbz79t+O66dfHW894cyxasygeWPhgbN/1LEj5yzM/Elc/uBcgsBktXrIkXv2+vyqQ6a3XfK4IfWHTmjr1uOjbFzpcH6ecMr4ACKtWPR1veMNZsW3bjvjud28OIOK+++bErFlPxic/+e646qp/j5YBI2L3mKnRbebPYs/RJ0Zs3RBdNi6P1499Xdy06FkA0tYGqr6vKPBiokAjgEBty9s9D0QSPXUyKd13adPf37my+1IH64c5gQnDZ9S7BBGx8uXi/BB/T9qkQlaE7WFGtZE+nNtcBUwKFN9OW8FGjlFQaTdbGvXTWju1dUi/1OBU8rVe8c2Ox/Ns+SR4avPWirkzH6AR/wPqe6p8qnX0Ie1T14sQEG3Au79eKc9HrD+pnB8BB0fzSlqrq0396oP9n/aANE+rk5EQhD10EFqYUSn8D6wRpu4z/gmuPWYWkU/CXhEJUbsPaAuYDrSHJp7hS8NcwgeB+SM1R1KJ4yN5KyTtgf/1p47/aRjydkmaGn4LNBPMXyIQDtQ70JF17zSA0JHBNatB6EgftXVG9BsRK7esLPwlyuXYzGEo+AAAIABJREFUKefHk9PvbrOLqVNPiGnTHnvOc2PGHBXHHDM07rlnb3xpywmviW6P3RwtZ74zuj30g4g9e+KkIybFo+vmtNl+9UBFgRcjBRoBBIxVjPknP/nJQo2LoQEHfA+oX+uFFDY7fwxckh3MglOZ0EKJcKhvhZdxTpO4qFxIbn/xF39RqKb5IPhtrNTBbMPl4jCXE4BvA2c3KmIhhaRFFxY1W9jS6/XTWjv16pgzB7rakMVmx5PPt8dJ0bPpg8AOLywP/awl0CUfwfXXXx9yFwAHGSJYO6byfKwbpk844zQIXKB1OoumiYF/A4AJPAAC1omZgUkCUwdMrLtrka2LvcXHDAMGqIwVQEhglfd15D6wR+wlwIBTqn3qGY6r5sXRFfMHotJpEQiw39BCPxgusGKfACbp7Ig+9gyzSV5Djm4vtImhAggdfVuqehUFKgq0mwKNAAIpjeQlPp60DiSQoMRvS2JzoKQnzAk4yBh1KmmHOW0gD3UHdm3BKDAiTMABjuEbJ0e22oJBcFpL3wFtm09HblLE0Br104jg9eqQ+ttzuVJ7FtFa0KLmBUmt1aFBYO/HSKnJc33VwTBpFUjWgEIjH4TyfGh+SNMA2g033FBI1WidIY0AAlCA9oAEzQBG63vOitaYZE5TJW8BDVX6BXguNQHpW2KdAQGAiKapvA/MgW+aPQoIAAe0EOhDS0DrRXugfSCBxsmew2j1w59CDopMyGSf03agAw0IcMA/wVwBGRET9fZme9bsQDzTaQDBC6rYZF27dYvdDRJklCfVEQ3Ca8dcFL9cfMuBoE3VRkWBigIHiAJt+SBgpq3F61Mh7++lZc4gbWhL8b+DuVHf+Xz2q14myKklSzq+5bPl8y6fzTj7cv/Ow/Lc8u/spza7afaTz/k/nfOyTqP51KNhftZWFtWcT86ltfsIym2mw2AtDdrqrx6ts46x1PZf77PaNapt0/+ZOKv8bJnGjebZ2vhzfbVjfzXau7V7piOvWmvvxYF4ZzoNIIhiGDlqbCxe+HhIu7yzyJq2qVWaNAsQ+nTvE1OGnRb3LL+3I7Su6lQUqChwkCjQCCCkyv/P//zPi7S2DnrSnugh+ftJrKQz6uCOSOM5HVIb1bQzhapZ6mN+B9ThJM7aNM4O1z/6oz8qPNSlE1aovUmctVK0Z2kQSJ753Xvf+95Cbc0Or+gfUyGRCqOjHqf2pmI2Jv0wYxgbKdKPew9In+VQazTxLOZCGta3kDy5AvhW6IP0XqYVKZqkKsWu8VG7k2zZzt3jwK6v70Y5CYz/05/+dKF+RzMSvHsi+AT4rFyMJ/MgCPU0NuOxzgCgfszL3K11I/+IMq2NMcNRzc/V3dTx5cL2z1xBmqdNQCfaBn4F+rDG/AbQk/nKenmeqYBmwXxI8PwihEfKeeAZabVpDGgd0BTdzUV2T+Gb+iHhm4s1A4i0w29CPxwM9aM+rRLtkzpSXWc/siRai9wH9n650F5pjzaNb4Y8HjQL/C3cE2FN7Utj80MrR4th/O7PsP76o1FCH2tgzjQu9lLtPSTlvjsNIPTu0zdGH3tcPD7nkSLNsols2bL5gAKESya8JWasmRkLNuy9nKQqFQUqChwaFKgHEPYse6Jguhy9HK7U+Zicw5etmY0WQ3KQYaStMbDWZokZYlqZmMZB75ClDsZ4MKBax0PPAghMEZnL4LLLLiv+dz9AuRg7EIPxZnw+E4GDPQ9fBzG7O0bEVo5RUGEzAfhfuxgEZiZPgGeNkz9DtoE5smU7OzF8PgaZ9x/joyLnU+F7TnBZMCROcKRZan0MD5NTV7/6pPov3/lQy/QxF3TisIk5AQa///u/v8+Bs/x8+iDw7ZAXAMAClkjj+gHG2PvL90TUrl+Z1sYOeGSdenkQ7B0gCWNEL8wRQ+XLYX4YLBOAdUnwBKSgp7rmA/AwR9TexfAnf/Incc011xQ/1o0jat7FwGeGiQBYAIiAJ/34XXsXA9ozZ9nvefGShEnmZSzAhdwQ1lCxH6SR5kPCJAGAAiLML94HQABNAaEcG5NHpqG2L80d7TlsMovYf+9617sKk4e21MtMl/arNdZelk4DCIOGHBnDjhoRixbMi/4DBhVmhnVrVraqNmxWgzCq/zFxVN+j4qFVDx8ap2I1iooCFQUKCjQCCClZY4SkG05mDjNSs0OQ5gAj939Hcgok+csSN+afzmAOY0yk3l0MmJkDlw3d4WlceSNf7bJ61kFLUsWoMX2MKJ3w9EEzAhA46I2BbVsUBeagH0zH5/7Wn8MdgwAGsmAm2nc26ivD5nxmfOajvbLvgTtWRAGk6cE4FPQGyNTDCOrRwHOYM+0LgAFQYXIYGQZVLycEqZ39n9QMNGnXOpPs9UNaBgLR1VzrFfNOWusbY846gAe6pWZFf8YFmJgbutMQASJoik72EqnZmHyHFoBjXt9s7fiamCtJH3jBLPPSI/tQ/5g1QIG5elZbNAXWIddPPz73nL2rH/Qw38yUaF/oh6OmfYCOxuZZtC0XdAYm1RF5QwMDcALQijl4xtiskXWludCuvWPPoAWgYJ7+ty7GDGAcEhqEwUMkQmmJjRuejuEjRxcTW7XiqVbv1m4WIMhj8Pqxr43rF95YHcsVBSoKHEIUaMsH4RAa6mE3lLw46LCbWDWhNikAxNA85aVhbVaoeaDTNAjNDszzzQCE9jipdGQMVZ2KAhUF9p8CjQBChnR99KMfLXIGkIBIOqSvvC6ZROyz/blTgGqZapyUR8IiUaUa+rWvfe3z8hU4WIW3sZ9/85vfLAhAK0C9m/8nVZw9fA5IrpknQNgjqe7LX/5y8Zj+qfbZtN0zIM7eFcAkPb4E+iHVGhstALs0dXft2PRDunVwownpUR2SOCBAkiY5lq+kdrcFEwSJ2PhoJzAMnvZoIBafKaA2hXR51T/zmc8U9OcjIWqAv4g51fMhYCf/yU9+UvgfUKtTWaf2RT8//OEPgwkBDfRdr5RpTZtgP6hDbc+0kumvs67cBVT/9g9J2t4hyaOT36RldCHBU+9nRkX3LKAJbQSa0xiYK98R8+RfQNKncdIGevtNTS/TIamfSp/kr9hf2Q868w+wrvkdLUomdcp+mBasP42AZ9PEkHPzjhg3GuR14DQi1tweMn7jMLayk6t1pzkSOSEyQp3MM5LOuZ6v7a+8Hp0GEJgUXL9Mi9CtW/fid1teyc0ABATyErTVZjNH3f56gfbo0T169OBr0Thb5LOHjGto9+z9t2e/iB2bI7r3imjZWdzV0Ezp1pWXdpdo2f1sva5du0S3Ll1jZzuiR5rpq3q2okB7KNAIIFAPUxk7GB3kDmhx4hi4w+l73/teceg63Brl7W+rfwxcLnxnBHU1dbF4eA5qVK31kglhAh/84AeLA5cPgt8YHzUzh71yceBzPKQCxhCpbTEH6uW8qtkc2OzF0ju49ctpznwxPu2zrRsb5uQeBXbx8tg8c/nllxcqeszCWfexj32sqINRU2vrjw29nH8BE8EQMRDM2jiotrWTV2p/4AMf2Adm6tETk5QwSL4KdKOq5ix4xRVXPE8LnD4IAAlA4OImUqzx6wcNtMXvI69sru2T02HSmtkFg8w6tT4IeWW4nAFU9ebG7+Lf//3fC4YKhPDp4HfC1FH2QeC3YC7AClDy4x//+Hk+CPoFCgEoexTwSR8Edf3827/9WzE+vg76Me9aHwT+KfYfmv/rv/5r0Q8fG4DCOJlCrB8mrjAreBaoYAZgVlC8C/wYgC57wJrm2ABEwA9dAciyD4L36de//nWRCIo/grr8QzJltfeDT8aPfvSjfcvRaQDhqOHHxJHDhscT82YXJoaxE06MO2/5+QHzQTjQAKHf4CNj8PDR8dTc6W2dPw2/f8tbzo8bb7w/duxofN9EVn7Na86Im29+KAITv/RL0ePay2NPn8GxZ8TJ0XXBnU2N4fyJY2JAn55x04z5++qdOW5knDFuZPzrrc86LzXVaPVwRYH9oEAjgIB5pd3UQUWidlhySCTdXnvttQUD5fi1PylnSWcc7fgxOFwBEAcu27AEPLWJkkwVkyGt+yGdO2M495FUawvm4nAHRjAR2gdtf/vb3y4eZTvmuIbRaAfDlC+AMyEwoo+8YRKTo1UgrdeOTXw8m77fog8wDvPBVNJLntd6eT6YOMZnvp7FiAAy4wNqgAcMFENtVNDC3EirHEvlMtBGPdW12xYJa5gTUGKO5o8u+jE2IIUmoVFaYiAqaY2JW/+sw3kUuMHsFJohznf6oNUQBWDvSBKVV0/bU7QE5o8J+hy9+WpYD7+BMYUmARg1D/QF5uRdAFztI5qUDGEEljBobZH0/daPteArQJOkL2BPW/ZRMmH92IeAgjUlEAObtdkqgSPAA83tGUDDmgEAQJc5oXemefYe0QoAAmhN2+E90jewBLgBNeqbR9nnoVYo7jSAwEnRZU0zpt1dTOrsCy+K++68pcgi2KgcLA1Cl65d422f+v/j1m9+Pnr26RuDh4+K/kceHSufeDSWPfZInHHxO2PJzAdi8IgxsXT6XfGmi99YENbL5LDiMFO+HvayT341Zt3y01i1cF48vXyvyqxnz+7xrne9Jn7+83tj3bqN8epXT4kHHpgXr3/91OJip1mzFsZZZ50Qp5wyLr7xjevj4ovPif/8z2mxbnvP2DP+gug667qinZZT3xrdHvnJPhKREmwwiBeS9L+Xp+zA1b93z+j6X+leN259VnPRr1eP6NurZ6zeuLlQkzosGqU53Q8+UFWtKFCXApUPwgu3MbzrjZwBX7hRVT13BgXw2gQzHemv0wCCgY4YNTbWrFweY8ZNjCcXzI1dO3e2OuaDBRC6de8Rv/N3/zN+8Ld/HOPOOD+2bXomjpk0JVYtmBsr5s+O09/4jph580/iiFHjYv2ix4rQHIgNYqUOgv6Fpyjm9bt//y9xyzWfi5YdO6Jl8/rCBubnssteHtdee0d069Y1JkwYGfPmLY13vOOVMX36E7Fu3aYYNKhvvOUtF8TVV/+wuMPBBU+0BrtP+q3o9uDe1K8tJ/92dPsNWPA/b2jIE0qEGtnnmo0Rd2BAjxB9VSoKdAYFGgEEalLSDEmLvZaUam/yDKeiJ30KPyPdNbJXt2f81LVMGSQ2al4e6/rwnpLKatMna5Otmxo2QyBJst59KuRycQb4DhNOkwJ1s/9/8IMfPOdZhzVNBm0IVblnSL2kd2p1UigVsTbzjMkGfMYngeTv3RdN4G91vMvlsTFxUPWb5/5cWZ99y1NBbU3adC43SpFsjHwszIeJhr2fdgT9rS2BRhuuNv6bv/mbhktXpjVfABK9s9deoSko0xoTM/f83dZ9Ee3ZL9UzeynQaQBh1NgJRYcrly+NseMnFomSJE3a04p9/WABBOMACIaOnhCP3nFjTHr5b8W6pQtj/fLFMeHsV8TTyxbH4pkPxMkXvSXm33dbbNu08TnZ1moR+eiTp8aQkWMLrcPQ/r0KaX7vZTPjCk3BXjXQwOL2x5NPPjaOOmpI3HXXrOjfv09Mnnxs3HGHsJ8JhSni0TmLY9fFn4nu138ydh89iStBdF0++3n71SGatqNmr3UFMLxgB+LgqF6kigLtoUAjgIARYJCAApUsJsT2TE3M9EA1iwHSemHoHSmYBwanHf4E7K8Yln75ODAHZEKjbJ/TGYfAch6ESy+9tFDnsh+Xi/NA6mDvFPUvRshXgOngf/yPZ6+IVyfBBBMKO7U6QIt50wgCRYQRdY2tFogACGgBiKQjpzrUx7Vj44BH25k27Y7QLuvo13nMfo+O9cws+Wz6IPD7QGeOmtYXqGEyoSqXM+Dzn/98wyGVaU0IQif+KswqCawy5wSTByc/Zy4wkqaC/ZlvVbeTAUJHCH4wAUJHxtNanR69+kSvfv1j07rVB7rpqr2KAi96CtQDCLF8bwIbzJgtGgPB9Nhv2YQ5lMkAhzkx6bXmbd0WgYAEtmrt6Is9mW2XhkKeABEUbPPlwimRpM+chymzi2Pi5UQy+bxnMXpt03QADLQTtVoAjB/jpo1k11eHZKwfmg1OZpgdhs/hsbZgnOzVQAhQQQpXJ73Uy2MT717OodAWjRp9n1oB/gbs72hRO69yXRoZmgvOgxi7iAf3KWDc6G6M/CIAoEbMnLYnac2Wzl8BTfllJN0ycRa/BmM0V9reeuvT0bm/1Ot1mgahI4Q+ZAFC127CMSK69Yhoee6h0pF5VnUqChzuFKh8EA73Fa7mdzhSoNMAwqlnnhfde/SIWQ/dF1PPf1U8s3F9zHyo9TsTDkWAsHvcedFl3ZPRZcPyaJn6rug2rbHn7+G4Yao5VRToCAXaAghs0n4alVRbd6RvdRx0NBG8zFOyZqIjdZLo6/kgUIOzeaeqnwRLu/HVr371ecNwNwCzCG2DQkKmQaCZKBeSrhwFpOKPf/zjhQmi3A+7PVNLo36EWFLRU7czwZDmhVXSJjCZZN6Fcp+ZabD8GQ99efqFZ9aOsR6NP/WpTxX9uaMgS6METLzySfHalcuBB73CdwCtjTFp0Gg9a2lt3T70oQ8V/iB8Q8q01ob5MO1miJ5IjvKdGehO00CrISSxttBsiIyoynMp0GkAwQVNE044OR6+/9ch5PH4SafG3b/6xQsS5shJ8a0f+2J07dY9rv/K38SW9esKqpxzzomxbdvO6NevV0ydOjGefnpzEVnwx3/8xpg5c0H87Gf3xM63fz16/J8//6/rS/ZEy2mXRbcZ1xZOVV5C6tCqVBSoKPB8CjQCCEL/2JQxG/ZlkTUOa45sfGXkimeTF8LV0TwImIOwQCYF9yhgvv52+FHj808Q214uTAGYJ9NE3sXAiRCTu+qqq57zLD8FTonU7+mDwK+BT0BtzoTyZUYiovSf/VC3+56ppV4/OuXgyIeCg6Ln3I2AOWLGmKrQPkVoHWbIfIOOTALuFODAB4CgtzBC86x1uqy3f60JgCVUj88TJ0X9Aje1Nx4ms8WQ9QFQqQOQobWx5oVOjd6VMq2BICYV4XrGL4Qxaa2+89d8mKv4IUhuhKZoQ8hEC+DJ+exzc2amkbjq7rvvLsaGJsbX0T12uL7znQYQhBaOGDkmVq9aVsTGnnTqmTHnkQdbveL1YGkQ+gwcEide+Lro3rN3PHr79bH56TXF+p5++nExc+bC+NCHLolVq9bH7bfPiBEjjoxTT7W5pscTTyyLHe+8Jnp+/4+L51tOuzS6zfiP4qXen1CSw3VzVfOqKJAUaHQXg+Q23h32fwyPxM7Wz1eAcxpbvVhzDIl/QkcK5qItznwkfLZ0ffCoJzWyW9ez95NC2fZJqxhQ+iBIblNbSM2YlqQ2ohCEIuunVmgwV5Kw+HQXPPEfcAhzJDR3DpqYFaZY249zhgTue85/JHqSNYaXhb0/AYIxGDsfB4xPBJRnORmaLxu/CAFjbC3BXEZPqMtnArPFhI0BqKstnBP5VGSaX+AECDRHtAZIkgaNfBCM2fjQwB6R5wDg4JyJsaN1Ztbk+Gg+uZfsFQADuLT28hwAEbQscikYM5BlffigAIzmJSLEelflWQp0GkA4Zsy46NWrTyxdvCCGHzMmevfqE4/PfeQF0SB06dotLnjHn8WQY8bGrdd8Ls6eckrh/HLmmcfH4MFSuj4VJ544Ovr06R2//OWD8dGP/k489NC8QoPQcta7o9usn0dsXR8tZ76zCEeEQL0AXvaqVBSoKPB8CrRlYqhodmApAIjQfjBzVKWiQEcp0GkAoSMDPFgahBzLCRe8tghn3Lpxb2rLiRNHFbkKasub3nRukfBoX+k1IGLnltjTf1h02biieBFpRQ5kmueO0KuqU1HgUKVAI4CQt+rRHpD2Mo8+tTWpnwR8IMof/MEfFNIikwa/A9nxSJE0CNT59bzySaakStKrwrOe2YD0XFtoEJhHSKKKuiTUes+2NZ/W+mlUt7YOk4wslVTpIgr2twjJpEHgU9BWycyGTBpoje40MLQitDbo6RmSfqPsmOX5qEMrw4QgoyFzbpnW1pHJSLip6BfnMHMBrYE+RZVYN2c084e8MaJNMmsgE5EIGfzGePRjzNrh15DzYaqxP19KCeYOG4Bg0w7qOSg27jyw9zG09TJU31cUqCjQNgUaAQRJddio//t//+/FYSzhj0Mao6UK72jug9oRffjDHy7MGNrEKPgc8BugOfRZrfYPM/zDP/zDQjuY8frU1pgI23a5YDB8HKjQyz4IGFbZqa9tKu19olE/rdWvV0do4YHMC9DIpFA7rnQo5biJ1hxAMXH04Dsh7TMmjynXu+yplgacSpmXgBTmFWaRpLVn/c9swCTExAMc0OjKMAscAQlMFhwY7TPOmR/5yEcKk4Pv3Zngt3BXJg39AI4AgrwPZQdZKbAzvLK96/lifq7TAMLkKWdHz569CifFHj17xZnnvDzu/fXzbXllYjajQVDvzKPOiG0t22L22kdfzGtSjb2iwGFHgUYAgU1d1j2X+JDqMQLvvdsAXVhUe2tfRwnjUiNMJO39bN9s8hgCCfHrX//685pmJ1eHF75nMSKM7hvf+EbdZ2k7aByAG85wpFROkc0WtvZG/TRqq14dknB7JP72jE/kACD1rW99q83H//qv/7pIwsZnAyMHqGhUMHc5DDgpcjzVXqNkbeX5yPVgH6ApJs/HAa0T1CVA4Ksih0Tm1ODH8u53v7tYY1oISbdokvSdz/htr2nD87TB2Y99IRNmzkfkRQUQ2lz+5z5ALchRpq0yaPARMeHEU+Khe2+PSaecGaIa7rvz+Zee7A9AGNxrcEwYND4eXPVQW8Opvq8oUFGgEylQ+SB0IrFfYl0BlKT8DDE9WNOXyAqApZV5qZRO0yCw93BO3L51a4wcfWwMO3pk3HHLz6NlV+ObDpvVIPTs1jPePO5N8eP5//FSWb9qnhUFXhQUaBYgsFlT7+9P9sQyYUiFpE6SJGZC+nTDHzu4jI31ohionIXNZVphDMKZlKGE5fZlD6Q5YANXpP/lg/DTn/606fVprZ9GjdXWEdrnhkkmFPb7/S1CHJldMr1xa+0xbUjxTINhDUnoCq0I0wL6MYmIUGl0H0ztfPiqCAsVcUFTUKa1KAQRD/wu0l+k0fhorBr5hfBTsN5ZmL9oDfiXiBhJPxV+LPZO5neo1xeNRN5XYa719sz+rkmj+nx36vlJCBOVQ6PRDZr12us0gCCKgWlh8YJ50b17jxg/cXI8NvvhAxbFYHKj+o+KI3sfETPWVAkvDtbmq9qtKNARCjQCCA4tTIfa2MFF5UwrKd4e425PjH57xoNh03QKL+SU6ADNFM6Yvnj4cpE/wLXCGFw5DwLGUJtYiG0d8+JDkT4IEh75vDZnQnvGiqHU66e1urV1zJUtnUPegQAI+m6vDwIzAmDCbINhozmmRbVPRY/pYtRs+cwO9Up5PumUSOXPb4A/QdJa3TQxMGPwQWDm0Q+NAlAjdFEbfBKYjZi0/uzP/qwIq+VrIFwSsLMHMf28+wNI+e53v1sk8DJW87AfgAV7h+lCXgpAgL+K/zmGytUAHAGHwBLwAiDYZ4AOICPPhzEwmRgrPxb+NsbqDhBjBXy8C/aqer7PnA/oY22ZcVyIZTye4xTKwTOvc+ZsKbyXqQdA4+SJPu0tnQYQ2jug8nPNahDOOOr0wv9ge0sV2tMReld1KgocLAo0AggOUNI72zD7MQdFdmAHGYe2ejkHmh0j7aWcAOLhaQM4nznISa8OUv4FtQBBHxgGLQAJWF3OcoBDrQSa7ZM+ecxjyG6n5CzXmpTZaB4SAdXrp7V516tTL4Nis7TL53nwY2LtCeWWjwBdMXKFHV99tHSm8wUQTeCZenkU1CnPh8YAs7cfqPfVRWvMrwwQ3PppD4k0AAyMFXPUD+0AHwMZLDkkGgdQ4BKpZMaew/w5OGKiNAWADoYLcGHm9gEAZO+Yh72qAAocGj3rO8+ZG6An9wOwZJ9g+p7zt7HZ7+gFTADIonf4TXDe1Kf2MX4MHiiSmEomSvsXYJA3w/uDNpJS2cfoAPjQwgEMaOFvmrOXLECAyjg5VaGGHT0CqnoVBQ4eBZo1MRy8kVQtH24UwHRFKmDYVWlMAeAI2D0kTQz8D6CmVSueiomTTo0tmzfFogXzWl3PZjQIEBuVUQUQqlekosChR4FGAIGklirbzDqY+RDylkcqXz+NYubbM1sqYOppalbChL+pvKnAXTnttsDaQqVNaku/AhIYZlTvqmP2fhJtZnuUsc948z4AfWU/TByk1Ze97GVFHSpmphUZAtWRu4BEStqjqi6PjdpbNkFSNUmVypnUSbVubCRGdYQSYggkUzcqKuaN1tTSojgwClIqwYqEqQ3hmukzUKYHqVnIovFZi9ZuiZRpkQRMopWfgCSvHxqIHBv/DpKvM7teYV7yw+5PAjbGpBttBBqUC9oBCPqhqeCDYX7oQ6ugDWGuaEX65iOhGCu6MGl5xrPU+eiB1j4n4auLf2XKb3MT0ZH3UfjOjz3rWZK/fWwMxkarwW/C2PRv36Fj5mOwB5g69E0bwKRBa5Dr02iP68+6ZP/4nzbMk1bO1eS0Z+ho7Pq3B7KUx2bcSYP8vtNMDAY97viTYsnCx2PK2S+LOY9Mi40bWk9rWQGE9hx91TMVBQ59CjQCCBMnTiwOUGpdjJhNmmqaaQGzxQQxVz/p9NWR2X72s58tDl1hh/pkn8c8+BNQAae6uty25xzWbM+KA9cBy4ZeLoQT1z1Te2eq4y9+8YuFajgvdsIs9IP5m5/D2P8ACIaN+WGC6jj0MSoMzxjYzLPoBwMXekdVjm6YA/V5XsesDrU5RoSRA0OKOgrmzbeDzZ7jJprLCSE1sXBQtKotLp/Sh3UBTlq7dwYDp/52sZIcA//0T/+0z86e8+GjwWGukYnBPPk8yFcBqGkH3cwZ3WpBDBpi6ObD5g8AaRsD9wNsoKs5+E7oJLBDXW8+bP+e176QWyYBfhKYNPDGXGTURM9AAAAgAElEQVR9jV/a6qQBun37298umD0zBsBhn3JaNfYEZO7JQHeAke/BN7/5zQI88WlQB2AAKt2fwW+FaYKZxTthzPWKdX/f+95XOPLaz8Zn31hPPg7MD8JcP/rRj4b9iI76AjrMxyVk6JZJvrxr9mM5SqPTAALHxBGjxsayJU8WG/q0qefF9AfujpaWAxPFUGkQOnJsVnUqCnQOBeoBhFi+oIg5J9k4sBzYpCg2ZjZnvx2+l156aSHJZZbCjozYJUGkKgwcc8b4HY5stfqRPKe2qEOikujHge05zna1ORMwf0wF8wdq2JjNy0H8la98pWgW81Kf1OmQxjgczOrwbcC02MPVwVxpA3j5k9zL/WEemCPmAVCkRIhJGBubuTqAECdL881IkKuvvrpgHjQTmCbNAgc/dTAF7ZE43dxYzk/gvObch5l95jOfCRdRAVa1lzQl/dBCe3w7MGVM2Hj5Zhgb5kiDwF7eKFEShgogmHsyVHSzdpgyp78EdcaGGfMZMB/tYvS0U5xHMVn9c+ozbz4RgBWmjhbmg0GT4tELGLWO6Gdd/GC4xpNaCIAD/czTZ8CEdedTA+RZC7dG5tjk9PAc7RMQhmlba4BAf4CNOftt7MAC7Qr6lTVIwI/3xDzMD22sFdrQRqjre++L/UbTYq2sqdwSngHy0tfha1/7WvF+qWN90K/cX6cBBFELfV2YMXdWjB1/QvTq3bu47rk1k0ClQejIUVjVqShw6FGg8kF44dekLcn/hR/hwRtBSv4Hr4dDv+XUMjSTnbTTAEJHyFcBhI5QrapTUeDQo0CzAIF0R7NQjkvfn1kJA6Nqd6awB5P+SGEkeDbmeuGUpH7PpQ8Cu7M69ZzhmEmoqFNaJ0nSEpBQmy2t9dOordo6bOC0JJgB34L9LXwiSLwk6bZKpibmpU8Dk5I+DQnJG/14+xtbIx+E2vnQ0ojKoL7PsMakNQdFGmTja0vLxExBuq5XaEio6NGNWt/fSjnVcltzz+8x1rIWxhgzcqK9bRwKz1UA4VBYhWoMFQUOcwo0AghivvPyHipuh76DGmNla2YnPRCFGhlzoYbmwPaFL3yhcBLkQMeZj528XDwj3IxduXwXA5UvFXW5ADNAhkJFjZldfvnlxW/9NFvEuNfrp7V2ausAV1T8VMoHKtlUe/IgMEdQlYvNR9MbbrihAF+YO8DE7wPNOc5RfzdyPC3PR5pnTnbABXDH0TRp7Xf5LgZq92Ts/AcwZaYF/bHH8w3goEib4lnmACCF2p2qnVNnXiud5pecDxBifkxDGL7xMz/oRz4P87QPAAPqfWYQTpnMFfJj+I5vyIupdBpA6N2nb3SJLrF16+Yo/u7SNbZu2etd26i8kBoEV0J37dYtWnbuqDu8nt27RZ+ePWLDlm0xbEjfWP30XrSZpUtEeGZny+7iI39v37WroEGvHt1j646d0bVrl+gaXaJlz57i+x27WopnB/TuGRu3bo+ijR7di8+7de0SLbv3FN/369UjNm83ri7RR1s79/pxeJ7JpnfPHrFt586IPRH9e/cqnlWze9eusWt3S/ToZly/8XyN2Ndujt33/Xv3iPVbhI2+mLZzNdZDlQKNAALPfgz3yiuvLBzF2FD5I/ANYIc/ELc5OtTZiDnPaReD4Yzlb4c3+zAbdtncqY7IBxKwuwQwBwc8hlurbfAshsMRO29P5BCoD45/zRbMsV4/rbVTr86BzINAc8L+zUGvrcI5jq8DGz5mzY+AfT9T8qePBe/7RjcjlufDuQ4z5jMCZLDvo3XmyCjfxUDjA0RwALROeAigxs6f/gaZP4DDINCBedMSiCzhJ8DfRPvADO1RziejQS6++OLic8Di/e9/fwEg1bHeNB9Apb1Ec8I3QF4CPi4VQGhj54w+dkKsWrEsRo0ZHwsef7TNkMSDCRD6DRkaJ73ijfHQz78fk1/15lj66IPRsmtnPLNmZYw84ZQYO+X8GDJidNz2ratjy/o1MWBAv9i4cXOBIF0LvXvDlpg6fmR8/+6Z8a43nxbfv+6R2L1nT5x/+pjYtHnH/2vvPKDrqs58/5eupKveuyzZsi25INsYsDHVCYaA43mkDoEkswh54SWZkALJewQWeQnJTJJJeQMveZkBVsgKk8JkIMlkQk2oJoBNbIN7k4tkq1lW71fl8dvSNofLOdK9slxkn72WfGWds9u3993ff39VdfUdum5Fld6oaTRg4OKKUv32te2aX5SrhTPydd8zf9VHLqoyz9buPKi/XXGOXquuU8/AgN5/wQLd88SrunRemcpyMvTvr27Vhy88R03t3VpXfUifuHypfrt+mzKSE3XZ/Jn6+Yuv65olFYoLxOrRddv0yXedp621jdrb2KK/u3SJfvmXzZpdkKXKwlwzhjVLKw3zf2zTbi1dUKTXth7Wgjl5KshO1auba5WflqorzinXr/6yWanpGcaNZirElBMdLP7zM5cC0aoYzlxK+DObagoAEJCWTFXUzakeH+3hpYIxqtMj5UT0M9VtnjQJQkIwUaUz56ix/pAKi0uNFGHn1o1v88kMn9yJAgiB+AS97/bv67++/1WVLrpA/d2dKqqoUtOB3arbtVnnrblBO158XFlFZQp01Wr16uV6+OHnNHt2kbKz07Vu3Q51dvQoEBtrbuKZ6YlKToxXXVOnViwpVWZaop5ft1/zi/NU19ah4eERledladuhJqUlBTW/OFdrdx1UYUaakhICamzvNu9WNxIHPEZXL56rR9ZvU0owQXMLsrXj8BEVZ6UZaUX/4JAuXzBLz2/fr9iYWJ1fXqT11YeVkpiguNgYHeno0UWVpXrjYIMGBge1ekmlnt22T/FxscpJS1FNc5sqCnN0sLlNbd19+sz1y/Tgoxt17RXz9fRf9mrNykr9++NbDdhAcsENCjQMKveLT4HJUmAigDDRbZcb/PGAVKzZEQfjygXIR0qBhAJdM5b11j3ROT/05IiLqUcZLykQNg7o1hE3U7iR8t2xLmqoTRA344HAoctcsFtAp8+NmH4A4txEkaJwE7UxDZwufbRBHW6jdj70w+2V+WDBz60Yi/rwglictp3FjsWOzWt9sUHArgG6cSMfz9CN2zrjoT/mg6SGYmkArfFiwKLfKxdDOK1ZM8Jlo7pgvZy0pm3GZ21FvOYAffghFDKFUNiMD88ZChID5oe0iTHz3D5ztsn8GYtb7Azeow8kQKizUDPQjpU+ONux/SC5mGxxW1PaQkWF6gup3PGUkwYQcvIKlJtfpNoDezV33iIFE5O0cd0L5kvhVU4UQIh5c4Nf/48/1XM//YE5LPJnz1dqTr5qNq/XyMiwZixYqk2PPazZy1dq7yt/1oySbFVUzNCzz27S3LklqqqapUceefHYsGnjf/33S/X9n76kJfMLlZedYphtTAwi/9HXeMeKMJ2/20ac78bGxBhpxGi9t9p4692J2nrr+dvaQgVhVRFjjQFsSosytHBOvv74wi5dv7pK//aHt4x4OOgo1pf6eDabX/fspYAXQEDsj8gfn3100zAMxNE2TTGxC2B4lIkM0Maj7l133WVEvjBWXANhsojN0UdjTBduV8ABi30EwMSmnIYpEOwnPOUxDAC9NEzBJjOCSfA3m7cB5sN3CcCAOsKK6rlVwqToh3ljj4HeHvAA4+AMdIIXXPwQ39vAQNCHfqAb8+FdRNrOOjyH8UFnxoe+HCaJTQZjgdkCoHAp9Sq45gFYCDNNHVQD2GjgdhnuiWa9JaAT86Fd1hk62fkgpueZG+NkDE5a46II3aAVAAePBCeteR+dPzYSMETACSoCmDvrjRsnagLOMOgMeEJdAqMn3gLhsaE5obUBY8S7wPYFuhGrAVUJ6ghsFGgbcIQKA/UUtirYOGCnwHwYG/2gFgGswd/oh/55HxWGdWWlHyQKrCU0pE1cDYn54CzsC3gGLqGoLFhLpCbQwLmmjI3+oAHvwtwtYKQOhrN8r1avXm3AK3ucsY+X4OqkAQRE1SPDw+ru6lRySqrxw+zrfbvePnxzniiAQD9xwUTllc1RQ/UO5ZbNVWdzg0L9fcqbVanuliZ1Hm1SwZwFajl8QKG+3glP9uK8NLV3jd6yua23dfZNWOd0eWHpwiLV1LWrpb1XudhTtHQfGxq3KA5mNphffApMlgJecRCINcAhi4TKGQcBpsXBSLIcvAlgltG4ZznHaQ3LOFy5dZPREYbKjRjGwy0sPOcDhzqGjRhO3n///ebw5tDHEj/croB2sFfgUIbp0jY2FczBGqUBQpgHQAQrecYBUyFXAwGL6AcQwQGPUSH9AyKwureGmjA9mJhNtsN8uCXSDwyPcRA7AWYJw7OXL8bGmGybgBcbmAqmD+ihH69MjdAPmwDqfPvb3zY++qwL9LC3cSe9Ye4ACBt9EWNFGBr90w9MEd19eDwJZxswbktrDAyZF2OwBobQ2tKWvBfQlSiQ0BAQQ2RLAApSC6Q63OaJrQHYBEhBK9pnLwBSAKcwXNYFYAD9vvSlLxnAwDyIafCd73zHrAkMFSYPg2XvMDbAA8GjkPzQDy6FMHqYMv0AjpA4sPYAHWJB0A9qEcZtvWoYq831AZihfQxOmQf2LZzHABriJ/AMYAEQAswyNtrhe8SZzbgZP2MhXgN1oN/NN99s5s/eYd4WIAAa+M45vTxOGkCYzMFyIgHCZMbj1/Ep4FNgchSYSMUwuVb9WpFQIBLxeyTt+O9MPwoABGD8XpKaiWZ00gBCQkLQiLcHQyElJiWZcSFB8AMlTbRE/nOfAtOfAtECBJvJLprEMuNRidsTZw3t8km79uDkJuWmC7eR86zeHikCddx0xrzLzd769XMzRUpq7ReiWcHx+vFqJ7wOt3V7wZoK+yErko9kPowFMTc3XBiUpRcSEJvNkGfQymts4fNBigFNWQvqOmnN+nGbZ84Txc1gHl7pr5FkoX6ydiD8TgnfB9Gs5fG8y7yQiITbjRxPm9HWnRAgQHQWx8tWgOfWfWW8zrE/yC8s1q5trysjM0dV5y7X2mcfNzp/r+JLEKJdTv99nwKnJwW8AAKiZsTciK9hFohPOaBxb0SXTZjeqSjf+ta3TA4FmBK+8IhcUZtx+GIbEG5wxpmGOB/mYOMgIEamTni6Z0TAiM4RJaP757y87bbbjL7Z5mKIZg5e/YzXRngdRNrGvio/39VgMZrx2HcjjYOACuKhhx4SoZ1JkYxYG5sDDP8YJzThE/E26+1WnPO54447jKupFekzN0tr6lo3R1QRrA/7CHE740VkjiqCNUf/TuwLRPAW0PE7TBg7CVQYNvU4+TcYMzYIdh+QzwCaIs6nT2IzYGj4la98xQALCumY2c/YHAA6cc3EJoEbPH1a912SaQEAmAc2ERiqso+wKcBgF0NPVByn2jXSEyDA+LHMxe+UyYPesMgMR3yRAoTsnHzNnFOpTetfEnkZisvKVeNnc5zM99Sv41Ng2lHACyCghydvALptmLX9QZePP7lX1LtoCQAQgVniLcChjMEYt1D64aYf7o8PI8A+Aj0wumd0wOi1qYMlvbNwM+Yg58BH/8wtlpwFGI3BVKItGBG69TNeO2510LsTP2CqMtxGAhAYo408iAEjNCBYlPWswK4DewGYLgZ0XuvrnA9GfLwHcAS4wUShNUGNnAABnT4AEHsO3B5JFoXEh/VmL0ELkjRhM4ChHqCQsWIHwvjQ/+NdAmBgr7AHMAK1+4CcHPwNg1rsPDB0xcYA8GI9bAApABgkVtiGMCbA6Uc/+tFjOTCIuIkkhj3Fe9gLIGnBVgNeS+wIPsmfcFoCBIiAQQ1GERjXsBgYXBDZDGTmdJ2IFCDgOVBUMlPNjXVKSUtXR9uoxeV4xZcgRHu0+O/7FDg9KeAFEBD1c+vjjOHc4ULCTYoDl8MzEpF2JDPmMObQtWl4YSL0Sd/Wejy8HYz3eM+Zvpc61pXR+T4MiDFzHvK+nc9kjHsRdXv14zVXtzqM3yuUcSQ0c75jVTRe4nnnu1wmbewUGDpgh/kAVLgZW5UDtHKmHna24ZyPVVnAD+if/0NrW5fbPIaH3Nzpgx+e8WOTGzEOLrcwb/aAXVPegSHTH3+j2H4YMzd/5z7gOaDDvs8nfUMfJAZIwjBW5B3apl/Gat0OATeAU4Awe4b63NKhEXQBbLJPydIIAMIjxcudMto1nMz7rhIErB9BRzZPOZscxIVYBItIULItkQKEvIJiU+VIY52ycvLUevTt/rhug/cBwmSW1K/jU+D0o8BkbBA4VCdrXBVOAW6UMAgYDGJfGCeMDAkC54wbEOF2iTTAXohgTNxicQ0LL4iUsSa3gMBG43PG4490Vcbrx6uN8DqALc5qxPiW8UXav9t73OKRtNDeRAUwBsND+sK4cMu0xboBIuqHx1iPjPA2veaDugJA4KQ1/bGWtAXzHa+wD7xCT7PfnBJyKzFx7h3aBuTQn1caZrf+ARuApkjsQSJNLAUoYe8igZiKNXYbtytAQK+Cns3m1waR2TjV6AVxbbHoLVKAMNGm8gHCZCjk1/EpMD0o4AUQOE9wX+QywiHHzYpbHrpppJeIf6eiIK7lhom+F7969NKIlbns4FIXHgOAmx+3OG6H3/3ud80QCO7DeYd+2lm4LSJapqB+gDmjN+eM/N73vhf18L36Ga+h8DqIyWFk3FDdgiZFPagxYz3E4+MV5k5uC+w9sDVA74+rHTdr1A2I61E9oGe34Yrd2nPOBzE7YALAhkQH905Laz6tDQIqccAIN3DLjDFoxAaAmzhqCtYaaTg6fyQHAFDWCfUDa8i+ACiw7sR5IAaG3Tu4gVppAe1Z91MkEqgaAB5Iv+gT2tM++xqaAQyQlqHKAnigXrGFGBE2DgbSKeaBFAKJAt8Fxo8UAlBLv7SBioM6ACZA6UTGmZNZb+q4AgSkBQSGsP6yLCxEgLAMHiJa9YAPECZLer+eT4GzhwLj2SDgY07uAg5UboAc8AQ14ibl5mc/Garh+81Nk4OaQw9jNP7PIYzqFL9+a2hG+4h6P/OZz5hPdMMc/JyLHMrYTDgLTBidOoc0ZyRMB8M1GA9662gLlzG3fsZrx60O8QEwFpyKAlNDXA/ImqgggQaUEAgIpvbjH//YiOChy6233mpAE7dyihd4cc6HfcC+ANghOSAWALS2oZUtQID5I+2BmdpYA9z0AZ70DwgA7AFesEkhNwNSB0Ao8wNUMR74npXAAPgYC88wmLWGhLTPHrISdWJNYNCIYSOBmcjvAfOG+WMIaW1BAL6AH+wWbIGnAgRYc+wlkArwHsCCPQkggM8iuUISwXMADnWQ6Jx0gIDkAOMM0AoT44uLsQVoEJ9aZwKVSAHC/KrzTPTErZvW6bwVlxs90YZXnvfdHCf6tvnPfQqcARSIVsVwBkzZn8JJogBMGGDgFbb5JA0jqm4AIYAkgM/xSHiQqnCB5+dEFFcJAugJtxCAAO5AFIAAISexQHXqBSMFCJlZuZq7YJFeX79WKy5/j4mouGn92nHn5NsgnIgl99v0KXDyKeADhJNP87OlR/gVP9hInG0F/nsi5+3p5ojYDP0J+h4GAdJBZ2RzbduFiBQgsICFxWXq6+0WiZsys/O0b/c2hTzSKdO+DxDOtu3uz/dMpYAXQEB8i44VES/iVET+iIMRpyK+JU3uVJSvfe1rxiocV0UuOIT7pW9c4bBFQNzsLKhU0aVjaW5jMeAnj4qCMLzOgs4aIz7Ev6hmbRwE9OWkkY62ePUzXjvhdRA/o0JBND4VeVQwGrQGceONg7nbOAjf/OY3TQhr3AqxI0A9gcgf8Tl0hXcQMtmtOOfzuc99zqhKqIOIH1WHpTV1UTHYcMoYm7KPbEpp1ha1DxJwRP6oP+BleCYgmkcFgmgfNYO1QcCmBBsCLsnEcrB7hxgGGJ9CB35Yawp7hXDJ2DjAN3mHH9Qg2FogIbB8k32G/YAzrDVSeejLu9DGhpbGnoLvAnSzqhNUGKgVULcghcfTEMPbk2qDEM2GjhQglJSVm/gHh2v2qay80iQjOli901cxRENs/12fAtOUAl4AAYaNTv/uu+8+Jia2seQxCJsoQ1+k5Pj85z9vDMxw0+big486omkYA14NMLFwgIBBHQwWvTWMCSYAAwjX6/M3ngEesJlArw1TQfdtDRwjHSfvXX/99a79jNeGW51rrrnGZEz0ciWMZky8G20cBOIfAPhgstargzYAf3h9wMzdsiWG0wADR7xBqIMondTJ0NrGo7A2COS0wP4AAIhdCfkOACzo9WG0GKQCWgjehAGqNUgkvg8MH0AFmLJxDMirACO3e4d4BuwDjA0BPAAP9g5jY08xV/Yze4lPvAtsgilsangOeKEOYMUW4lVYGwjGivqBccD4+S5AJwAQ9QFGzIUfbveM4aTbIESzcSIFCNG0ad/1JQiToZpfx6fA6UcBL4DA7YsDEMtvzhIOX26KqDaJThiJUVwks+XmStsc8NzsYTQABhgNRnBuAXvQEXMww/C5VeLZwDjdbr0wCMaMUSMHNnPg90jiBoSPH0bl1Y/XXN3qwEAm42bp1ge3Xm6skQA2bNcAR9yAAVjc2JkPBebILRpmT1te4MU5H6TYGOrZOkgFoDXrSLGJoNhHiNtpk/55jicMjBrGirQAnmJ/Z01Zf+s5A7AAUNi15GbP+tEWe4dbPHXYSzBy5oGxPnWgD/3YYFzsHeowf8aDfQSAlL2DgSFjZf8BaPhkn/FdsEmgqMu+Yx9Rl/gJ2AWyp2ywKMADYAnANe0lCJF8icPfme4AIZCUqKHe6ZPVcTJr5NfxKRAJBaK1QeAg5MCMxG88kv45hG3qXd7n1s/hjaU4tzenr75tD6YGs7fiYRgLomm3mAkwY8tMqM97AB63oEoTjXe8frzqhteBacFYYaRTIUGAqcF8rU3aeHOw8QQAY4zLMi8Ym6W1V+wJ264bDQAGrBPSCCetYdqoCQAENqKh1/hs0CW35+w3aMVccVm0dAvfBxOtH8+tpMG+y/iYP0x9OpUJczFMNJlIJQgVC5YoKTlZ2zf/VUuXXaq+vl5t2fjquM2fSIAQmxhUTGyMhgdGY2gT6XE4NKi4tBQNdnYpNjFRIzyLkWLi4iSMYMaYPV+AgVBIgdRkDXV1K6EwX8P9Awq1tik2Pl6xCfEa6ulT8uxSde85oEByomICAQ129Sg2Pk4x8XEa7hkFDuFhUGNiA0pMTVd/d4eGxyJNxsYGlJCcoqHBkAb7+5Scka3ezjYlJKWYNgZ6exQbCCgQn6D+7k5TfxgU3ddjEK9F2hOtpf/cp8CJooAXQMBljRsaPzA1GycfcSohbafKBuGLX/yiubES44WbIHph1AEc5NzSwiUVnGu4qsFQCLVMIVwuYAG/fmeBsSBypi3sHJgHKhOYFWL2aItXP+O1E14HQAQIgjF5ifGjHVckKgZrf8G8Ua8QTweffm66gC2YJHr2Bx54wLhBehXnfFatWmUM5uEHzInbuaU19Z1xELjFAwSRECGFoF/SGSPVYE9h10JwLIqNlYA0AFsJ7EiItwCwYh/CHLE7CN8HSAIAKcyD91AbXHnllWY/EdeDMZDymr2ALQOSCfbXqQ6bHO168/5JAwjWi2HH5g1KTklVSdlsbXt9/SkxUoRBl99+M6hATY88aZh0sKRAAw3Nhrkn5GUrWJyv1pc2KDaYoMyLztVge5eaHn3K+EKDKP9YX63+hiPqPXBY8TmZBjwMNB5V6WdvUMsL69VbXauMi85Vy7OvqvTvP6q2l0f9h1MqZkmBWHX+1/PG95sD0Bn964L3/Z06mxvVVl+jxn07TZ3skpla/oGblJZXqMd++FXlz16gtNwCpecVq3jeIjXs2a4ZVUvVWlejF39+r85973U68Pqrqtv5hokJjz50quKxT2aT+XV8CkwUB+GrX/2qYb4c4ty6OWQ54N2iFk6Gmp/61KeMKBedPIc3CZgwCkMXDOPBNiGc6VMHSQB++zC+D33oQ4YxETPBWQDhGI8BckjWRCFpD2UygZIYn1s/483brQ6M7f77758Mud5RB4kOonWvKITOCojo0aF/4xvfMNIWDDUBXIAtcm8Q9+L22283tPE6l5zzAYAh7UGMD7izQbWsoZ8FCKwP0gr2D/YXtn0AAGc2wYkYC4GP7r33XgNcUDtgh2J1/zBy1py9grSCdbf7ALADwMHQkXrEO6BvbBmIOUEcBBgqfTEvjBgBVcTIICeHDxDG2YoQuqC4VG1HjygQiNOceVXavvm1ccVfJ0qCEEhNUcbyxQYM9B44ZEadWFqkkcEhde/ZLw2PKPfqy9T28kYDFGKDQXVu3a2UngGzWTByqWmoV9bKZeqprtFAU4uGeno1EhpU/rWr1PSHZ0yb9NG+frMBCIfue1jpF1QpIT9X3Tv3qa+6xnxZOARxHbXirCs/fYeef/CHyiwsVXNt9TGAkF8+X8Xzl+jg5vUa7OtVXnmFejvalVFQrJwZc3TkwC7t2/CSWg4fUMHchSo/9yK99Kuf+BKEKTke/UaOlwJeAAHplo13z6HKrc7q8TmoJyOidxsr3zPap237XeN3+ofBu+UsoH/Gw83X6of5dAsPzLuoQ+gDoMD/+d0rlPB49AQcePXjVc+tTriY+3jW0GaHjGQ+MFdnpF1oi8oAFYXNzQAThdl7qT+c87E6eut5AFiA1lb9ZAECN3n6gO58sg6sO/p81trmYuB3+w6frK8zFwP9AFaRFPPMuQ+gIWNz2pogRaAf6rBuPKPQNv+nQDcfIIyzA/FiQAx++OA+lcLcurvU1DB+2M4TBRBQF2S/+0IlzSxR03/+WelLF2qoq0ddu/Yr44Iqde/ap2BhnlEhdO/ar6RZJdKI1PbKqBQAlNgcGDbSgLZ1b2ikf0CZl12gtr9sVOqCOerYtF3x2RnKuny5Qq3tRq3Q8uwrSiovNW3Sb8vjLxwzlnGSLXdWhUoXnqfarRvUXLPXPErJylV6XpGyi2eqZhCxmFgAABsNSURBVOtrmrNspbpamtTX2a6k9CyjfkAdkZCYpG3P/VFVV1yr1voa1Wxer69//etG3OlLEI7nePTrHi8ForVBON7+/PpnDwVg7gCYExUsaCooyfgAR85Eh1PR7oluY0IVA5bEICmvJB2R2iBMZiInDCCMDSZtyXz17D2ooe7eyQxvUnVS5pUbFQbqC68SG4hTen6RktIyzCtdLc3qbG6Iuj/WBvR9On9xop6UX2FaUsALIOCOhloBOwBu6xyg6M0xQkOkPFW5GBD5o8cmSRC3OW6VWK8jNsZvH524s3ALvOmmm8zN8ic/+Yl5RChfDnkkiM7CLREVAzdIdNlWD08ftm40i+bVz3hthNfhlm3zH3jFGohmTLSFGD7cHTS8DeZOKGGkotAcVRFqF9YSeqO/pw1CUOM+6FWc80GtizgfXkQb2BVYWlMfCQISAzwWsC9gH+G9gUcBPISYCDYTMW0ROwCJBhIF2uF3IgZjg4DKifgXuERSH/dE7ArwoLBhs+kPqQL7lv1KO7gzog7Dpoa+iVOAigF7CfrAXgH7h/BU4dGswal41xMgQCwmbtNY8jv6FAw+nJmjpjNAOBUE9/v0KXA2UsALIBA/4MEHHzR6YYz6cOlCZMuhziFsDcqOl2Zf/vKXj7ncocMmHj+HH8yTQxzG7kw/DzAgQA+fJOyxsQ4wTiM3g7PAYD72sY+ZsT/99NPmfIQ5Ugff+WgLOmu3fsZrx60Of8NQbqoy/UVipMgYCf+LDQL6ftwTiYMA6INX4PNPDgPogx2IV3HOB1rAfzAwZT+QGAlah8dBIPYAKin2EcGGsDNg7qgzaAOQgV0C64ddFgaIAFFohIoAxo8Nwvnnn2+8W7Bn4HIFY7f5EACDBF0CGODmaPOFADwBQwASgJS1QUCNTKGPM0bFwEKuXLnSpLO0ohtuokweNxenm0+kAAFkWTprrmoP7NWMmXOMcWLD4ZpxvzsnWoIQ7RfXf9+ngE+ByVHACyBwrsBMCA7DrZ3bvbUe55APj1o4ud5lDNtoG0ZgQ8VjdEfAJJiXm3scN1JuiTAKzkFsFawff/g48LgglgIMBOaB3zrzgbFEW2AwXv14teVWx/rIR9u/2/usBbd0jDwnKkRB5NbMTZ31xX+f9YVpchNHooCEgFu7V3pm53y4lcOMYcwAOYxLobW1h4Cx8zu8CJsGbBFsHAG8CwAGgE2kD4AX1tvGPmCcGCPibWAlrUjMWUf2B3uTiJusKcaIFAAHng5I1QE8GD9CH/qx+4T3aNOCMyQIgAibYGoiGp4uz10lCPiBsihICyASk4YIuJ6AsEBKNv5zpAChsLhUaelZOly7XxlZOcrKztHuHZs1GBp1M3QrPkA4XbaJPw6fAsdHgYlsEJxGYm49ccE4HjsaDnzq0w6FTxg4zIS+YSjhBXUCUgXnWUc7bjdymIo1kqMda5zmZoRn52r97sPHRp/0PV4/9GcNOumPd5mPWx23eP12bl7zCacFUhIbgGiinWD749PS2NKccWMYOtF6Uzd8bDbIFXWdtJ5oPP7zyVPAFSDgLoJIhAUisyMoDxTIoqGPsRke6TZSgIDUID4+Qc1NdUpKTjUg4UD1ToUGBnyAMPn182v6FJgWFPACCOik8dO/5ZZbTFhb6w5HCFnOGv6GGgJx8PFkvSMdL2oLbqGoMHDXQ9RNOF1uieEBmQAQpIjm5omInEI4YyQNNga/JTzvonNG72/dHHHxox9SHTsLDJIQwLjFodMmPkP42NBho89mvOEFXToqEcb161//2jBgcgYg6YBxWokLf0fkjsrjtttuM66ZXLgQqaNW4YwHJLjNx21D4S7NLRp3PS6QXnYN0ALxPSGN77jjDpMBmJs2EhyrwoH20ODjH/+459510hrawnOwCYB+zN9Ja6QE3P6ZGxICtxTh2IhgV4BkB7ADrVhzL9u6afGlOgmDdAUIGAyhd8GYxFpfIobB+ATio/+JVoKQkpqmktLZ2l+9U4uWXqjBwZAJlDTercCXIJyEHeB34VPgJFDADSCM1FWbMwUxNLdDLiIwa4zRAAScPTBjGBm2UFxSJltuvfVWIzVA7H3VVVeZ+CMYzsE00K2HhxCGgZC91sZBoF+YKioK/PidBYYDA+JmbEEOTBkmjf1CeLH6d/TTvB8+NoABag0LNmx9wBPMEfpAJ8AODBspL8wXJmyZo40Uiaie+fF3/Pd5F/ABk0Yn7jYfNxrTD1JkVAzYp40nKrc2CAAr+AYgybotMmYSZE1kg+CkNWvAZRX1BKCLeVpaM1ZsGZgP9IJv2TgV0It2AIJ8olpCvQDQAEixvzBc9Ys3BTzTPYPKsDdgowEIQI3o4PiSOvNuRypBmMwi+ABhMlTz6/gUOP0o4AUQOIA4/BEZc+jjM4/u1no2wAgxBLMJayY7MyQVXGq4gaJ35neYFu1yzrgFZMIGAT947AhgJgT64RMVa3jhXRv+F0M59P8w7XBQw3kJo0anju6cMxam5Rwb44MGbgaa5AfgtmzD/9rshdCIG7Htj3ObMREAClCAzh2QhZqA2zc6fMCG13zcJBeoLxgTdAvP6ut8HwAD3QBkjIM62FSwxjB7xmRp4BVXwTk2PAQYLzRFcoH+H1rbPBdEbSThFxIO5uNGc9af8TN2qw7i/25rOdk9dibW8/RiYPOyoGw8NjxfEhYNkYwz/7QPEM7EbeHPyafA1FJgIhuEqe3Nb83aWExFHobTnZoAhqlw5Tzd53kqxjdhHAReQMTnZY0bDUDA7qCjrUXZuQVqa2nW0NDguHM+EyUI559foQ0b9ph5m1SkSbk60nNEJdnp6uobUPtYjgaeLy4r0OaaxnFplJOWrIS4gIJxAcUoRvuPtGpRbpW2NG89FfvJ79OngCsFPAHCrGapRdIfJH2KkHOSMt9MfEDk42JJbOMqSfljn8RW26fI6hBG5EVJQUk/lXQ+4U0lrUdfQDB+SYve7O8eSajD75T0c0LgSeJrVyCJlCmkXuD9zWNTK5VEtOXVY+3eIekgGaDG/v7SWN25GC7IuNghEcnPJwbDHqWmzlFHxy6lpJDxr14pKTO1bNmP9dJLN3AqaGRkSHFxKWpr22LqHDnyirKzl6qra58qKv6Hamv/U/HxRGoc0sjIoIaGBsznnDmf1KZNtx+rk5lZpc7OvUpPn6eysg/o8OEnFAp1amiox/QTG0tyol4NDZHlslCtrW8oPb1S8fFpWrToG9q7934dOoRdSLw++MFa9fUd0dq1H1EgEFRq6mx1dlabOhdf/DO9/PJNWrnyEb344nUqLr5GdXVPmbE2N68z7Q8Odqu3t07DwyElJRWpqupO7dr1/5SQQJKlJgWDOWbOPT0scIzi4pIUG5ugzs59hk7QIjNzsaFfZuYi01Z//1EtWHCbjh79q4aH+9TQ8JxZoDlzblRW1lJt2nSnMjPPUUfHbqWlzVVfX6OZJ/0MDw9qeJhojC3m/4ODXUpKKlF3NxkoZ5r1gZ47dvwf5edfYp4zrvj4DDU04M0wopKS9+ro0Q3q7z+i7Ozz1dGxUxkZCx3zSdXIyLCGh8ks2WT6YdypqeVqacHDg/XZY2je29uoUKjdzOfQIb4MoyUmhmifjQoG89XaShjoyjH6pKivr0GJiUVm7nFx6TrvvH/Syy/fqLi4VENH6GbXNBBI0fz5t+jQocc0MNCigQEyU+ZpYKDN0M9Jt40bbze0oUwIECY67yIFCGkZmZo9d6He2PCyEpOSFRsTo56e7lMDEGJiNP+S9ygxJU3b1z6hgbFx5MyYreL5i7Xn1WdVVLlY6XmFqt36V81cstwYU2575g8695oP6/DON9TX1aGKi1Zp659+r/5eNs9oufrqC9Tc3K6GBoxm2rVmzYV64YXNuvzyRXrmmU16//svMc+ffPI1XVpyiWHk7f3t+uCyhdrdcFSt3b1aUlagP22p1rXnz9fRrh7ta2rVrNwsJSbE6fnt+3XFwnJtOFCv5GC8ls0u0ZbaRl1UUWpo+uDzG7Wq9AptaNqgtv52Y2SKgY9ffAqcSgq4AoS6vWq+uXmUcS8cY7Iw48skgaGJWPtbSe2jjFb1YzMoGmP2E9WZIekqSQ9LegxTf8KSSoKPAApWjgGTm8f+/21JT48BB55xf2FsZZJukQTv4u//PNbmJ958/+Kx91aN9fFFSQuIqiTpH9+cx8dGM0dKyZo9+yZ1dGzTvHmf18GDv1Fh4ZWGuQQCScrNvUhPPLFcWVlLlJxcolmzrtP69beYOnv2/KsWLbpT9fV/UkrKLBUWrjLMGlAwc+bfqqen1jACmMzu3T8xderrn1BZ2XWGAcXExCoj4xwFg1lat+6ziomJM/2Ulv43DQ2h2mk0THHLln8wjHv79u/r3e/+g7Zt+575e3s7KoIblJxcpN7eBgM6YM5tbZvN76tWPa2nnrpUixf/b23Z8m3l5a1Qc/N6VVZ+RgcOPKzZs280jG7rVghCqOIiw8y2bfsnw1hh+DBuxmhpMHfuJ03boVC3YXTQq7T0A2psfE55eReZsY0CkScNkMjPv1ihUJfy81dqYKB5DCDcoRkz/kbNza8qN/di5eYuV2Jivumnu3u/ATUFBe8ytAYIlZd/TPX1f1ZR0VXaufNHKii4TFu3flcXXvgvSk9fYEALNH7mmSuN7RwAoa1tm2H+zvWx8wEAABAAIbt2/Wisnz+aNRka6ldp6QfNfAAie/c+YEAfa7x69TozNvZJZ+du0z4ACbAEgNi16x6VlPyNWlu3CDrl5FxoGDqgp6fnoKH1nj0/VWnp+7Rx41e0aNHXtX//vykn5wIDogCjKSllhhbt7Tv0wgvvM8DNAqsNG24z4z6pAAEvhkBsQAf371YwmGgMeE4VQEhOz9K8S69WXDCo7c8/pu7W0RScM5esMAmOzn3vR3R4+0YtXXO9jtZUK9TfpwOvv2KyJC5cuUY5pXO0c+0TRgKw6YnfvO3cXbZsngoKslRT06Q9ew7p7rs/oT//eYPRsz755Hpde+3F2rGjRrt21eqWJZ/TA1sfUP/QW54cOalJumZJhdbuOqhFpQVq6+4zQACQgIRg5cKZCg0OKzQ0rJaubu2ub1FCfEC76t5KI7owe74CsXEGfByve9ipZCp+32cOBTwlCO9tluLHbvkdbwIBDPdnSiLQ6BpJ//qmFOHDkraP3dC5Uyx/k/lGUgf7M272AI33jUkkIKnTseBdkvghpxFA4T5JV0rikrhEEmEM3jMmsfj1GHhYPCZRuPfN5yQkJAijvSMAFAA0aWNjfFpGd15bO2AYHtIDGNXRo+sNKDhy5CXDrBMTCxQM5plbPcwVZg4jaW5+TTEx8Soufo9hFDAC2uBGyyHOrZNbOEzIMgD6ARTMm/cFVVf/TEVFV5pbY2xsUPX1T+ucc+4w/ezefZ+ysqrU0rJJM2deb5gIoANGA1AAdNTW/s4wnIKCy82tGQaZnj7f3Jazsy8wQKSy8vOqrf2tkRLwt4yM+QqFOkzfMKmDB/9D8+d/UVu3gsBkJBQwusOHHzO362Aw1zDHc865XYcO/dGMrbX1dTNfbv+Mbc+efzk2n7S0CrW1vaHc3BVqalprxoqUg/ZhdDBoGCrjTk6eoe7ugyov/7i5+UP7hQv/p3bu/L+qqXlUBQUrlZRUoO7uWvNuVxf2JuVqb99uAElb21aNjIQMM+3qqtGSJd/Qk0+CCkfEOAAV27f/0NDHro+dz8KFX9G2bT8wwIp50E9r62bNmHGttm//niorbzE0mjnzOjU1vWj6YD5Ii5ACAP4aG18wYASasRasz+Bgj8rLP2qeIVUB7AAc09MrdPjw42YNaK+s7MPat+/nx+rMmnWDkeisWHG/Xn/9a1qx4gFt2PBl1dc/ZdbF0s156pw0CUJ2Tr5J1rR35xZlZucpEIhVY/2hU+LFEJcQ1AfuvNekeH7sn+88BhDKFi9X3a7NOm/NDcopna3ejlYjKQj19mj/plfU29mq8vMuMX8DVBTOXai2hkNq2r3ZHAIYHt1883vV2zug117bqZkzC7VmzXLdd99jKizM1tGj7SorK9Du3YcMQLis5BJtHpMg2EX5xMql2n74iI50dKuyMEedff1KSQyquuGoYfZZKUkaHhkxqogFJXkaHBo2agUnQBiVIGxUW3+bvvCFL+hHP/rRcfmQnzlsyp/JqaLAlNggwHQBCKOXm3cUpGUcaAR4843PTtVKv7NfGCbggQLzHxrqM4zcWZCa8DeY7Iksx9NPUhI6L0CSFWV5j9Srn0AgWcFgpnp66iacZmJioVEjAJ4AXFNTYpScXGxUEKiJUFuh+gBQAjxQW70DIBSff9lISkf0sf5tQ6gZIinxBLggw1Y6Skapq7N9XMaF1wSWpk6jSK9+sJPAqDLSkpyRrZTMHLXWH9TgWCyG+GCSBgf6lJiWYcBDIBCvwdBohrZQX4+GQiFlFs5Qf0+XhgcHRRskRWL+uDrhRlNamqeOjh7zU1iYpeFhMrr1KDMzVfX1LUpNTVR//6A4MGH4wUBQfYMoOkdLYnycUhMTDAAIxsdpaHhEsbExGhgcEiFeQoNDKshMVXtPvwEKmcmJRi3Bc1uKUgpV3z26nsRQ9w/LSHeF/96JogDfA/axLd1pBeo7sF2BQJUCgVFdM7dAbn3cUBEdo/utq3taxcWr1dj4rBYv/pr27HnA3Dj7+5t1ww1XGbe33/3ud6ZZG8oW90TCN/vFp4BPgeOjgJEg6AtPjSi55B0tJQRiyHysQf4ZK1lP365g3QbjKoIfMaFKT1XBXQd3oIlylIdHOYtkvFY0jyrEGaM9krqn8zuzK1DcvlUyMjB2kmu6W9RBQ4PjG5KeznM9U8fGvrfJYk7XOfL9wcgYNzy3WCf92TMUaDqgysofGGOyyy//D2NA9+KLH9K8eX+v3t4mxcenGJFzQkKWuVmiy96x44davPhuI+tPT/+TAcAE3cFa3wcIp+tu8Mc1XSmAe+o7AALAAEhwdUWqHt/VaUBCOEDAMnfOnDnauHGjcYUkuAd+zF4FF0nLyDk8YOz40hLiNDxvOc8JeMHNnAMGv9nwQlwGgoCQVAM/WQKqIGmgH4yCnFHXSPLB//GppvAc1xg8M8IjqPGcsRHsgyAf+M/yHmNnnozJLcLZdNkAToCQk5Ot3JwcxcfHqb29Q7WH3p5+2wIE6IUPuDP+BfNl3YixToAbZyx7ApkgzbGuR4AsG84WuvMue4WoZqyvWwpU6E891m2yrlrsUfyx8a0PL/iR4xsOyGUPWv94Polkh382Xw6YMfvPbQwwadq22eXYL+HFZnMjIA1ztd8R/LXtM3zhbVvUZwxu+5JnBHkhTwo0xB+ebHMU2mI9iPnu/B6yl3FTtmF9I5HGMTb2Od9Pxj2ZFLUEI+L7xriIUR9eLEBIS7tG+/f/QhUVn9XISL9qan5rrN9ran5n9LrV1T9XZeWnjf61oOAKo3vOz7/ciKwXL243sVnIHAgI8QHCdDmF/HFOFwq4ShCunJuixq4hFafF6ak9b1noMykrQeB3DioikxEzgUAjHEQk6uBQ5XDhgCCUKQceQS14zgHHQUn4zEceecQcdOR9IM2mTaJiQ2tySBJ5iz7Ck3qQcYtDm+Afzz33nOmD+hwYJMUgqQeFsRCBi2AkhB2lDuCCQ5kDxS35CPNBZcC4AEBIEIjsRhpQIpwRlcyOdbostB2nEyBcdeW71dHeodhAQM3NR7Vnb/XbpmMBArSDhqwRKVpZR9LjkqgE4EQK1fvvx8pLJsobz/k7awStCdvN+sBMYcyACiRPMHBExG6qISLRkXGPeiTCgWmjRmI/IVJmjQnAQsAVAqPA6ImKBrjkk/Vj7xAhzy0CHwCUcL533XWXCCMLcGEv2TC8MFvS/dIHtiX8PbwAGAEPJHNhD7oxUsbF3oFBM3fc3SirVq0yYWgBQdCXSHy///3vzf4kGA7hh93aI9QuAIzvxLJly/TQQw+ZPU99m2qY0MSAhN/85jdmDeifd9jH9AXoBZDwO/XDC+sDoGMNAXH0yXcRgIh+n+8F0VYBVkQCdCs2+Q37hrF6AYRwuhYWvtvoRbu6sC6MrnD2UJjndEurG91M/bd9CpwcCrgCBFSFH6xK15/2dCs0NKKe0FtWQRYgcBCTvIkDj3ClNkkIBy83Gw44nsPYrfQA5sphRZxtmAa3O24rHGIEYLLRuTiQuLUDHjhUw2+ukIZwn/TJQcgY+J32YCIcnIQFpRDnnIOTw5abHjcuDj0AC2lDSUjlVpgHDADgA2OkXeKnMzeABn1Nx+IECMyp6hx8smJGQdCWt8dOcAIEC+IAhYTG5dbGbZT1gyHxf5gbzIe2AGDQEAYKmOKGB0BA7AwDgomTTpeUsG4FBgXDZu+wD/idkLEwLUAD9WG+tA+TgWHdeOONuueeewzggMlyi2Xv/PKXv3xHFxi0Af4w4iRUqwUISIcYJwCBOPmEbfXKyod4m31OP+Hx+W2HzBXJAgCBcdt9Awhmjxo7lGBQhN0F+EA7IuDRrpvkAxrY90mcxu0cWsEc2ZcANObMejF2vlvYoPAOfQPmoBntUNcNnDFmABa0JgofYwfo8f1FosP3gnYfffRRA9zcCuvFd4XxQOdwyQUShIzAiNR5dDp+jfwx+xQ4KygwHEx5p4rhXbNT9JcDPQo5dQtj5LAAgQODQwbG7swgxkFkjPpCIXPI2Ihe3EA4JOzfnaE63TJ7cVNE2gBDdxO30jbJSGBK3FCs+sD2yWFIu9wiKfTNgcvt3xoV2pCrbiuN2oKbJ2oUG6cdaQTzma7SA+YZboNgs86lp6cpKzNT1fveSk9rAQL0AgjAvPix4mc+rbQI0GcZMe/atbaMydp0wHhhuKwPa+UFtGjDqqLoA8ZEPfq0ddkX3IzZU86MeLZN3qcNN/UA71OXNmx9my7WMjPGRxsW4ITvE0sT9ruXeo13aIdPQJO1Z7H98/9wNZtVB3idQIAhwBF72er3LV0Zh5UW0C705wca8AyVAfsecGjXMbwf+qc9xsZ3236HbZZB6MMPbXitH2sGoP7FL35h3nEDCEZCUv92qdVZcer6k/QpME0okFNR5W2k6DYHpwQBvbTNoT1N5nvWDzMcIIxHkNPBSHG8tLln/WJOYwIgQWiNT5Paj0zjWfhD9ylwZlMgJx758qd/NaJgTkQzTd34M8W3jBr7+WX6UaCwmLBwkZWmhsMaHn67X2xkNf23fAqMT4FQao5Sa97wyRRGgUgBfCg0oNoD/jnsb6ATT4H/D7F54cm8hLnUAAAAAElFTkSuQmCC;" parent="1" vertex="1">
                    <mxGeometry x="40" y="240" width="745.39" height="420" as="geometry"/>
                </mxCell>
                <mxCell id="6" value="" style="shape=image;verticalLabelPosition=bottom;labelBackgroundColor=default;verticalAlign=top;aspect=fixed;imageAspect=0;image=https://www.simplilearn.com/ice9/free_resources_article_thumb/C%2B%2B_STL_Example11.PNG;" vertex="1" parent="1">
                    <mxGeometry x="130" y="970" width="520" height="217" as="geometry"/>
                </mxCell>
                <mxCell id="7" value="https://www.geeksforgeeks.org/the-c-standard-template-library-stl/" style="text;html=1;align=center;verticalAlign=middle;resizable=0;points=[];autosize=1;strokeColor=none;fillColor=none;" vertex="1" parent="1">
                    <mxGeometry x="30" y="855" width="370" height="30" as="geometry"/>
                </mxCell>
            </root>
        </mxGraphModel>
    </diagram>
</mxfile>